M48
; DRILL file {KiCad 7.0.10} date Sun Oct 26 16:30:39 2025
; FORMAT={-:-/ absolute / metric / decimal}
; #@! TF.CreationDate,2025-10-26T16:30:39+00:00
; #@! TF.GenerationSoftware,Kicad,Pcbnew,7.0.10
; #@! TF.FileFunction,Plated,1,2,PTH
FMAT,2
METRIC
; #@! TA.AperFunction,Plated,PTH,ViaDrill
T1C0.700
; #@! TA.AperFunction,Plated,PTH,ComponentDrill
T2C0.700
; #@! TA.AperFunction,Plated,PTH,ComponentDrill
T3C0.750
; #@! TA.AperFunction,Plated,PTH,ComponentDrill
T4C0.800
; #@! TA.AperFunction,Plated,PTH,ComponentDrill
T5C1.000
%
G90
G05
T1
X177.597Y-102.006
T2
X105.41Y-99.06
X105.41Y-101.6
X105.41Y-104.14
X105.41Y-106.68
X113.03Y-99.06
X113.03Y-101.6
X113.03Y-104.14
X113.03Y-106.68
X116.014Y-98.692
X116.014Y-106.312
X122.999Y-87.897
X122.999Y-95.517
X125.539Y-87.897
X125.539Y-95.517
X135.636Y-109.474
X135.636Y-117.094
X135.7Y-87.897
X135.7Y-95.517
X138.239Y-109.487
X138.239Y-117.107
X140.779Y-87.897
X140.779Y-95.517
X140.779Y-109.487
X140.779Y-117.107
X143.32Y-87.897
X143.32Y-95.517
X147.13Y-87.897
X147.13Y-95.517
X147.13Y-98.692
X147.13Y-106.312
X163.639Y-105.677
X163.639Y-108.217
X163.639Y-115.837
X163.639Y-118.377
X163.639Y-120.917
X163.639Y-123.457
X171.26Y-105.677
X171.26Y-108.217
X171.26Y-115.837
X171.26Y-118.377
X171.26Y-120.917
X171.26Y-123.457
X175.057Y-93.599
X175.057Y-96.139
X175.07Y-98.692
X182.677Y-93.599
X182.677Y-96.139
X182.689Y-98.692
X185.23Y-105.677
X185.23Y-108.217
X185.23Y-113.284
X185.23Y-115.824
X185.23Y-118.364
X192.849Y-105.677
X192.849Y-108.217
X192.849Y-113.284
X192.849Y-115.824
X192.849Y-118.364
T3
X129.35Y-91.707
X130.619Y-90.437
X131.889Y-91.707
T4
X120.459Y-90.517
X120.459Y-95.517
X120.459Y-98.692
X120.459Y-106.312
X122.999Y-98.692
X122.999Y-106.312
X123.079Y-109.567
X125.539Y-98.692
X125.539Y-106.312
X127.444Y-121.552
X127.444Y-129.172
X128.079Y-98.692
X128.079Y-106.312
X128.079Y-109.567
X128.081Y-115.773
X130.581Y-115.773
X135.7Y-98.692
X135.7Y-106.312
X138.239Y-98.692
X138.239Y-106.312
X138.252Y-90.464
X138.252Y-95.464
X140.779Y-98.692
X140.779Y-106.312
X143.32Y-98.692
X143.32Y-106.312
X143.32Y-109.527
X143.32Y-114.527
X151.575Y-98.692
X151.575Y-106.312
X151.575Y-121.552
X151.575Y-129.172
X153.48Y-114.935
X154.114Y-98.692
X154.114Y-106.312
X154.153Y-90.479
X154.153Y-95.479
X154.195Y-109.527
X155.98Y-114.935
X156.654Y-98.692
X156.654Y-106.312
X156.654Y-121.592
X156.654Y-124.092
X159.195Y-98.692
X159.195Y-106.312
X159.195Y-109.527
X164.465Y-95.885
X164.465Y-98.385
X166.501Y-110.769
X171.501Y-110.769
X174.434Y-105.677
X174.434Y-108.217
X174.434Y-110.757
X174.434Y-113.297
X174.434Y-115.837
X174.434Y-118.377
X174.434Y-120.917
X182.054Y-105.677
X182.054Y-108.217
X182.054Y-110.757
X182.054Y-113.297
X182.054Y-115.837
X182.054Y-118.377
X182.054Y-120.917
X185.269Y-110.744
X190.269Y-110.744
T5
X102.235Y-96.52
X102.235Y-99.06
X102.235Y-101.6
X102.235Y-104.14
X102.235Y-106.68
X102.235Y-109.22
X131.826Y-106.939
X131.826Y-109.479
X134.429Y-124.092
X134.429Y-126.632
X136.969Y-124.092
X136.969Y-126.632
X139.51Y-124.092
X139.51Y-126.632
X142.049Y-124.092
X142.049Y-126.632
X144.589Y-124.092
X144.589Y-126.632
X149.225Y-111.125
X149.225Y-113.665
X149.225Y-116.205
X171.894Y-91.062
X171.894Y-93.602
X171.894Y-96.142
X171.894Y-98.682
X175.666Y-125.705
X178.206Y-125.705
X180.746Y-125.705
M30
