%TF.GenerationSoftware,KiCad,Pcbnew,7.0.10*%
%TF.CreationDate,2025-10-26T16:30:34+00:00*%
%TF.ProjectId,Polivoks filter-R,506f6c69-766f-46b7-9320-66696c746572,rev?*%
%TF.SameCoordinates,Original*%
%TF.FileFunction,Legend,Top*%
%TF.FilePolarity,Positive*%
%FSLAX46Y46*%
G04 Gerber Fmt 4.6, Leading zero omitted, Abs format (unit mm)*
G04 Created by KiCad (PCBNEW 7.0.10) date 2025-10-26 16:30:34*
%MOMM*%
%LPD*%
G01*
G04 APERTURE LIST*
%ADD10C,0.300000*%
%ADD11C,0.700000*%
%ADD12C,0.150000*%
%ADD13C,0.120000*%
G04 APERTURE END LIST*
D10*
X154224510Y-129975828D02*
X154224510Y-128475828D01*
X154224510Y-128475828D02*
X154724510Y-129547257D01*
X154724510Y-129547257D02*
X155224510Y-128475828D01*
X155224510Y-128475828D02*
X155224510Y-129975828D01*
X156153082Y-129975828D02*
X156010225Y-129904400D01*
X156010225Y-129904400D02*
X155938796Y-129832971D01*
X155938796Y-129832971D02*
X155867368Y-129690114D01*
X155867368Y-129690114D02*
X155867368Y-129261542D01*
X155867368Y-129261542D02*
X155938796Y-129118685D01*
X155938796Y-129118685D02*
X156010225Y-129047257D01*
X156010225Y-129047257D02*
X156153082Y-128975828D01*
X156153082Y-128975828D02*
X156367368Y-128975828D01*
X156367368Y-128975828D02*
X156510225Y-129047257D01*
X156510225Y-129047257D02*
X156581654Y-129118685D01*
X156581654Y-129118685D02*
X156653082Y-129261542D01*
X156653082Y-129261542D02*
X156653082Y-129690114D01*
X156653082Y-129690114D02*
X156581654Y-129832971D01*
X156581654Y-129832971D02*
X156510225Y-129904400D01*
X156510225Y-129904400D02*
X156367368Y-129975828D01*
X156367368Y-129975828D02*
X156153082Y-129975828D01*
X157938797Y-129975828D02*
X157938797Y-128475828D01*
X157938797Y-129904400D02*
X157795939Y-129975828D01*
X157795939Y-129975828D02*
X157510225Y-129975828D01*
X157510225Y-129975828D02*
X157367368Y-129904400D01*
X157367368Y-129904400D02*
X157295939Y-129832971D01*
X157295939Y-129832971D02*
X157224511Y-129690114D01*
X157224511Y-129690114D02*
X157224511Y-129261542D01*
X157224511Y-129261542D02*
X157295939Y-129118685D01*
X157295939Y-129118685D02*
X157367368Y-129047257D01*
X157367368Y-129047257D02*
X157510225Y-128975828D01*
X157510225Y-128975828D02*
X157795939Y-128975828D01*
X157795939Y-128975828D02*
X157938797Y-129047257D01*
X158653082Y-129975828D02*
X158653082Y-128975828D01*
X158653082Y-128475828D02*
X158581654Y-128547257D01*
X158581654Y-128547257D02*
X158653082Y-128618685D01*
X158653082Y-128618685D02*
X158724511Y-128547257D01*
X158724511Y-128547257D02*
X158653082Y-128475828D01*
X158653082Y-128475828D02*
X158653082Y-128618685D01*
X159153083Y-128975828D02*
X159724511Y-128975828D01*
X159367368Y-129975828D02*
X159367368Y-128690114D01*
X159367368Y-128690114D02*
X159438797Y-128547257D01*
X159438797Y-128547257D02*
X159581654Y-128475828D01*
X159581654Y-128475828D02*
X159724511Y-128475828D01*
X160224511Y-129975828D02*
X160224511Y-128975828D01*
X160224511Y-128475828D02*
X160153083Y-128547257D01*
X160153083Y-128547257D02*
X160224511Y-128618685D01*
X160224511Y-128618685D02*
X160295940Y-128547257D01*
X160295940Y-128547257D02*
X160224511Y-128475828D01*
X160224511Y-128475828D02*
X160224511Y-128618685D01*
X161581655Y-129904400D02*
X161438797Y-129975828D01*
X161438797Y-129975828D02*
X161153083Y-129975828D01*
X161153083Y-129975828D02*
X161010226Y-129904400D01*
X161010226Y-129904400D02*
X160938797Y-129832971D01*
X160938797Y-129832971D02*
X160867369Y-129690114D01*
X160867369Y-129690114D02*
X160867369Y-129261542D01*
X160867369Y-129261542D02*
X160938797Y-129118685D01*
X160938797Y-129118685D02*
X161010226Y-129047257D01*
X161010226Y-129047257D02*
X161153083Y-128975828D01*
X161153083Y-128975828D02*
X161438797Y-128975828D01*
X161438797Y-128975828D02*
X161581655Y-129047257D01*
X162867369Y-129975828D02*
X162867369Y-129190114D01*
X162867369Y-129190114D02*
X162795940Y-129047257D01*
X162795940Y-129047257D02*
X162653083Y-128975828D01*
X162653083Y-128975828D02*
X162367369Y-128975828D01*
X162367369Y-128975828D02*
X162224511Y-129047257D01*
X162867369Y-129904400D02*
X162724511Y-129975828D01*
X162724511Y-129975828D02*
X162367369Y-129975828D01*
X162367369Y-129975828D02*
X162224511Y-129904400D01*
X162224511Y-129904400D02*
X162153083Y-129761542D01*
X162153083Y-129761542D02*
X162153083Y-129618685D01*
X162153083Y-129618685D02*
X162224511Y-129475828D01*
X162224511Y-129475828D02*
X162367369Y-129404400D01*
X162367369Y-129404400D02*
X162724511Y-129404400D01*
X162724511Y-129404400D02*
X162867369Y-129332971D01*
X163367369Y-128975828D02*
X163938797Y-128975828D01*
X163581654Y-128475828D02*
X163581654Y-129761542D01*
X163581654Y-129761542D02*
X163653083Y-129904400D01*
X163653083Y-129904400D02*
X163795940Y-129975828D01*
X163795940Y-129975828D02*
X163938797Y-129975828D01*
X164438797Y-129975828D02*
X164438797Y-128975828D01*
X164438797Y-128475828D02*
X164367369Y-128547257D01*
X164367369Y-128547257D02*
X164438797Y-128618685D01*
X164438797Y-128618685D02*
X164510226Y-128547257D01*
X164510226Y-128547257D02*
X164438797Y-128475828D01*
X164438797Y-128475828D02*
X164438797Y-128618685D01*
X165367369Y-129975828D02*
X165224512Y-129904400D01*
X165224512Y-129904400D02*
X165153083Y-129832971D01*
X165153083Y-129832971D02*
X165081655Y-129690114D01*
X165081655Y-129690114D02*
X165081655Y-129261542D01*
X165081655Y-129261542D02*
X165153083Y-129118685D01*
X165153083Y-129118685D02*
X165224512Y-129047257D01*
X165224512Y-129047257D02*
X165367369Y-128975828D01*
X165367369Y-128975828D02*
X165581655Y-128975828D01*
X165581655Y-128975828D02*
X165724512Y-129047257D01*
X165724512Y-129047257D02*
X165795941Y-129118685D01*
X165795941Y-129118685D02*
X165867369Y-129261542D01*
X165867369Y-129261542D02*
X165867369Y-129690114D01*
X165867369Y-129690114D02*
X165795941Y-129832971D01*
X165795941Y-129832971D02*
X165724512Y-129904400D01*
X165724512Y-129904400D02*
X165581655Y-129975828D01*
X165581655Y-129975828D02*
X165367369Y-129975828D01*
X166510226Y-128975828D02*
X166510226Y-129975828D01*
X166510226Y-129118685D02*
X166581655Y-129047257D01*
X166581655Y-129047257D02*
X166724512Y-128975828D01*
X166724512Y-128975828D02*
X166938798Y-128975828D01*
X166938798Y-128975828D02*
X167081655Y-129047257D01*
X167081655Y-129047257D02*
X167153084Y-129190114D01*
X167153084Y-129190114D02*
X167153084Y-129975828D01*
X167795941Y-129904400D02*
X167938798Y-129975828D01*
X167938798Y-129975828D02*
X168224512Y-129975828D01*
X168224512Y-129975828D02*
X168367369Y-129904400D01*
X168367369Y-129904400D02*
X168438798Y-129761542D01*
X168438798Y-129761542D02*
X168438798Y-129690114D01*
X168438798Y-129690114D02*
X168367369Y-129547257D01*
X168367369Y-129547257D02*
X168224512Y-129475828D01*
X168224512Y-129475828D02*
X168010227Y-129475828D01*
X168010227Y-129475828D02*
X167867369Y-129404400D01*
X167867369Y-129404400D02*
X167795941Y-129261542D01*
X167795941Y-129261542D02*
X167795941Y-129190114D01*
X167795941Y-129190114D02*
X167867369Y-129047257D01*
X167867369Y-129047257D02*
X168010227Y-128975828D01*
X168010227Y-128975828D02*
X168224512Y-128975828D01*
X168224512Y-128975828D02*
X168367369Y-129047257D01*
X170867370Y-129975828D02*
X170867370Y-129190114D01*
X170867370Y-129190114D02*
X170795941Y-129047257D01*
X170795941Y-129047257D02*
X170653084Y-128975828D01*
X170653084Y-128975828D02*
X170367370Y-128975828D01*
X170367370Y-128975828D02*
X170224512Y-129047257D01*
X170867370Y-129904400D02*
X170724512Y-129975828D01*
X170724512Y-129975828D02*
X170367370Y-129975828D01*
X170367370Y-129975828D02*
X170224512Y-129904400D01*
X170224512Y-129904400D02*
X170153084Y-129761542D01*
X170153084Y-129761542D02*
X170153084Y-129618685D01*
X170153084Y-129618685D02*
X170224512Y-129475828D01*
X170224512Y-129475828D02*
X170367370Y-129404400D01*
X170367370Y-129404400D02*
X170724512Y-129404400D01*
X170724512Y-129404400D02*
X170867370Y-129332971D01*
X171581655Y-128975828D02*
X171581655Y-129975828D01*
X171581655Y-129118685D02*
X171653084Y-129047257D01*
X171653084Y-129047257D02*
X171795941Y-128975828D01*
X171795941Y-128975828D02*
X172010227Y-128975828D01*
X172010227Y-128975828D02*
X172153084Y-129047257D01*
X172153084Y-129047257D02*
X172224513Y-129190114D01*
X172224513Y-129190114D02*
X172224513Y-129975828D01*
X173581656Y-129975828D02*
X173581656Y-128475828D01*
X173581656Y-129904400D02*
X173438798Y-129975828D01*
X173438798Y-129975828D02*
X173153084Y-129975828D01*
X173153084Y-129975828D02*
X173010227Y-129904400D01*
X173010227Y-129904400D02*
X172938798Y-129832971D01*
X172938798Y-129832971D02*
X172867370Y-129690114D01*
X172867370Y-129690114D02*
X172867370Y-129261542D01*
X172867370Y-129261542D02*
X172938798Y-129118685D01*
X172938798Y-129118685D02*
X173010227Y-129047257D01*
X173010227Y-129047257D02*
X173153084Y-128975828D01*
X173153084Y-128975828D02*
X173438798Y-128975828D01*
X173438798Y-128975828D02*
X173581656Y-129047257D01*
X175438798Y-129975828D02*
X175438798Y-128475828D01*
X175438798Y-128475828D02*
X176010227Y-128475828D01*
X176010227Y-128475828D02*
X176153084Y-128547257D01*
X176153084Y-128547257D02*
X176224513Y-128618685D01*
X176224513Y-128618685D02*
X176295941Y-128761542D01*
X176295941Y-128761542D02*
X176295941Y-128975828D01*
X176295941Y-128975828D02*
X176224513Y-129118685D01*
X176224513Y-129118685D02*
X176153084Y-129190114D01*
X176153084Y-129190114D02*
X176010227Y-129261542D01*
X176010227Y-129261542D02*
X175438798Y-129261542D01*
X177795941Y-129832971D02*
X177724513Y-129904400D01*
X177724513Y-129904400D02*
X177510227Y-129975828D01*
X177510227Y-129975828D02*
X177367370Y-129975828D01*
X177367370Y-129975828D02*
X177153084Y-129904400D01*
X177153084Y-129904400D02*
X177010227Y-129761542D01*
X177010227Y-129761542D02*
X176938798Y-129618685D01*
X176938798Y-129618685D02*
X176867370Y-129332971D01*
X176867370Y-129332971D02*
X176867370Y-129118685D01*
X176867370Y-129118685D02*
X176938798Y-128832971D01*
X176938798Y-128832971D02*
X177010227Y-128690114D01*
X177010227Y-128690114D02*
X177153084Y-128547257D01*
X177153084Y-128547257D02*
X177367370Y-128475828D01*
X177367370Y-128475828D02*
X177510227Y-128475828D01*
X177510227Y-128475828D02*
X177724513Y-128547257D01*
X177724513Y-128547257D02*
X177795941Y-128618685D01*
X178938798Y-129190114D02*
X179153084Y-129261542D01*
X179153084Y-129261542D02*
X179224513Y-129332971D01*
X179224513Y-129332971D02*
X179295941Y-129475828D01*
X179295941Y-129475828D02*
X179295941Y-129690114D01*
X179295941Y-129690114D02*
X179224513Y-129832971D01*
X179224513Y-129832971D02*
X179153084Y-129904400D01*
X179153084Y-129904400D02*
X179010227Y-129975828D01*
X179010227Y-129975828D02*
X178438798Y-129975828D01*
X178438798Y-129975828D02*
X178438798Y-128475828D01*
X178438798Y-128475828D02*
X178938798Y-128475828D01*
X178938798Y-128475828D02*
X179081656Y-128547257D01*
X179081656Y-128547257D02*
X179153084Y-128618685D01*
X179153084Y-128618685D02*
X179224513Y-128761542D01*
X179224513Y-128761542D02*
X179224513Y-128904400D01*
X179224513Y-128904400D02*
X179153084Y-129047257D01*
X179153084Y-129047257D02*
X179081656Y-129118685D01*
X179081656Y-129118685D02*
X178938798Y-129190114D01*
X178938798Y-129190114D02*
X178438798Y-129190114D01*
X181081655Y-129975828D02*
X181081655Y-128475828D01*
X181081655Y-129047257D02*
X181224513Y-128975828D01*
X181224513Y-128975828D02*
X181510227Y-128975828D01*
X181510227Y-128975828D02*
X181653084Y-129047257D01*
X181653084Y-129047257D02*
X181724513Y-129118685D01*
X181724513Y-129118685D02*
X181795941Y-129261542D01*
X181795941Y-129261542D02*
X181795941Y-129690114D01*
X181795941Y-129690114D02*
X181724513Y-129832971D01*
X181724513Y-129832971D02*
X181653084Y-129904400D01*
X181653084Y-129904400D02*
X181510227Y-129975828D01*
X181510227Y-129975828D02*
X181224513Y-129975828D01*
X181224513Y-129975828D02*
X181081655Y-129904400D01*
X182295941Y-128975828D02*
X182653084Y-129975828D01*
X183010227Y-128975828D02*
X182653084Y-129975828D01*
X182653084Y-129975828D02*
X182510227Y-130332971D01*
X182510227Y-130332971D02*
X182438798Y-130404400D01*
X182438798Y-130404400D02*
X182295941Y-130475828D01*
X100241510Y-126343314D02*
X100455796Y-126414742D01*
X100455796Y-126414742D02*
X100527225Y-126486171D01*
X100527225Y-126486171D02*
X100598653Y-126629028D01*
X100598653Y-126629028D02*
X100598653Y-126843314D01*
X100598653Y-126843314D02*
X100527225Y-126986171D01*
X100527225Y-126986171D02*
X100455796Y-127057600D01*
X100455796Y-127057600D02*
X100312939Y-127129028D01*
X100312939Y-127129028D02*
X99741510Y-127129028D01*
X99741510Y-127129028D02*
X99741510Y-125629028D01*
X99741510Y-125629028D02*
X100241510Y-125629028D01*
X100241510Y-125629028D02*
X100384368Y-125700457D01*
X100384368Y-125700457D02*
X100455796Y-125771885D01*
X100455796Y-125771885D02*
X100527225Y-125914742D01*
X100527225Y-125914742D02*
X100527225Y-126057600D01*
X100527225Y-126057600D02*
X100455796Y-126200457D01*
X100455796Y-126200457D02*
X100384368Y-126271885D01*
X100384368Y-126271885D02*
X100241510Y-126343314D01*
X100241510Y-126343314D02*
X99741510Y-126343314D01*
X101884368Y-127129028D02*
X101884368Y-126343314D01*
X101884368Y-126343314D02*
X101812939Y-126200457D01*
X101812939Y-126200457D02*
X101670082Y-126129028D01*
X101670082Y-126129028D02*
X101384368Y-126129028D01*
X101384368Y-126129028D02*
X101241510Y-126200457D01*
X101884368Y-127057600D02*
X101741510Y-127129028D01*
X101741510Y-127129028D02*
X101384368Y-127129028D01*
X101384368Y-127129028D02*
X101241510Y-127057600D01*
X101241510Y-127057600D02*
X101170082Y-126914742D01*
X101170082Y-126914742D02*
X101170082Y-126771885D01*
X101170082Y-126771885D02*
X101241510Y-126629028D01*
X101241510Y-126629028D02*
X101384368Y-126557600D01*
X101384368Y-126557600D02*
X101741510Y-126557600D01*
X101741510Y-126557600D02*
X101884368Y-126486171D01*
X102527225Y-127057600D02*
X102670082Y-127129028D01*
X102670082Y-127129028D02*
X102955796Y-127129028D01*
X102955796Y-127129028D02*
X103098653Y-127057600D01*
X103098653Y-127057600D02*
X103170082Y-126914742D01*
X103170082Y-126914742D02*
X103170082Y-126843314D01*
X103170082Y-126843314D02*
X103098653Y-126700457D01*
X103098653Y-126700457D02*
X102955796Y-126629028D01*
X102955796Y-126629028D02*
X102741511Y-126629028D01*
X102741511Y-126629028D02*
X102598653Y-126557600D01*
X102598653Y-126557600D02*
X102527225Y-126414742D01*
X102527225Y-126414742D02*
X102527225Y-126343314D01*
X102527225Y-126343314D02*
X102598653Y-126200457D01*
X102598653Y-126200457D02*
X102741511Y-126129028D01*
X102741511Y-126129028D02*
X102955796Y-126129028D01*
X102955796Y-126129028D02*
X103098653Y-126200457D01*
X104384368Y-127057600D02*
X104241511Y-127129028D01*
X104241511Y-127129028D02*
X103955797Y-127129028D01*
X103955797Y-127129028D02*
X103812939Y-127057600D01*
X103812939Y-127057600D02*
X103741511Y-126914742D01*
X103741511Y-126914742D02*
X103741511Y-126343314D01*
X103741511Y-126343314D02*
X103812939Y-126200457D01*
X103812939Y-126200457D02*
X103955797Y-126129028D01*
X103955797Y-126129028D02*
X104241511Y-126129028D01*
X104241511Y-126129028D02*
X104384368Y-126200457D01*
X104384368Y-126200457D02*
X104455797Y-126343314D01*
X104455797Y-126343314D02*
X104455797Y-126486171D01*
X104455797Y-126486171D02*
X103741511Y-126629028D01*
X105741511Y-127129028D02*
X105741511Y-125629028D01*
X105741511Y-127057600D02*
X105598653Y-127129028D01*
X105598653Y-127129028D02*
X105312939Y-127129028D01*
X105312939Y-127129028D02*
X105170082Y-127057600D01*
X105170082Y-127057600D02*
X105098653Y-126986171D01*
X105098653Y-126986171D02*
X105027225Y-126843314D01*
X105027225Y-126843314D02*
X105027225Y-126414742D01*
X105027225Y-126414742D02*
X105098653Y-126271885D01*
X105098653Y-126271885D02*
X105170082Y-126200457D01*
X105170082Y-126200457D02*
X105312939Y-126129028D01*
X105312939Y-126129028D02*
X105598653Y-126129028D01*
X105598653Y-126129028D02*
X105741511Y-126200457D01*
X107812939Y-127129028D02*
X107670082Y-127057600D01*
X107670082Y-127057600D02*
X107598653Y-126986171D01*
X107598653Y-126986171D02*
X107527225Y-126843314D01*
X107527225Y-126843314D02*
X107527225Y-126414742D01*
X107527225Y-126414742D02*
X107598653Y-126271885D01*
X107598653Y-126271885D02*
X107670082Y-126200457D01*
X107670082Y-126200457D02*
X107812939Y-126129028D01*
X107812939Y-126129028D02*
X108027225Y-126129028D01*
X108027225Y-126129028D02*
X108170082Y-126200457D01*
X108170082Y-126200457D02*
X108241511Y-126271885D01*
X108241511Y-126271885D02*
X108312939Y-126414742D01*
X108312939Y-126414742D02*
X108312939Y-126843314D01*
X108312939Y-126843314D02*
X108241511Y-126986171D01*
X108241511Y-126986171D02*
X108170082Y-127057600D01*
X108170082Y-127057600D02*
X108027225Y-127129028D01*
X108027225Y-127129028D02*
X107812939Y-127129028D01*
X108955796Y-126129028D02*
X108955796Y-127129028D01*
X108955796Y-126271885D02*
X109027225Y-126200457D01*
X109027225Y-126200457D02*
X109170082Y-126129028D01*
X109170082Y-126129028D02*
X109384368Y-126129028D01*
X109384368Y-126129028D02*
X109527225Y-126200457D01*
X109527225Y-126200457D02*
X109598654Y-126343314D01*
X109598654Y-126343314D02*
X109598654Y-127129028D01*
X111241511Y-126129028D02*
X111812939Y-126129028D01*
X111455796Y-125629028D02*
X111455796Y-126914742D01*
X111455796Y-126914742D02*
X111527225Y-127057600D01*
X111527225Y-127057600D02*
X111670082Y-127129028D01*
X111670082Y-127129028D02*
X111812939Y-127129028D01*
X112312939Y-127129028D02*
X112312939Y-125629028D01*
X112955797Y-127129028D02*
X112955797Y-126343314D01*
X112955797Y-126343314D02*
X112884368Y-126200457D01*
X112884368Y-126200457D02*
X112741511Y-126129028D01*
X112741511Y-126129028D02*
X112527225Y-126129028D01*
X112527225Y-126129028D02*
X112384368Y-126200457D01*
X112384368Y-126200457D02*
X112312939Y-126271885D01*
X114241511Y-127057600D02*
X114098654Y-127129028D01*
X114098654Y-127129028D02*
X113812940Y-127129028D01*
X113812940Y-127129028D02*
X113670082Y-127057600D01*
X113670082Y-127057600D02*
X113598654Y-126914742D01*
X113598654Y-126914742D02*
X113598654Y-126343314D01*
X113598654Y-126343314D02*
X113670082Y-126200457D01*
X113670082Y-126200457D02*
X113812940Y-126129028D01*
X113812940Y-126129028D02*
X114098654Y-126129028D01*
X114098654Y-126129028D02*
X114241511Y-126200457D01*
X114241511Y-126200457D02*
X114312940Y-126343314D01*
X114312940Y-126343314D02*
X114312940Y-126486171D01*
X114312940Y-126486171D02*
X113598654Y-126629028D01*
X116312939Y-127129028D02*
X116170082Y-127057600D01*
X116170082Y-127057600D02*
X116098653Y-126986171D01*
X116098653Y-126986171D02*
X116027225Y-126843314D01*
X116027225Y-126843314D02*
X116027225Y-126414742D01*
X116027225Y-126414742D02*
X116098653Y-126271885D01*
X116098653Y-126271885D02*
X116170082Y-126200457D01*
X116170082Y-126200457D02*
X116312939Y-126129028D01*
X116312939Y-126129028D02*
X116527225Y-126129028D01*
X116527225Y-126129028D02*
X116670082Y-126200457D01*
X116670082Y-126200457D02*
X116741511Y-126271885D01*
X116741511Y-126271885D02*
X116812939Y-126414742D01*
X116812939Y-126414742D02*
X116812939Y-126843314D01*
X116812939Y-126843314D02*
X116741511Y-126986171D01*
X116741511Y-126986171D02*
X116670082Y-127057600D01*
X116670082Y-127057600D02*
X116527225Y-127129028D01*
X116527225Y-127129028D02*
X116312939Y-127129028D01*
X117455796Y-127129028D02*
X117455796Y-126129028D01*
X117455796Y-126414742D02*
X117527225Y-126271885D01*
X117527225Y-126271885D02*
X117598654Y-126200457D01*
X117598654Y-126200457D02*
X117741511Y-126129028D01*
X117741511Y-126129028D02*
X117884368Y-126129028D01*
X118384367Y-127129028D02*
X118384367Y-126129028D01*
X118384367Y-125629028D02*
X118312939Y-125700457D01*
X118312939Y-125700457D02*
X118384367Y-125771885D01*
X118384367Y-125771885D02*
X118455796Y-125700457D01*
X118455796Y-125700457D02*
X118384367Y-125629028D01*
X118384367Y-125629028D02*
X118384367Y-125771885D01*
X119741511Y-126129028D02*
X119741511Y-127343314D01*
X119741511Y-127343314D02*
X119670082Y-127486171D01*
X119670082Y-127486171D02*
X119598653Y-127557600D01*
X119598653Y-127557600D02*
X119455796Y-127629028D01*
X119455796Y-127629028D02*
X119241511Y-127629028D01*
X119241511Y-127629028D02*
X119098653Y-127557600D01*
X119741511Y-127057600D02*
X119598653Y-127129028D01*
X119598653Y-127129028D02*
X119312939Y-127129028D01*
X119312939Y-127129028D02*
X119170082Y-127057600D01*
X119170082Y-127057600D02*
X119098653Y-126986171D01*
X119098653Y-126986171D02*
X119027225Y-126843314D01*
X119027225Y-126843314D02*
X119027225Y-126414742D01*
X119027225Y-126414742D02*
X119098653Y-126271885D01*
X119098653Y-126271885D02*
X119170082Y-126200457D01*
X119170082Y-126200457D02*
X119312939Y-126129028D01*
X119312939Y-126129028D02*
X119598653Y-126129028D01*
X119598653Y-126129028D02*
X119741511Y-126200457D01*
X120455796Y-127129028D02*
X120455796Y-126129028D01*
X120455796Y-125629028D02*
X120384368Y-125700457D01*
X120384368Y-125700457D02*
X120455796Y-125771885D01*
X120455796Y-125771885D02*
X120527225Y-125700457D01*
X120527225Y-125700457D02*
X120455796Y-125629028D01*
X120455796Y-125629028D02*
X120455796Y-125771885D01*
X121170082Y-126129028D02*
X121170082Y-127129028D01*
X121170082Y-126271885D02*
X121241511Y-126200457D01*
X121241511Y-126200457D02*
X121384368Y-126129028D01*
X121384368Y-126129028D02*
X121598654Y-126129028D01*
X121598654Y-126129028D02*
X121741511Y-126200457D01*
X121741511Y-126200457D02*
X121812940Y-126343314D01*
X121812940Y-126343314D02*
X121812940Y-127129028D01*
X123170083Y-127129028D02*
X123170083Y-126343314D01*
X123170083Y-126343314D02*
X123098654Y-126200457D01*
X123098654Y-126200457D02*
X122955797Y-126129028D01*
X122955797Y-126129028D02*
X122670083Y-126129028D01*
X122670083Y-126129028D02*
X122527225Y-126200457D01*
X123170083Y-127057600D02*
X123027225Y-127129028D01*
X123027225Y-127129028D02*
X122670083Y-127129028D01*
X122670083Y-127129028D02*
X122527225Y-127057600D01*
X122527225Y-127057600D02*
X122455797Y-126914742D01*
X122455797Y-126914742D02*
X122455797Y-126771885D01*
X122455797Y-126771885D02*
X122527225Y-126629028D01*
X122527225Y-126629028D02*
X122670083Y-126557600D01*
X122670083Y-126557600D02*
X123027225Y-126557600D01*
X123027225Y-126557600D02*
X123170083Y-126486171D01*
X124098654Y-127129028D02*
X123955797Y-127057600D01*
X123955797Y-127057600D02*
X123884368Y-126914742D01*
X123884368Y-126914742D02*
X123884368Y-125629028D01*
X99741510Y-129544028D02*
X99741510Y-128044028D01*
X99741510Y-128044028D02*
X100312939Y-128044028D01*
X100312939Y-128044028D02*
X100455796Y-128115457D01*
X100455796Y-128115457D02*
X100527225Y-128186885D01*
X100527225Y-128186885D02*
X100598653Y-128329742D01*
X100598653Y-128329742D02*
X100598653Y-128544028D01*
X100598653Y-128544028D02*
X100527225Y-128686885D01*
X100527225Y-128686885D02*
X100455796Y-128758314D01*
X100455796Y-128758314D02*
X100312939Y-128829742D01*
X100312939Y-128829742D02*
X99741510Y-128829742D01*
X101527225Y-128044028D02*
X101812939Y-128044028D01*
X101812939Y-128044028D02*
X101955796Y-128115457D01*
X101955796Y-128115457D02*
X102098653Y-128258314D01*
X102098653Y-128258314D02*
X102170082Y-128544028D01*
X102170082Y-128544028D02*
X102170082Y-129044028D01*
X102170082Y-129044028D02*
X102098653Y-129329742D01*
X102098653Y-129329742D02*
X101955796Y-129472600D01*
X101955796Y-129472600D02*
X101812939Y-129544028D01*
X101812939Y-129544028D02*
X101527225Y-129544028D01*
X101527225Y-129544028D02*
X101384368Y-129472600D01*
X101384368Y-129472600D02*
X101241510Y-129329742D01*
X101241510Y-129329742D02*
X101170082Y-129044028D01*
X101170082Y-129044028D02*
X101170082Y-128544028D01*
X101170082Y-128544028D02*
X101241510Y-128258314D01*
X101241510Y-128258314D02*
X101384368Y-128115457D01*
X101384368Y-128115457D02*
X101527225Y-128044028D01*
X103527225Y-129544028D02*
X102812939Y-129544028D01*
X102812939Y-129544028D02*
X102812939Y-128044028D01*
X104027225Y-129544028D02*
X104027225Y-128044028D01*
X104527226Y-128044028D02*
X105027226Y-129544028D01*
X105027226Y-129544028D02*
X105527226Y-128044028D01*
X106312940Y-128044028D02*
X106598654Y-128044028D01*
X106598654Y-128044028D02*
X106741511Y-128115457D01*
X106741511Y-128115457D02*
X106884368Y-128258314D01*
X106884368Y-128258314D02*
X106955797Y-128544028D01*
X106955797Y-128544028D02*
X106955797Y-129044028D01*
X106955797Y-129044028D02*
X106884368Y-129329742D01*
X106884368Y-129329742D02*
X106741511Y-129472600D01*
X106741511Y-129472600D02*
X106598654Y-129544028D01*
X106598654Y-129544028D02*
X106312940Y-129544028D01*
X106312940Y-129544028D02*
X106170083Y-129472600D01*
X106170083Y-129472600D02*
X106027225Y-129329742D01*
X106027225Y-129329742D02*
X105955797Y-129044028D01*
X105955797Y-129044028D02*
X105955797Y-128544028D01*
X105955797Y-128544028D02*
X106027225Y-128258314D01*
X106027225Y-128258314D02*
X106170083Y-128115457D01*
X106170083Y-128115457D02*
X106312940Y-128044028D01*
X107598654Y-129544028D02*
X107598654Y-128044028D01*
X108455797Y-129544028D02*
X107812940Y-128686885D01*
X108455797Y-128044028D02*
X107598654Y-128901171D01*
X109027226Y-129472600D02*
X109241512Y-129544028D01*
X109241512Y-129544028D02*
X109598654Y-129544028D01*
X109598654Y-129544028D02*
X109741512Y-129472600D01*
X109741512Y-129472600D02*
X109812940Y-129401171D01*
X109812940Y-129401171D02*
X109884369Y-129258314D01*
X109884369Y-129258314D02*
X109884369Y-129115457D01*
X109884369Y-129115457D02*
X109812940Y-128972600D01*
X109812940Y-128972600D02*
X109741512Y-128901171D01*
X109741512Y-128901171D02*
X109598654Y-128829742D01*
X109598654Y-128829742D02*
X109312940Y-128758314D01*
X109312940Y-128758314D02*
X109170083Y-128686885D01*
X109170083Y-128686885D02*
X109098654Y-128615457D01*
X109098654Y-128615457D02*
X109027226Y-128472600D01*
X109027226Y-128472600D02*
X109027226Y-128329742D01*
X109027226Y-128329742D02*
X109098654Y-128186885D01*
X109098654Y-128186885D02*
X109170083Y-128115457D01*
X109170083Y-128115457D02*
X109312940Y-128044028D01*
X109312940Y-128044028D02*
X109670083Y-128044028D01*
X109670083Y-128044028D02*
X109884369Y-128115457D01*
X111455797Y-128544028D02*
X112027225Y-128544028D01*
X111670082Y-129544028D02*
X111670082Y-128258314D01*
X111670082Y-128258314D02*
X111741511Y-128115457D01*
X111741511Y-128115457D02*
X111884368Y-128044028D01*
X111884368Y-128044028D02*
X112027225Y-128044028D01*
X112527225Y-129544028D02*
X112527225Y-128544028D01*
X112527225Y-128044028D02*
X112455797Y-128115457D01*
X112455797Y-128115457D02*
X112527225Y-128186885D01*
X112527225Y-128186885D02*
X112598654Y-128115457D01*
X112598654Y-128115457D02*
X112527225Y-128044028D01*
X112527225Y-128044028D02*
X112527225Y-128186885D01*
X113455797Y-129544028D02*
X113312940Y-129472600D01*
X113312940Y-129472600D02*
X113241511Y-129329742D01*
X113241511Y-129329742D02*
X113241511Y-128044028D01*
X113812940Y-128544028D02*
X114384368Y-128544028D01*
X114027225Y-128044028D02*
X114027225Y-129329742D01*
X114027225Y-129329742D02*
X114098654Y-129472600D01*
X114098654Y-129472600D02*
X114241511Y-129544028D01*
X114241511Y-129544028D02*
X114384368Y-129544028D01*
X115455797Y-129472600D02*
X115312940Y-129544028D01*
X115312940Y-129544028D02*
X115027226Y-129544028D01*
X115027226Y-129544028D02*
X114884368Y-129472600D01*
X114884368Y-129472600D02*
X114812940Y-129329742D01*
X114812940Y-129329742D02*
X114812940Y-128758314D01*
X114812940Y-128758314D02*
X114884368Y-128615457D01*
X114884368Y-128615457D02*
X115027226Y-128544028D01*
X115027226Y-128544028D02*
X115312940Y-128544028D01*
X115312940Y-128544028D02*
X115455797Y-128615457D01*
X115455797Y-128615457D02*
X115527226Y-128758314D01*
X115527226Y-128758314D02*
X115527226Y-128901171D01*
X115527226Y-128901171D02*
X114812940Y-129044028D01*
X116170082Y-129544028D02*
X116170082Y-128544028D01*
X116170082Y-128829742D02*
X116241511Y-128686885D01*
X116241511Y-128686885D02*
X116312940Y-128615457D01*
X116312940Y-128615457D02*
X116455797Y-128544028D01*
X116455797Y-128544028D02*
X116598654Y-128544028D01*
X118884368Y-129472600D02*
X118741510Y-129544028D01*
X118741510Y-129544028D02*
X118455796Y-129544028D01*
X118455796Y-129544028D02*
X118312939Y-129472600D01*
X118312939Y-129472600D02*
X118241510Y-129401171D01*
X118241510Y-129401171D02*
X118170082Y-129258314D01*
X118170082Y-129258314D02*
X118170082Y-128829742D01*
X118170082Y-128829742D02*
X118241510Y-128686885D01*
X118241510Y-128686885D02*
X118312939Y-128615457D01*
X118312939Y-128615457D02*
X118455796Y-128544028D01*
X118455796Y-128544028D02*
X118741510Y-128544028D01*
X118741510Y-128544028D02*
X118884368Y-128615457D01*
X119527224Y-129544028D02*
X119527224Y-128544028D01*
X119527224Y-128044028D02*
X119455796Y-128115457D01*
X119455796Y-128115457D02*
X119527224Y-128186885D01*
X119527224Y-128186885D02*
X119598653Y-128115457D01*
X119598653Y-128115457D02*
X119527224Y-128044028D01*
X119527224Y-128044028D02*
X119527224Y-128186885D01*
X120241510Y-129544028D02*
X120241510Y-128544028D01*
X120241510Y-128829742D02*
X120312939Y-128686885D01*
X120312939Y-128686885D02*
X120384368Y-128615457D01*
X120384368Y-128615457D02*
X120527225Y-128544028D01*
X120527225Y-128544028D02*
X120670082Y-128544028D01*
X121812939Y-129472600D02*
X121670081Y-129544028D01*
X121670081Y-129544028D02*
X121384367Y-129544028D01*
X121384367Y-129544028D02*
X121241510Y-129472600D01*
X121241510Y-129472600D02*
X121170081Y-129401171D01*
X121170081Y-129401171D02*
X121098653Y-129258314D01*
X121098653Y-129258314D02*
X121098653Y-128829742D01*
X121098653Y-128829742D02*
X121170081Y-128686885D01*
X121170081Y-128686885D02*
X121241510Y-128615457D01*
X121241510Y-128615457D02*
X121384367Y-128544028D01*
X121384367Y-128544028D02*
X121670081Y-128544028D01*
X121670081Y-128544028D02*
X121812939Y-128615457D01*
X123098653Y-128544028D02*
X123098653Y-129544028D01*
X122455795Y-128544028D02*
X122455795Y-129329742D01*
X122455795Y-129329742D02*
X122527224Y-129472600D01*
X122527224Y-129472600D02*
X122670081Y-129544028D01*
X122670081Y-129544028D02*
X122884367Y-129544028D01*
X122884367Y-129544028D02*
X123027224Y-129472600D01*
X123027224Y-129472600D02*
X123098653Y-129401171D01*
X123812938Y-129544028D02*
X123812938Y-128544028D01*
X123812938Y-128044028D02*
X123741510Y-128115457D01*
X123741510Y-128115457D02*
X123812938Y-128186885D01*
X123812938Y-128186885D02*
X123884367Y-128115457D01*
X123884367Y-128115457D02*
X123812938Y-128044028D01*
X123812938Y-128044028D02*
X123812938Y-128186885D01*
X124312939Y-128544028D02*
X124884367Y-128544028D01*
X124527224Y-128044028D02*
X124527224Y-129329742D01*
X124527224Y-129329742D02*
X124598653Y-129472600D01*
X124598653Y-129472600D02*
X124741510Y-129544028D01*
X124741510Y-129544028D02*
X124884367Y-129544028D01*
D11*
X99837743Y-118820057D02*
X99837743Y-115820057D01*
X99837743Y-115820057D02*
X101552029Y-115820057D01*
X101552029Y-115820057D02*
X101552029Y-118820057D01*
X103552029Y-115820057D02*
X104123457Y-115820057D01*
X104123457Y-115820057D02*
X104409172Y-115962914D01*
X104409172Y-115962914D02*
X104694886Y-116248628D01*
X104694886Y-116248628D02*
X104837743Y-116820057D01*
X104837743Y-116820057D02*
X104837743Y-117820057D01*
X104837743Y-117820057D02*
X104694886Y-118391485D01*
X104694886Y-118391485D02*
X104409172Y-118677200D01*
X104409172Y-118677200D02*
X104123457Y-118820057D01*
X104123457Y-118820057D02*
X103552029Y-118820057D01*
X103552029Y-118820057D02*
X103266315Y-118677200D01*
X103266315Y-118677200D02*
X102980600Y-118391485D01*
X102980600Y-118391485D02*
X102837743Y-117820057D01*
X102837743Y-117820057D02*
X102837743Y-116820057D01*
X102837743Y-116820057D02*
X102980600Y-116248628D01*
X102980600Y-116248628D02*
X103266315Y-115962914D01*
X103266315Y-115962914D02*
X103552029Y-115820057D01*
X107837743Y-118820057D02*
X107837743Y-115820057D01*
X107837743Y-115820057D02*
X107409172Y-115820057D01*
X107409172Y-115820057D02*
X106980600Y-115962914D01*
X106980600Y-115962914D02*
X106694886Y-116248628D01*
X106694886Y-116248628D02*
X106552029Y-116677200D01*
X106552029Y-116677200D02*
X106266314Y-118391485D01*
X106266314Y-118391485D02*
X106123457Y-118677200D01*
X106123457Y-118677200D02*
X105837743Y-118820057D01*
X105837743Y-118820057D02*
X105694886Y-118820057D01*
X109266314Y-115820057D02*
X109266314Y-118820057D01*
X109266314Y-118820057D02*
X110980600Y-115820057D01*
X110980600Y-115820057D02*
X110980600Y-118820057D01*
X113409171Y-117248628D02*
X113837743Y-117391485D01*
X113837743Y-117391485D02*
X113980600Y-117534342D01*
X113980600Y-117534342D02*
X114123457Y-117820057D01*
X114123457Y-117820057D02*
X114123457Y-118248628D01*
X114123457Y-118248628D02*
X113980600Y-118534342D01*
X113980600Y-118534342D02*
X113837743Y-118677200D01*
X113837743Y-118677200D02*
X113552028Y-118820057D01*
X113552028Y-118820057D02*
X112409171Y-118820057D01*
X112409171Y-118820057D02*
X112409171Y-115820057D01*
X112409171Y-115820057D02*
X113409171Y-115820057D01*
X113409171Y-115820057D02*
X113694886Y-115962914D01*
X113694886Y-115962914D02*
X113837743Y-116105771D01*
X113837743Y-116105771D02*
X113980600Y-116391485D01*
X113980600Y-116391485D02*
X113980600Y-116677200D01*
X113980600Y-116677200D02*
X113837743Y-116962914D01*
X113837743Y-116962914D02*
X113694886Y-117105771D01*
X113694886Y-117105771D02*
X113409171Y-117248628D01*
X113409171Y-117248628D02*
X112409171Y-117248628D01*
X115980600Y-115820057D02*
X116552028Y-115820057D01*
X116552028Y-115820057D02*
X116837743Y-115962914D01*
X116837743Y-115962914D02*
X117123457Y-116248628D01*
X117123457Y-116248628D02*
X117266314Y-116820057D01*
X117266314Y-116820057D02*
X117266314Y-117820057D01*
X117266314Y-117820057D02*
X117123457Y-118391485D01*
X117123457Y-118391485D02*
X116837743Y-118677200D01*
X116837743Y-118677200D02*
X116552028Y-118820057D01*
X116552028Y-118820057D02*
X115980600Y-118820057D01*
X115980600Y-118820057D02*
X115694886Y-118677200D01*
X115694886Y-118677200D02*
X115409171Y-118391485D01*
X115409171Y-118391485D02*
X115266314Y-117820057D01*
X115266314Y-117820057D02*
X115266314Y-116820057D01*
X115266314Y-116820057D02*
X115409171Y-116248628D01*
X115409171Y-116248628D02*
X115694886Y-115962914D01*
X115694886Y-115962914D02*
X115980600Y-115820057D01*
X118552028Y-118820057D02*
X118552028Y-115820057D01*
X120266314Y-118820057D02*
X118980600Y-117105771D01*
X120266314Y-115820057D02*
X118552028Y-117534342D01*
X123266314Y-118534342D02*
X123123457Y-118677200D01*
X123123457Y-118677200D02*
X122694885Y-118820057D01*
X122694885Y-118820057D02*
X122409171Y-118820057D01*
X122409171Y-118820057D02*
X121980600Y-118677200D01*
X121980600Y-118677200D02*
X121694885Y-118391485D01*
X121694885Y-118391485D02*
X121552028Y-118105771D01*
X121552028Y-118105771D02*
X121409171Y-117534342D01*
X121409171Y-117534342D02*
X121409171Y-117105771D01*
X121409171Y-117105771D02*
X121552028Y-116534342D01*
X121552028Y-116534342D02*
X121694885Y-116248628D01*
X121694885Y-116248628D02*
X121980600Y-115962914D01*
X121980600Y-115962914D02*
X122409171Y-115820057D01*
X122409171Y-115820057D02*
X122694885Y-115820057D01*
X122694885Y-115820057D02*
X123123457Y-115962914D01*
X123123457Y-115962914D02*
X123266314Y-116105771D01*
X104194886Y-123650057D02*
X104194886Y-120650057D01*
X103909172Y-121078628D02*
X104480600Y-121078628D01*
X104480600Y-121078628D02*
X104909172Y-121221485D01*
X104909172Y-121221485D02*
X105194886Y-121507200D01*
X105194886Y-121507200D02*
X105337743Y-121792914D01*
X105337743Y-121792914D02*
X105337743Y-122364342D01*
X105337743Y-122364342D02*
X105194886Y-122650057D01*
X105194886Y-122650057D02*
X104909172Y-122935771D01*
X104909172Y-122935771D02*
X104480600Y-123078628D01*
X104480600Y-123078628D02*
X103909172Y-123078628D01*
X103909172Y-123078628D02*
X103480600Y-122935771D01*
X103480600Y-122935771D02*
X103194886Y-122650057D01*
X103194886Y-122650057D02*
X103052029Y-122364342D01*
X103052029Y-122364342D02*
X103052029Y-121792914D01*
X103052029Y-121792914D02*
X103194886Y-121507200D01*
X103194886Y-121507200D02*
X103480600Y-121221485D01*
X103480600Y-121221485D02*
X103909172Y-121078628D01*
X106480600Y-120650057D02*
X106480600Y-123650057D01*
X106480600Y-123650057D02*
X108194886Y-120650057D01*
X108194886Y-120650057D02*
X108194886Y-123650057D01*
X111337743Y-123650057D02*
X111337743Y-120650057D01*
X111337743Y-120650057D02*
X110909172Y-120650057D01*
X110909172Y-120650057D02*
X110480600Y-120792914D01*
X110480600Y-120792914D02*
X110194886Y-121078628D01*
X110194886Y-121078628D02*
X110052029Y-121507200D01*
X110052029Y-121507200D02*
X109766314Y-123221485D01*
X109766314Y-123221485D02*
X109623457Y-123507200D01*
X109623457Y-123507200D02*
X109337743Y-123650057D01*
X109337743Y-123650057D02*
X109194886Y-123650057D01*
X112766314Y-120650057D02*
X112766314Y-123650057D01*
X112766314Y-123650057D02*
X113623457Y-123650057D01*
X113623457Y-123650057D02*
X114052029Y-123507200D01*
X114052029Y-123507200D02*
X114337743Y-123221485D01*
X114337743Y-123221485D02*
X114480600Y-122935771D01*
X114480600Y-122935771D02*
X114480600Y-122507200D01*
X114480600Y-122507200D02*
X114337743Y-122221485D01*
X114337743Y-122221485D02*
X114052029Y-121935771D01*
X114052029Y-121935771D02*
X113623457Y-121792914D01*
X113623457Y-121792914D02*
X112766314Y-121792914D01*
X115337743Y-120650057D02*
X117052029Y-120650057D01*
X116194886Y-123650057D02*
X116194886Y-120650057D01*
X118052028Y-123650057D02*
X118052028Y-120650057D01*
X118052028Y-120650057D02*
X119194885Y-120650057D01*
X119194885Y-120650057D02*
X119480600Y-120792914D01*
X119480600Y-120792914D02*
X119623457Y-120935771D01*
X119623457Y-120935771D02*
X119766314Y-121221485D01*
X119766314Y-121221485D02*
X119766314Y-121650057D01*
X119766314Y-121650057D02*
X119623457Y-121935771D01*
X119623457Y-121935771D02*
X119480600Y-122078628D01*
X119480600Y-122078628D02*
X119194885Y-122221485D01*
X119194885Y-122221485D02*
X118052028Y-122221485D01*
D12*
X138747595Y-101956519D02*
X138747595Y-102766042D01*
X138747595Y-102766042D02*
X138795214Y-102861280D01*
X138795214Y-102861280D02*
X138842833Y-102908900D01*
X138842833Y-102908900D02*
X138938071Y-102956519D01*
X138938071Y-102956519D02*
X139128547Y-102956519D01*
X139128547Y-102956519D02*
X139223785Y-102908900D01*
X139223785Y-102908900D02*
X139271404Y-102861280D01*
X139271404Y-102861280D02*
X139319023Y-102766042D01*
X139319023Y-102766042D02*
X139319023Y-101956519D01*
X139747595Y-102051757D02*
X139795214Y-102004138D01*
X139795214Y-102004138D02*
X139890452Y-101956519D01*
X139890452Y-101956519D02*
X140128547Y-101956519D01*
X140128547Y-101956519D02*
X140223785Y-102004138D01*
X140223785Y-102004138D02*
X140271404Y-102051757D01*
X140271404Y-102051757D02*
X140319023Y-102146995D01*
X140319023Y-102146995D02*
X140319023Y-102242233D01*
X140319023Y-102242233D02*
X140271404Y-102385090D01*
X140271404Y-102385090D02*
X139699976Y-102956519D01*
X139699976Y-102956519D02*
X140319023Y-102956519D01*
X133614319Y-105239794D02*
X132614319Y-105239794D01*
X132614319Y-105239794D02*
X133328604Y-104906461D01*
X133328604Y-104906461D02*
X132614319Y-104573128D01*
X132614319Y-104573128D02*
X133614319Y-104573128D01*
X133519080Y-103525509D02*
X133566700Y-103573128D01*
X133566700Y-103573128D02*
X133614319Y-103715985D01*
X133614319Y-103715985D02*
X133614319Y-103811223D01*
X133614319Y-103811223D02*
X133566700Y-103954080D01*
X133566700Y-103954080D02*
X133471461Y-104049318D01*
X133471461Y-104049318D02*
X133376223Y-104096937D01*
X133376223Y-104096937D02*
X133185747Y-104144556D01*
X133185747Y-104144556D02*
X133042890Y-104144556D01*
X133042890Y-104144556D02*
X132852414Y-104096937D01*
X132852414Y-104096937D02*
X132757176Y-104049318D01*
X132757176Y-104049318D02*
X132661938Y-103954080D01*
X132661938Y-103954080D02*
X132614319Y-103811223D01*
X132614319Y-103811223D02*
X132614319Y-103715985D01*
X132614319Y-103715985D02*
X132661938Y-103573128D01*
X132661938Y-103573128D02*
X132709557Y-103525509D01*
X133614319Y-102573128D02*
X133614319Y-103144556D01*
X133614319Y-102858842D02*
X132614319Y-102858842D01*
X132614319Y-102858842D02*
X132757176Y-102954080D01*
X132757176Y-102954080D02*
X132852414Y-103049318D01*
X132852414Y-103049318D02*
X132900033Y-103144556D01*
X132614319Y-102239794D02*
X132614319Y-101573128D01*
X132614319Y-101573128D02*
X133614319Y-102001699D01*
X132614319Y-101287413D02*
X132614319Y-100620747D01*
X132614319Y-100620747D02*
X133614319Y-101049318D01*
X132614319Y-99811223D02*
X132614319Y-100001699D01*
X132614319Y-100001699D02*
X132661938Y-100096937D01*
X132661938Y-100096937D02*
X132709557Y-100144556D01*
X132709557Y-100144556D02*
X132852414Y-100239794D01*
X132852414Y-100239794D02*
X133042890Y-100287413D01*
X133042890Y-100287413D02*
X133423842Y-100287413D01*
X133423842Y-100287413D02*
X133519080Y-100239794D01*
X133519080Y-100239794D02*
X133566700Y-100192175D01*
X133566700Y-100192175D02*
X133614319Y-100096937D01*
X133614319Y-100096937D02*
X133614319Y-99906461D01*
X133614319Y-99906461D02*
X133566700Y-99811223D01*
X133566700Y-99811223D02*
X133519080Y-99763604D01*
X133519080Y-99763604D02*
X133423842Y-99715985D01*
X133423842Y-99715985D02*
X133185747Y-99715985D01*
X133185747Y-99715985D02*
X133090509Y-99763604D01*
X133090509Y-99763604D02*
X133042890Y-99811223D01*
X133042890Y-99811223D02*
X132995271Y-99906461D01*
X132995271Y-99906461D02*
X132995271Y-100096937D01*
X132995271Y-100096937D02*
X133042890Y-100192175D01*
X133042890Y-100192175D02*
X133090509Y-100239794D01*
X133090509Y-100239794D02*
X133185747Y-100287413D01*
X143679080Y-112193366D02*
X143726700Y-112240985D01*
X143726700Y-112240985D02*
X143774319Y-112383842D01*
X143774319Y-112383842D02*
X143774319Y-112479080D01*
X143774319Y-112479080D02*
X143726700Y-112621937D01*
X143726700Y-112621937D02*
X143631461Y-112717175D01*
X143631461Y-112717175D02*
X143536223Y-112764794D01*
X143536223Y-112764794D02*
X143345747Y-112812413D01*
X143345747Y-112812413D02*
X143202890Y-112812413D01*
X143202890Y-112812413D02*
X143012414Y-112764794D01*
X143012414Y-112764794D02*
X142917176Y-112717175D01*
X142917176Y-112717175D02*
X142821938Y-112621937D01*
X142821938Y-112621937D02*
X142774319Y-112479080D01*
X142774319Y-112479080D02*
X142774319Y-112383842D01*
X142774319Y-112383842D02*
X142821938Y-112240985D01*
X142821938Y-112240985D02*
X142869557Y-112193366D01*
X142774319Y-111336223D02*
X142774319Y-111526699D01*
X142774319Y-111526699D02*
X142821938Y-111621937D01*
X142821938Y-111621937D02*
X142869557Y-111669556D01*
X142869557Y-111669556D02*
X143012414Y-111764794D01*
X143012414Y-111764794D02*
X143202890Y-111812413D01*
X143202890Y-111812413D02*
X143583842Y-111812413D01*
X143583842Y-111812413D02*
X143679080Y-111764794D01*
X143679080Y-111764794D02*
X143726700Y-111717175D01*
X143726700Y-111717175D02*
X143774319Y-111621937D01*
X143774319Y-111621937D02*
X143774319Y-111431461D01*
X143774319Y-111431461D02*
X143726700Y-111336223D01*
X143726700Y-111336223D02*
X143679080Y-111288604D01*
X143679080Y-111288604D02*
X143583842Y-111240985D01*
X143583842Y-111240985D02*
X143345747Y-111240985D01*
X143345747Y-111240985D02*
X143250509Y-111288604D01*
X143250509Y-111288604D02*
X143202890Y-111336223D01*
X143202890Y-111336223D02*
X143155271Y-111431461D01*
X143155271Y-111431461D02*
X143155271Y-111621937D01*
X143155271Y-111621937D02*
X143202890Y-111717175D01*
X143202890Y-111717175D02*
X143250509Y-111764794D01*
X143250509Y-111764794D02*
X143345747Y-111812413D01*
X178096942Y-94053819D02*
X177763609Y-93577628D01*
X177525514Y-94053819D02*
X177525514Y-93053819D01*
X177525514Y-93053819D02*
X177906466Y-93053819D01*
X177906466Y-93053819D02*
X178001704Y-93101438D01*
X178001704Y-93101438D02*
X178049323Y-93149057D01*
X178049323Y-93149057D02*
X178096942Y-93244295D01*
X178096942Y-93244295D02*
X178096942Y-93387152D01*
X178096942Y-93387152D02*
X178049323Y-93482390D01*
X178049323Y-93482390D02*
X178001704Y-93530009D01*
X178001704Y-93530009D02*
X177906466Y-93577628D01*
X177906466Y-93577628D02*
X177525514Y-93577628D01*
X178477895Y-93149057D02*
X178525514Y-93101438D01*
X178525514Y-93101438D02*
X178620752Y-93053819D01*
X178620752Y-93053819D02*
X178858847Y-93053819D01*
X178858847Y-93053819D02*
X178954085Y-93101438D01*
X178954085Y-93101438D02*
X179001704Y-93149057D01*
X179001704Y-93149057D02*
X179049323Y-93244295D01*
X179049323Y-93244295D02*
X179049323Y-93339533D01*
X179049323Y-93339533D02*
X179001704Y-93482390D01*
X179001704Y-93482390D02*
X178430276Y-94053819D01*
X178430276Y-94053819D02*
X179049323Y-94053819D01*
X179525514Y-94053819D02*
X179715990Y-94053819D01*
X179715990Y-94053819D02*
X179811228Y-94006200D01*
X179811228Y-94006200D02*
X179858847Y-93958580D01*
X179858847Y-93958580D02*
X179954085Y-93815723D01*
X179954085Y-93815723D02*
X180001704Y-93625247D01*
X180001704Y-93625247D02*
X180001704Y-93244295D01*
X180001704Y-93244295D02*
X179954085Y-93149057D01*
X179954085Y-93149057D02*
X179906466Y-93101438D01*
X179906466Y-93101438D02*
X179811228Y-93053819D01*
X179811228Y-93053819D02*
X179620752Y-93053819D01*
X179620752Y-93053819D02*
X179525514Y-93101438D01*
X179525514Y-93101438D02*
X179477895Y-93149057D01*
X179477895Y-93149057D02*
X179430276Y-93244295D01*
X179430276Y-93244295D02*
X179430276Y-93482390D01*
X179430276Y-93482390D02*
X179477895Y-93577628D01*
X179477895Y-93577628D02*
X179525514Y-93625247D01*
X179525514Y-93625247D02*
X179620752Y-93672866D01*
X179620752Y-93672866D02*
X179811228Y-93672866D01*
X179811228Y-93672866D02*
X179906466Y-93625247D01*
X179906466Y-93625247D02*
X179954085Y-93577628D01*
X179954085Y-93577628D02*
X180001704Y-93482390D01*
X120819080Y-93183366D02*
X120866700Y-93230985D01*
X120866700Y-93230985D02*
X120914319Y-93373842D01*
X120914319Y-93373842D02*
X120914319Y-93469080D01*
X120914319Y-93469080D02*
X120866700Y-93611937D01*
X120866700Y-93611937D02*
X120771461Y-93707175D01*
X120771461Y-93707175D02*
X120676223Y-93754794D01*
X120676223Y-93754794D02*
X120485747Y-93802413D01*
X120485747Y-93802413D02*
X120342890Y-93802413D01*
X120342890Y-93802413D02*
X120152414Y-93754794D01*
X120152414Y-93754794D02*
X120057176Y-93707175D01*
X120057176Y-93707175D02*
X119961938Y-93611937D01*
X119961938Y-93611937D02*
X119914319Y-93469080D01*
X119914319Y-93469080D02*
X119914319Y-93373842D01*
X119914319Y-93373842D02*
X119961938Y-93230985D01*
X119961938Y-93230985D02*
X120009557Y-93183366D01*
X119914319Y-92850032D02*
X119914319Y-92230985D01*
X119914319Y-92230985D02*
X120295271Y-92564318D01*
X120295271Y-92564318D02*
X120295271Y-92421461D01*
X120295271Y-92421461D02*
X120342890Y-92326223D01*
X120342890Y-92326223D02*
X120390509Y-92278604D01*
X120390509Y-92278604D02*
X120485747Y-92230985D01*
X120485747Y-92230985D02*
X120723842Y-92230985D01*
X120723842Y-92230985D02*
X120819080Y-92278604D01*
X120819080Y-92278604D02*
X120866700Y-92326223D01*
X120866700Y-92326223D02*
X120914319Y-92421461D01*
X120914319Y-92421461D02*
X120914319Y-92707175D01*
X120914319Y-92707175D02*
X120866700Y-92802413D01*
X120866700Y-92802413D02*
X120819080Y-92850032D01*
X166933642Y-108671519D02*
X166600309Y-108195328D01*
X166362214Y-108671519D02*
X166362214Y-107671519D01*
X166362214Y-107671519D02*
X166743166Y-107671519D01*
X166743166Y-107671519D02*
X166838404Y-107719138D01*
X166838404Y-107719138D02*
X166886023Y-107766757D01*
X166886023Y-107766757D02*
X166933642Y-107861995D01*
X166933642Y-107861995D02*
X166933642Y-108004852D01*
X166933642Y-108004852D02*
X166886023Y-108100090D01*
X166886023Y-108100090D02*
X166838404Y-108147709D01*
X166838404Y-108147709D02*
X166743166Y-108195328D01*
X166743166Y-108195328D02*
X166362214Y-108195328D01*
X167886023Y-108671519D02*
X167314595Y-108671519D01*
X167600309Y-108671519D02*
X167600309Y-107671519D01*
X167600309Y-107671519D02*
X167505071Y-107814376D01*
X167505071Y-107814376D02*
X167409833Y-107909614D01*
X167409833Y-107909614D02*
X167314595Y-107957233D01*
X168219357Y-107671519D02*
X168886023Y-107671519D01*
X168886023Y-107671519D02*
X168457452Y-108671519D01*
X188523642Y-113738819D02*
X188190309Y-113262628D01*
X187952214Y-113738819D02*
X187952214Y-112738819D01*
X187952214Y-112738819D02*
X188333166Y-112738819D01*
X188333166Y-112738819D02*
X188428404Y-112786438D01*
X188428404Y-112786438D02*
X188476023Y-112834057D01*
X188476023Y-112834057D02*
X188523642Y-112929295D01*
X188523642Y-112929295D02*
X188523642Y-113072152D01*
X188523642Y-113072152D02*
X188476023Y-113167390D01*
X188476023Y-113167390D02*
X188428404Y-113215009D01*
X188428404Y-113215009D02*
X188333166Y-113262628D01*
X188333166Y-113262628D02*
X187952214Y-113262628D01*
X188904595Y-112834057D02*
X188952214Y-112786438D01*
X188952214Y-112786438D02*
X189047452Y-112738819D01*
X189047452Y-112738819D02*
X189285547Y-112738819D01*
X189285547Y-112738819D02*
X189380785Y-112786438D01*
X189380785Y-112786438D02*
X189428404Y-112834057D01*
X189428404Y-112834057D02*
X189476023Y-112929295D01*
X189476023Y-112929295D02*
X189476023Y-113024533D01*
X189476023Y-113024533D02*
X189428404Y-113167390D01*
X189428404Y-113167390D02*
X188856976Y-113738819D01*
X188856976Y-113738819D02*
X189476023Y-113738819D01*
X189856976Y-112834057D02*
X189904595Y-112786438D01*
X189904595Y-112786438D02*
X189999833Y-112738819D01*
X189999833Y-112738819D02*
X190237928Y-112738819D01*
X190237928Y-112738819D02*
X190333166Y-112786438D01*
X190333166Y-112786438D02*
X190380785Y-112834057D01*
X190380785Y-112834057D02*
X190428404Y-112929295D01*
X190428404Y-112929295D02*
X190428404Y-113024533D01*
X190428404Y-113024533D02*
X190380785Y-113167390D01*
X190380785Y-113167390D02*
X189809357Y-113738819D01*
X189809357Y-113738819D02*
X190428404Y-113738819D01*
X123507595Y-101956519D02*
X123507595Y-102766042D01*
X123507595Y-102766042D02*
X123555214Y-102861280D01*
X123555214Y-102861280D02*
X123602833Y-102908900D01*
X123602833Y-102908900D02*
X123698071Y-102956519D01*
X123698071Y-102956519D02*
X123888547Y-102956519D01*
X123888547Y-102956519D02*
X123983785Y-102908900D01*
X123983785Y-102908900D02*
X124031404Y-102861280D01*
X124031404Y-102861280D02*
X124079023Y-102766042D01*
X124079023Y-102766042D02*
X124079023Y-101956519D01*
X125079023Y-102956519D02*
X124507595Y-102956519D01*
X124793309Y-102956519D02*
X124793309Y-101956519D01*
X124793309Y-101956519D02*
X124698071Y-102099376D01*
X124698071Y-102099376D02*
X124602833Y-102194614D01*
X124602833Y-102194614D02*
X124507595Y-102242233D01*
X117374319Y-104620747D02*
X117374319Y-104049319D01*
X118374319Y-104335033D02*
X117374319Y-104335033D01*
X118374319Y-103239795D02*
X118374319Y-103715985D01*
X118374319Y-103715985D02*
X117374319Y-103715985D01*
X117374319Y-102715985D02*
X117374319Y-102620747D01*
X117374319Y-102620747D02*
X117421938Y-102525509D01*
X117421938Y-102525509D02*
X117469557Y-102477890D01*
X117469557Y-102477890D02*
X117564795Y-102430271D01*
X117564795Y-102430271D02*
X117755271Y-102382652D01*
X117755271Y-102382652D02*
X117993366Y-102382652D01*
X117993366Y-102382652D02*
X118183842Y-102430271D01*
X118183842Y-102430271D02*
X118279080Y-102477890D01*
X118279080Y-102477890D02*
X118326700Y-102525509D01*
X118326700Y-102525509D02*
X118374319Y-102620747D01*
X118374319Y-102620747D02*
X118374319Y-102715985D01*
X118374319Y-102715985D02*
X118326700Y-102811223D01*
X118326700Y-102811223D02*
X118279080Y-102858842D01*
X118279080Y-102858842D02*
X118183842Y-102906461D01*
X118183842Y-102906461D02*
X117993366Y-102954080D01*
X117993366Y-102954080D02*
X117755271Y-102954080D01*
X117755271Y-102954080D02*
X117564795Y-102906461D01*
X117564795Y-102906461D02*
X117469557Y-102858842D01*
X117469557Y-102858842D02*
X117421938Y-102811223D01*
X117421938Y-102811223D02*
X117374319Y-102715985D01*
X117374319Y-102049318D02*
X117374319Y-101382652D01*
X117374319Y-101382652D02*
X118374319Y-101811223D01*
X117469557Y-101049318D02*
X117421938Y-101001699D01*
X117421938Y-101001699D02*
X117374319Y-100906461D01*
X117374319Y-100906461D02*
X117374319Y-100668366D01*
X117374319Y-100668366D02*
X117421938Y-100573128D01*
X117421938Y-100573128D02*
X117469557Y-100525509D01*
X117469557Y-100525509D02*
X117564795Y-100477890D01*
X117564795Y-100477890D02*
X117660033Y-100477890D01*
X117660033Y-100477890D02*
X117802890Y-100525509D01*
X117802890Y-100525509D02*
X118374319Y-101096937D01*
X118374319Y-101096937D02*
X118374319Y-100477890D01*
X109180333Y-99514819D02*
X108847000Y-99038628D01*
X108608905Y-99514819D02*
X108608905Y-98514819D01*
X108608905Y-98514819D02*
X108989857Y-98514819D01*
X108989857Y-98514819D02*
X109085095Y-98562438D01*
X109085095Y-98562438D02*
X109132714Y-98610057D01*
X109132714Y-98610057D02*
X109180333Y-98705295D01*
X109180333Y-98705295D02*
X109180333Y-98848152D01*
X109180333Y-98848152D02*
X109132714Y-98943390D01*
X109132714Y-98943390D02*
X109085095Y-98991009D01*
X109085095Y-98991009D02*
X108989857Y-99038628D01*
X108989857Y-99038628D02*
X108608905Y-99038628D01*
X110132714Y-99514819D02*
X109561286Y-99514819D01*
X109847000Y-99514819D02*
X109847000Y-98514819D01*
X109847000Y-98514819D02*
X109751762Y-98657676D01*
X109751762Y-98657676D02*
X109656524Y-98752914D01*
X109656524Y-98752914D02*
X109561286Y-98800533D01*
X109180333Y-107134819D02*
X108847000Y-106658628D01*
X108608905Y-107134819D02*
X108608905Y-106134819D01*
X108608905Y-106134819D02*
X108989857Y-106134819D01*
X108989857Y-106134819D02*
X109085095Y-106182438D01*
X109085095Y-106182438D02*
X109132714Y-106230057D01*
X109132714Y-106230057D02*
X109180333Y-106325295D01*
X109180333Y-106325295D02*
X109180333Y-106468152D01*
X109180333Y-106468152D02*
X109132714Y-106563390D01*
X109132714Y-106563390D02*
X109085095Y-106611009D01*
X109085095Y-106611009D02*
X108989857Y-106658628D01*
X108989857Y-106658628D02*
X108608905Y-106658628D01*
X109513667Y-106134819D02*
X110132714Y-106134819D01*
X110132714Y-106134819D02*
X109799381Y-106515771D01*
X109799381Y-106515771D02*
X109942238Y-106515771D01*
X109942238Y-106515771D02*
X110037476Y-106563390D01*
X110037476Y-106563390D02*
X110085095Y-106611009D01*
X110085095Y-106611009D02*
X110132714Y-106706247D01*
X110132714Y-106706247D02*
X110132714Y-106944342D01*
X110132714Y-106944342D02*
X110085095Y-107039580D01*
X110085095Y-107039580D02*
X110037476Y-107087200D01*
X110037476Y-107087200D02*
X109942238Y-107134819D01*
X109942238Y-107134819D02*
X109656524Y-107134819D01*
X109656524Y-107134819D02*
X109561286Y-107087200D01*
X109561286Y-107087200D02*
X109513667Y-107039580D01*
X188269642Y-108671519D02*
X187936309Y-108195328D01*
X187698214Y-108671519D02*
X187698214Y-107671519D01*
X187698214Y-107671519D02*
X188079166Y-107671519D01*
X188079166Y-107671519D02*
X188174404Y-107719138D01*
X188174404Y-107719138D02*
X188222023Y-107766757D01*
X188222023Y-107766757D02*
X188269642Y-107861995D01*
X188269642Y-107861995D02*
X188269642Y-108004852D01*
X188269642Y-108004852D02*
X188222023Y-108100090D01*
X188222023Y-108100090D02*
X188174404Y-108147709D01*
X188174404Y-108147709D02*
X188079166Y-108195328D01*
X188079166Y-108195328D02*
X187698214Y-108195328D01*
X188650595Y-107766757D02*
X188698214Y-107719138D01*
X188698214Y-107719138D02*
X188793452Y-107671519D01*
X188793452Y-107671519D02*
X189031547Y-107671519D01*
X189031547Y-107671519D02*
X189126785Y-107719138D01*
X189126785Y-107719138D02*
X189174404Y-107766757D01*
X189174404Y-107766757D02*
X189222023Y-107861995D01*
X189222023Y-107861995D02*
X189222023Y-107957233D01*
X189222023Y-107957233D02*
X189174404Y-108100090D01*
X189174404Y-108100090D02*
X188602976Y-108671519D01*
X188602976Y-108671519D02*
X189222023Y-108671519D01*
X189555357Y-107671519D02*
X190222023Y-107671519D01*
X190222023Y-107671519D02*
X189793452Y-108671519D01*
X129802191Y-111929104D02*
X130278381Y-111929104D01*
X129706953Y-112214819D02*
X130040286Y-111214819D01*
X130040286Y-111214819D02*
X130373619Y-112214819D01*
X130706953Y-111214819D02*
X130706953Y-112024342D01*
X130706953Y-112024342D02*
X130754572Y-112119580D01*
X130754572Y-112119580D02*
X130802191Y-112167200D01*
X130802191Y-112167200D02*
X130897429Y-112214819D01*
X130897429Y-112214819D02*
X131087905Y-112214819D01*
X131087905Y-112214819D02*
X131183143Y-112167200D01*
X131183143Y-112167200D02*
X131230762Y-112119580D01*
X131230762Y-112119580D02*
X131278381Y-112024342D01*
X131278381Y-112024342D02*
X131278381Y-111214819D01*
X131754572Y-112214819D02*
X131754572Y-111214819D01*
X131754572Y-111214819D02*
X131992667Y-111214819D01*
X131992667Y-111214819D02*
X132135524Y-111262438D01*
X132135524Y-111262438D02*
X132230762Y-111357676D01*
X132230762Y-111357676D02*
X132278381Y-111452914D01*
X132278381Y-111452914D02*
X132326000Y-111643390D01*
X132326000Y-111643390D02*
X132326000Y-111786247D01*
X132326000Y-111786247D02*
X132278381Y-111976723D01*
X132278381Y-111976723D02*
X132230762Y-112071961D01*
X132230762Y-112071961D02*
X132135524Y-112167200D01*
X132135524Y-112167200D02*
X131992667Y-112214819D01*
X131992667Y-112214819D02*
X131754572Y-112214819D01*
X132754572Y-112214819D02*
X132754572Y-111214819D01*
X133421238Y-111214819D02*
X133611714Y-111214819D01*
X133611714Y-111214819D02*
X133706952Y-111262438D01*
X133706952Y-111262438D02*
X133802190Y-111357676D01*
X133802190Y-111357676D02*
X133849809Y-111548152D01*
X133849809Y-111548152D02*
X133849809Y-111881485D01*
X133849809Y-111881485D02*
X133802190Y-112071961D01*
X133802190Y-112071961D02*
X133706952Y-112167200D01*
X133706952Y-112167200D02*
X133611714Y-112214819D01*
X133611714Y-112214819D02*
X133421238Y-112214819D01*
X133421238Y-112214819D02*
X133326000Y-112167200D01*
X133326000Y-112167200D02*
X133230762Y-112071961D01*
X133230762Y-112071961D02*
X133183143Y-111881485D01*
X133183143Y-111881485D02*
X133183143Y-111548152D01*
X133183143Y-111548152D02*
X133230762Y-111357676D01*
X133230762Y-111357676D02*
X133326000Y-111262438D01*
X133326000Y-111262438D02*
X133421238Y-111214819D01*
X171443781Y-126159419D02*
X171443781Y-125159419D01*
X171443781Y-125159419D02*
X171777114Y-125873704D01*
X171777114Y-125873704D02*
X172110447Y-125159419D01*
X172110447Y-125159419D02*
X172110447Y-126159419D01*
X172586638Y-126159419D02*
X172586638Y-125159419D01*
X172967590Y-125159419D02*
X173634256Y-126159419D01*
X173634256Y-125159419D02*
X172967590Y-126159419D01*
X175099256Y-123822619D02*
X175099256Y-122822619D01*
X175099256Y-122822619D02*
X175349256Y-123536904D01*
X175349256Y-123536904D02*
X175599256Y-122822619D01*
X175599256Y-122822619D02*
X175599256Y-123822619D01*
X176349256Y-123822619D02*
X175920685Y-123822619D01*
X176134970Y-123822619D02*
X176134970Y-122822619D01*
X176134970Y-122822619D02*
X176063542Y-122965476D01*
X176063542Y-122965476D02*
X175992113Y-123060714D01*
X175992113Y-123060714D02*
X175920685Y-123108333D01*
X177634971Y-122870238D02*
X177563543Y-122822619D01*
X177563543Y-122822619D02*
X177456400Y-122822619D01*
X177456400Y-122822619D02*
X177349257Y-122870238D01*
X177349257Y-122870238D02*
X177277828Y-122965476D01*
X177277828Y-122965476D02*
X177242114Y-123060714D01*
X177242114Y-123060714D02*
X177206400Y-123251190D01*
X177206400Y-123251190D02*
X177206400Y-123394047D01*
X177206400Y-123394047D02*
X177242114Y-123584523D01*
X177242114Y-123584523D02*
X177277828Y-123679761D01*
X177277828Y-123679761D02*
X177349257Y-123775000D01*
X177349257Y-123775000D02*
X177456400Y-123822619D01*
X177456400Y-123822619D02*
X177527828Y-123822619D01*
X177527828Y-123822619D02*
X177634971Y-123775000D01*
X177634971Y-123775000D02*
X177670685Y-123727380D01*
X177670685Y-123727380D02*
X177670685Y-123394047D01*
X177670685Y-123394047D02*
X177527828Y-123394047D01*
X177992114Y-123822619D02*
X177992114Y-122822619D01*
X177992114Y-122822619D02*
X178420685Y-123822619D01*
X178420685Y-123822619D02*
X178420685Y-122822619D01*
X178777828Y-123822619D02*
X178777828Y-122822619D01*
X178777828Y-122822619D02*
X178956399Y-122822619D01*
X178956399Y-122822619D02*
X179063542Y-122870238D01*
X179063542Y-122870238D02*
X179134971Y-122965476D01*
X179134971Y-122965476D02*
X179170685Y-123060714D01*
X179170685Y-123060714D02*
X179206399Y-123251190D01*
X179206399Y-123251190D02*
X179206399Y-123394047D01*
X179206399Y-123394047D02*
X179170685Y-123584523D01*
X179170685Y-123584523D02*
X179134971Y-123679761D01*
X179134971Y-123679761D02*
X179063542Y-123775000D01*
X179063542Y-123775000D02*
X178956399Y-123822619D01*
X178956399Y-123822619D02*
X178777828Y-123822619D01*
X180099257Y-123822619D02*
X180099257Y-122822619D01*
X180099257Y-122822619D02*
X180349257Y-123536904D01*
X180349257Y-123536904D02*
X180599257Y-122822619D01*
X180599257Y-122822619D02*
X180599257Y-123822619D01*
X180920686Y-122917857D02*
X180956400Y-122870238D01*
X180956400Y-122870238D02*
X181027829Y-122822619D01*
X181027829Y-122822619D02*
X181206400Y-122822619D01*
X181206400Y-122822619D02*
X181277829Y-122870238D01*
X181277829Y-122870238D02*
X181313543Y-122917857D01*
X181313543Y-122917857D02*
X181349257Y-123013095D01*
X181349257Y-123013095D02*
X181349257Y-123108333D01*
X181349257Y-123108333D02*
X181313543Y-123251190D01*
X181313543Y-123251190D02*
X180884971Y-123822619D01*
X180884971Y-123822619D02*
X181349257Y-123822619D01*
X178096942Y-96593819D02*
X177763609Y-96117628D01*
X177525514Y-96593819D02*
X177525514Y-95593819D01*
X177525514Y-95593819D02*
X177906466Y-95593819D01*
X177906466Y-95593819D02*
X178001704Y-95641438D01*
X178001704Y-95641438D02*
X178049323Y-95689057D01*
X178049323Y-95689057D02*
X178096942Y-95784295D01*
X178096942Y-95784295D02*
X178096942Y-95927152D01*
X178096942Y-95927152D02*
X178049323Y-96022390D01*
X178049323Y-96022390D02*
X178001704Y-96070009D01*
X178001704Y-96070009D02*
X177906466Y-96117628D01*
X177906466Y-96117628D02*
X177525514Y-96117628D01*
X178477895Y-95689057D02*
X178525514Y-95641438D01*
X178525514Y-95641438D02*
X178620752Y-95593819D01*
X178620752Y-95593819D02*
X178858847Y-95593819D01*
X178858847Y-95593819D02*
X178954085Y-95641438D01*
X178954085Y-95641438D02*
X179001704Y-95689057D01*
X179001704Y-95689057D02*
X179049323Y-95784295D01*
X179049323Y-95784295D02*
X179049323Y-95879533D01*
X179049323Y-95879533D02*
X179001704Y-96022390D01*
X179001704Y-96022390D02*
X178430276Y-96593819D01*
X178430276Y-96593819D02*
X179049323Y-96593819D01*
X179382657Y-95593819D02*
X180001704Y-95593819D01*
X180001704Y-95593819D02*
X179668371Y-95974771D01*
X179668371Y-95974771D02*
X179811228Y-95974771D01*
X179811228Y-95974771D02*
X179906466Y-96022390D01*
X179906466Y-96022390D02*
X179954085Y-96070009D01*
X179954085Y-96070009D02*
X180001704Y-96165247D01*
X180001704Y-96165247D02*
X180001704Y-96403342D01*
X180001704Y-96403342D02*
X179954085Y-96498580D01*
X179954085Y-96498580D02*
X179906466Y-96546200D01*
X179906466Y-96546200D02*
X179811228Y-96593819D01*
X179811228Y-96593819D02*
X179525514Y-96593819D01*
X179525514Y-96593819D02*
X179430276Y-96546200D01*
X179430276Y-96546200D02*
X179382657Y-96498580D01*
X129164733Y-119882780D02*
X129117114Y-119930400D01*
X129117114Y-119930400D02*
X128974257Y-119978019D01*
X128974257Y-119978019D02*
X128879019Y-119978019D01*
X128879019Y-119978019D02*
X128736162Y-119930400D01*
X128736162Y-119930400D02*
X128640924Y-119835161D01*
X128640924Y-119835161D02*
X128593305Y-119739923D01*
X128593305Y-119739923D02*
X128545686Y-119549447D01*
X128545686Y-119549447D02*
X128545686Y-119406590D01*
X128545686Y-119406590D02*
X128593305Y-119216114D01*
X128593305Y-119216114D02*
X128640924Y-119120876D01*
X128640924Y-119120876D02*
X128736162Y-119025638D01*
X128736162Y-119025638D02*
X128879019Y-118978019D01*
X128879019Y-118978019D02*
X128974257Y-118978019D01*
X128974257Y-118978019D02*
X129117114Y-119025638D01*
X129117114Y-119025638D02*
X129164733Y-119073257D01*
X130117114Y-119978019D02*
X129545686Y-119978019D01*
X129831400Y-119978019D02*
X129831400Y-118978019D01*
X129831400Y-118978019D02*
X129736162Y-119120876D01*
X129736162Y-119120876D02*
X129640924Y-119216114D01*
X129640924Y-119216114D02*
X129545686Y-119263733D01*
X154011333Y-120222180D02*
X153963714Y-120269800D01*
X153963714Y-120269800D02*
X153820857Y-120317419D01*
X153820857Y-120317419D02*
X153725619Y-120317419D01*
X153725619Y-120317419D02*
X153582762Y-120269800D01*
X153582762Y-120269800D02*
X153487524Y-120174561D01*
X153487524Y-120174561D02*
X153439905Y-120079323D01*
X153439905Y-120079323D02*
X153392286Y-119888847D01*
X153392286Y-119888847D02*
X153392286Y-119745990D01*
X153392286Y-119745990D02*
X153439905Y-119555514D01*
X153439905Y-119555514D02*
X153487524Y-119460276D01*
X153487524Y-119460276D02*
X153582762Y-119365038D01*
X153582762Y-119365038D02*
X153725619Y-119317419D01*
X153725619Y-119317419D02*
X153820857Y-119317419D01*
X153820857Y-119317419D02*
X153963714Y-119365038D01*
X153963714Y-119365038D02*
X154011333Y-119412657D01*
X154392286Y-119412657D02*
X154439905Y-119365038D01*
X154439905Y-119365038D02*
X154535143Y-119317419D01*
X154535143Y-119317419D02*
X154773238Y-119317419D01*
X154773238Y-119317419D02*
X154868476Y-119365038D01*
X154868476Y-119365038D02*
X154916095Y-119412657D01*
X154916095Y-119412657D02*
X154963714Y-119507895D01*
X154963714Y-119507895D02*
X154963714Y-119603133D01*
X154963714Y-119603133D02*
X154916095Y-119745990D01*
X154916095Y-119745990D02*
X154344667Y-120317419D01*
X154344667Y-120317419D02*
X154963714Y-120317419D01*
X166679642Y-121371519D02*
X166346309Y-120895328D01*
X166108214Y-121371519D02*
X166108214Y-120371519D01*
X166108214Y-120371519D02*
X166489166Y-120371519D01*
X166489166Y-120371519D02*
X166584404Y-120419138D01*
X166584404Y-120419138D02*
X166632023Y-120466757D01*
X166632023Y-120466757D02*
X166679642Y-120561995D01*
X166679642Y-120561995D02*
X166679642Y-120704852D01*
X166679642Y-120704852D02*
X166632023Y-120800090D01*
X166632023Y-120800090D02*
X166584404Y-120847709D01*
X166584404Y-120847709D02*
X166489166Y-120895328D01*
X166489166Y-120895328D02*
X166108214Y-120895328D01*
X167060595Y-120466757D02*
X167108214Y-120419138D01*
X167108214Y-120419138D02*
X167203452Y-120371519D01*
X167203452Y-120371519D02*
X167441547Y-120371519D01*
X167441547Y-120371519D02*
X167536785Y-120419138D01*
X167536785Y-120419138D02*
X167584404Y-120466757D01*
X167584404Y-120466757D02*
X167632023Y-120561995D01*
X167632023Y-120561995D02*
X167632023Y-120657233D01*
X167632023Y-120657233D02*
X167584404Y-120800090D01*
X167584404Y-120800090D02*
X167012976Y-121371519D01*
X167012976Y-121371519D02*
X167632023Y-121371519D01*
X168584404Y-121371519D02*
X168012976Y-121371519D01*
X168298690Y-121371519D02*
X168298690Y-120371519D01*
X168298690Y-120371519D02*
X168203452Y-120514376D01*
X168203452Y-120514376D02*
X168108214Y-120609614D01*
X168108214Y-120609614D02*
X168012976Y-120657233D01*
X116469319Y-102541366D02*
X115993128Y-102874699D01*
X116469319Y-103112794D02*
X115469319Y-103112794D01*
X115469319Y-103112794D02*
X115469319Y-102731842D01*
X115469319Y-102731842D02*
X115516938Y-102636604D01*
X115516938Y-102636604D02*
X115564557Y-102588985D01*
X115564557Y-102588985D02*
X115659795Y-102541366D01*
X115659795Y-102541366D02*
X115802652Y-102541366D01*
X115802652Y-102541366D02*
X115897890Y-102588985D01*
X115897890Y-102588985D02*
X115945509Y-102636604D01*
X115945509Y-102636604D02*
X115993128Y-102731842D01*
X115993128Y-102731842D02*
X115993128Y-103112794D01*
X115469319Y-101684223D02*
X115469319Y-101874699D01*
X115469319Y-101874699D02*
X115516938Y-101969937D01*
X115516938Y-101969937D02*
X115564557Y-102017556D01*
X115564557Y-102017556D02*
X115707414Y-102112794D01*
X115707414Y-102112794D02*
X115897890Y-102160413D01*
X115897890Y-102160413D02*
X116278842Y-102160413D01*
X116278842Y-102160413D02*
X116374080Y-102112794D01*
X116374080Y-102112794D02*
X116421700Y-102065175D01*
X116421700Y-102065175D02*
X116469319Y-101969937D01*
X116469319Y-101969937D02*
X116469319Y-101779461D01*
X116469319Y-101779461D02*
X116421700Y-101684223D01*
X116421700Y-101684223D02*
X116374080Y-101636604D01*
X116374080Y-101636604D02*
X116278842Y-101588985D01*
X116278842Y-101588985D02*
X116040747Y-101588985D01*
X116040747Y-101588985D02*
X115945509Y-101636604D01*
X115945509Y-101636604D02*
X115897890Y-101684223D01*
X115897890Y-101684223D02*
X115850271Y-101779461D01*
X115850271Y-101779461D02*
X115850271Y-101969937D01*
X115850271Y-101969937D02*
X115897890Y-102065175D01*
X115897890Y-102065175D02*
X115945509Y-102112794D01*
X115945509Y-102112794D02*
X116040747Y-102160413D01*
X154512180Y-93145266D02*
X154559800Y-93192885D01*
X154559800Y-93192885D02*
X154607419Y-93335742D01*
X154607419Y-93335742D02*
X154607419Y-93430980D01*
X154607419Y-93430980D02*
X154559800Y-93573837D01*
X154559800Y-93573837D02*
X154464561Y-93669075D01*
X154464561Y-93669075D02*
X154369323Y-93716694D01*
X154369323Y-93716694D02*
X154178847Y-93764313D01*
X154178847Y-93764313D02*
X154035990Y-93764313D01*
X154035990Y-93764313D02*
X153845514Y-93716694D01*
X153845514Y-93716694D02*
X153750276Y-93669075D01*
X153750276Y-93669075D02*
X153655038Y-93573837D01*
X153655038Y-93573837D02*
X153607419Y-93430980D01*
X153607419Y-93430980D02*
X153607419Y-93335742D01*
X153607419Y-93335742D02*
X153655038Y-93192885D01*
X153655038Y-93192885D02*
X153702657Y-93145266D01*
X153607419Y-92811932D02*
X153607419Y-92145266D01*
X153607419Y-92145266D02*
X154607419Y-92573837D01*
X188523642Y-116278819D02*
X188190309Y-115802628D01*
X187952214Y-116278819D02*
X187952214Y-115278819D01*
X187952214Y-115278819D02*
X188333166Y-115278819D01*
X188333166Y-115278819D02*
X188428404Y-115326438D01*
X188428404Y-115326438D02*
X188476023Y-115374057D01*
X188476023Y-115374057D02*
X188523642Y-115469295D01*
X188523642Y-115469295D02*
X188523642Y-115612152D01*
X188523642Y-115612152D02*
X188476023Y-115707390D01*
X188476023Y-115707390D02*
X188428404Y-115755009D01*
X188428404Y-115755009D02*
X188333166Y-115802628D01*
X188333166Y-115802628D02*
X187952214Y-115802628D01*
X188904595Y-115374057D02*
X188952214Y-115326438D01*
X188952214Y-115326438D02*
X189047452Y-115278819D01*
X189047452Y-115278819D02*
X189285547Y-115278819D01*
X189285547Y-115278819D02*
X189380785Y-115326438D01*
X189380785Y-115326438D02*
X189428404Y-115374057D01*
X189428404Y-115374057D02*
X189476023Y-115469295D01*
X189476023Y-115469295D02*
X189476023Y-115564533D01*
X189476023Y-115564533D02*
X189428404Y-115707390D01*
X189428404Y-115707390D02*
X188856976Y-116278819D01*
X188856976Y-116278819D02*
X189476023Y-116278819D01*
X190333166Y-115278819D02*
X190142690Y-115278819D01*
X190142690Y-115278819D02*
X190047452Y-115326438D01*
X190047452Y-115326438D02*
X189999833Y-115374057D01*
X189999833Y-115374057D02*
X189904595Y-115516914D01*
X189904595Y-115516914D02*
X189856976Y-115707390D01*
X189856976Y-115707390D02*
X189856976Y-116088342D01*
X189856976Y-116088342D02*
X189904595Y-116183580D01*
X189904595Y-116183580D02*
X189952214Y-116231200D01*
X189952214Y-116231200D02*
X190047452Y-116278819D01*
X190047452Y-116278819D02*
X190237928Y-116278819D01*
X190237928Y-116278819D02*
X190333166Y-116231200D01*
X190333166Y-116231200D02*
X190380785Y-116183580D01*
X190380785Y-116183580D02*
X190428404Y-116088342D01*
X190428404Y-116088342D02*
X190428404Y-115850247D01*
X190428404Y-115850247D02*
X190380785Y-115755009D01*
X190380785Y-115755009D02*
X190333166Y-115707390D01*
X190333166Y-115707390D02*
X190237928Y-115659771D01*
X190237928Y-115659771D02*
X190047452Y-115659771D01*
X190047452Y-115659771D02*
X189952214Y-115707390D01*
X189952214Y-115707390D02*
X189904595Y-115755009D01*
X189904595Y-115755009D02*
X189856976Y-115850247D01*
X166933642Y-123911519D02*
X166600309Y-123435328D01*
X166362214Y-123911519D02*
X166362214Y-122911519D01*
X166362214Y-122911519D02*
X166743166Y-122911519D01*
X166743166Y-122911519D02*
X166838404Y-122959138D01*
X166838404Y-122959138D02*
X166886023Y-123006757D01*
X166886023Y-123006757D02*
X166933642Y-123101995D01*
X166933642Y-123101995D02*
X166933642Y-123244852D01*
X166933642Y-123244852D02*
X166886023Y-123340090D01*
X166886023Y-123340090D02*
X166838404Y-123387709D01*
X166838404Y-123387709D02*
X166743166Y-123435328D01*
X166743166Y-123435328D02*
X166362214Y-123435328D01*
X167314595Y-123006757D02*
X167362214Y-122959138D01*
X167362214Y-122959138D02*
X167457452Y-122911519D01*
X167457452Y-122911519D02*
X167695547Y-122911519D01*
X167695547Y-122911519D02*
X167790785Y-122959138D01*
X167790785Y-122959138D02*
X167838404Y-123006757D01*
X167838404Y-123006757D02*
X167886023Y-123101995D01*
X167886023Y-123101995D02*
X167886023Y-123197233D01*
X167886023Y-123197233D02*
X167838404Y-123340090D01*
X167838404Y-123340090D02*
X167266976Y-123911519D01*
X167266976Y-123911519D02*
X167886023Y-123911519D01*
X168743166Y-123244852D02*
X168743166Y-123911519D01*
X168505071Y-122863900D02*
X168266976Y-123578185D01*
X168266976Y-123578185D02*
X168886023Y-123578185D01*
X125412833Y-109926280D02*
X125365214Y-109973900D01*
X125365214Y-109973900D02*
X125222357Y-110021519D01*
X125222357Y-110021519D02*
X125127119Y-110021519D01*
X125127119Y-110021519D02*
X124984262Y-109973900D01*
X124984262Y-109973900D02*
X124889024Y-109878661D01*
X124889024Y-109878661D02*
X124841405Y-109783423D01*
X124841405Y-109783423D02*
X124793786Y-109592947D01*
X124793786Y-109592947D02*
X124793786Y-109450090D01*
X124793786Y-109450090D02*
X124841405Y-109259614D01*
X124841405Y-109259614D02*
X124889024Y-109164376D01*
X124889024Y-109164376D02*
X124984262Y-109069138D01*
X124984262Y-109069138D02*
X125127119Y-109021519D01*
X125127119Y-109021519D02*
X125222357Y-109021519D01*
X125222357Y-109021519D02*
X125365214Y-109069138D01*
X125365214Y-109069138D02*
X125412833Y-109116757D01*
X126269976Y-109354852D02*
X126269976Y-110021519D01*
X126031881Y-108973900D02*
X125793786Y-109688185D01*
X125793786Y-109688185D02*
X126412833Y-109688185D01*
X156527833Y-109886280D02*
X156480214Y-109933900D01*
X156480214Y-109933900D02*
X156337357Y-109981519D01*
X156337357Y-109981519D02*
X156242119Y-109981519D01*
X156242119Y-109981519D02*
X156099262Y-109933900D01*
X156099262Y-109933900D02*
X156004024Y-109838661D01*
X156004024Y-109838661D02*
X155956405Y-109743423D01*
X155956405Y-109743423D02*
X155908786Y-109552947D01*
X155908786Y-109552947D02*
X155908786Y-109410090D01*
X155908786Y-109410090D02*
X155956405Y-109219614D01*
X155956405Y-109219614D02*
X156004024Y-109124376D01*
X156004024Y-109124376D02*
X156099262Y-109029138D01*
X156099262Y-109029138D02*
X156242119Y-108981519D01*
X156242119Y-108981519D02*
X156337357Y-108981519D01*
X156337357Y-108981519D02*
X156480214Y-109029138D01*
X156480214Y-109029138D02*
X156527833Y-109076757D01*
X157099262Y-109410090D02*
X157004024Y-109362471D01*
X157004024Y-109362471D02*
X156956405Y-109314852D01*
X156956405Y-109314852D02*
X156908786Y-109219614D01*
X156908786Y-109219614D02*
X156908786Y-109171995D01*
X156908786Y-109171995D02*
X156956405Y-109076757D01*
X156956405Y-109076757D02*
X157004024Y-109029138D01*
X157004024Y-109029138D02*
X157099262Y-108981519D01*
X157099262Y-108981519D02*
X157289738Y-108981519D01*
X157289738Y-108981519D02*
X157384976Y-109029138D01*
X157384976Y-109029138D02*
X157432595Y-109076757D01*
X157432595Y-109076757D02*
X157480214Y-109171995D01*
X157480214Y-109171995D02*
X157480214Y-109219614D01*
X157480214Y-109219614D02*
X157432595Y-109314852D01*
X157432595Y-109314852D02*
X157384976Y-109362471D01*
X157384976Y-109362471D02*
X157289738Y-109410090D01*
X157289738Y-109410090D02*
X157099262Y-109410090D01*
X157099262Y-109410090D02*
X157004024Y-109457709D01*
X157004024Y-109457709D02*
X156956405Y-109505328D01*
X156956405Y-109505328D02*
X156908786Y-109600566D01*
X156908786Y-109600566D02*
X156908786Y-109791042D01*
X156908786Y-109791042D02*
X156956405Y-109886280D01*
X156956405Y-109886280D02*
X157004024Y-109933900D01*
X157004024Y-109933900D02*
X157099262Y-109981519D01*
X157099262Y-109981519D02*
X157289738Y-109981519D01*
X157289738Y-109981519D02*
X157384976Y-109933900D01*
X157384976Y-109933900D02*
X157432595Y-109886280D01*
X157432595Y-109886280D02*
X157480214Y-109791042D01*
X157480214Y-109791042D02*
X157480214Y-109600566D01*
X157480214Y-109600566D02*
X157432595Y-109505328D01*
X157432595Y-109505328D02*
X157384976Y-109457709D01*
X157384976Y-109457709D02*
X157289738Y-109410090D01*
X127375509Y-126195033D02*
X127375509Y-126528366D01*
X127899319Y-126528366D02*
X126899319Y-126528366D01*
X126899319Y-126528366D02*
X126899319Y-126052176D01*
X127375509Y-125337890D02*
X127423128Y-125195033D01*
X127423128Y-125195033D02*
X127470747Y-125147414D01*
X127470747Y-125147414D02*
X127565985Y-125099795D01*
X127565985Y-125099795D02*
X127708842Y-125099795D01*
X127708842Y-125099795D02*
X127804080Y-125147414D01*
X127804080Y-125147414D02*
X127851700Y-125195033D01*
X127851700Y-125195033D02*
X127899319Y-125290271D01*
X127899319Y-125290271D02*
X127899319Y-125671223D01*
X127899319Y-125671223D02*
X126899319Y-125671223D01*
X126899319Y-125671223D02*
X126899319Y-125337890D01*
X126899319Y-125337890D02*
X126946938Y-125242652D01*
X126946938Y-125242652D02*
X126994557Y-125195033D01*
X126994557Y-125195033D02*
X127089795Y-125147414D01*
X127089795Y-125147414D02*
X127185033Y-125147414D01*
X127185033Y-125147414D02*
X127280271Y-125195033D01*
X127280271Y-125195033D02*
X127327890Y-125242652D01*
X127327890Y-125242652D02*
X127375509Y-125337890D01*
X127375509Y-125337890D02*
X127375509Y-125671223D01*
X127899319Y-124147414D02*
X127899319Y-124718842D01*
X127899319Y-124433128D02*
X126899319Y-124433128D01*
X126899319Y-124433128D02*
X127042176Y-124528366D01*
X127042176Y-124528366D02*
X127137414Y-124623604D01*
X127137414Y-124623604D02*
X127185033Y-124718842D01*
X188269642Y-118818819D02*
X187936309Y-118342628D01*
X187698214Y-118818819D02*
X187698214Y-117818819D01*
X187698214Y-117818819D02*
X188079166Y-117818819D01*
X188079166Y-117818819D02*
X188174404Y-117866438D01*
X188174404Y-117866438D02*
X188222023Y-117914057D01*
X188222023Y-117914057D02*
X188269642Y-118009295D01*
X188269642Y-118009295D02*
X188269642Y-118152152D01*
X188269642Y-118152152D02*
X188222023Y-118247390D01*
X188222023Y-118247390D02*
X188174404Y-118295009D01*
X188174404Y-118295009D02*
X188079166Y-118342628D01*
X188079166Y-118342628D02*
X187698214Y-118342628D01*
X188650595Y-117914057D02*
X188698214Y-117866438D01*
X188698214Y-117866438D02*
X188793452Y-117818819D01*
X188793452Y-117818819D02*
X189031547Y-117818819D01*
X189031547Y-117818819D02*
X189126785Y-117866438D01*
X189126785Y-117866438D02*
X189174404Y-117914057D01*
X189174404Y-117914057D02*
X189222023Y-118009295D01*
X189222023Y-118009295D02*
X189222023Y-118104533D01*
X189222023Y-118104533D02*
X189174404Y-118247390D01*
X189174404Y-118247390D02*
X188602976Y-118818819D01*
X188602976Y-118818819D02*
X189222023Y-118818819D01*
X190126785Y-117818819D02*
X189650595Y-117818819D01*
X189650595Y-117818819D02*
X189602976Y-118295009D01*
X189602976Y-118295009D02*
X189650595Y-118247390D01*
X189650595Y-118247390D02*
X189745833Y-118199771D01*
X189745833Y-118199771D02*
X189983928Y-118199771D01*
X189983928Y-118199771D02*
X190079166Y-118247390D01*
X190079166Y-118247390D02*
X190126785Y-118295009D01*
X190126785Y-118295009D02*
X190174404Y-118390247D01*
X190174404Y-118390247D02*
X190174404Y-118628342D01*
X190174404Y-118628342D02*
X190126785Y-118723580D01*
X190126785Y-118723580D02*
X190079166Y-118771200D01*
X190079166Y-118771200D02*
X189983928Y-118818819D01*
X189983928Y-118818819D02*
X189745833Y-118818819D01*
X189745833Y-118818819D02*
X189650595Y-118771200D01*
X189650595Y-118771200D02*
X189602976Y-118723580D01*
X141234319Y-113336366D02*
X140758128Y-113669699D01*
X141234319Y-113907794D02*
X140234319Y-113907794D01*
X140234319Y-113907794D02*
X140234319Y-113526842D01*
X140234319Y-113526842D02*
X140281938Y-113431604D01*
X140281938Y-113431604D02*
X140329557Y-113383985D01*
X140329557Y-113383985D02*
X140424795Y-113336366D01*
X140424795Y-113336366D02*
X140567652Y-113336366D01*
X140567652Y-113336366D02*
X140662890Y-113383985D01*
X140662890Y-113383985D02*
X140710509Y-113431604D01*
X140710509Y-113431604D02*
X140758128Y-113526842D01*
X140758128Y-113526842D02*
X140758128Y-113907794D01*
X141234319Y-112860175D02*
X141234319Y-112669699D01*
X141234319Y-112669699D02*
X141186700Y-112574461D01*
X141186700Y-112574461D02*
X141139080Y-112526842D01*
X141139080Y-112526842D02*
X140996223Y-112431604D01*
X140996223Y-112431604D02*
X140805747Y-112383985D01*
X140805747Y-112383985D02*
X140424795Y-112383985D01*
X140424795Y-112383985D02*
X140329557Y-112431604D01*
X140329557Y-112431604D02*
X140281938Y-112479223D01*
X140281938Y-112479223D02*
X140234319Y-112574461D01*
X140234319Y-112574461D02*
X140234319Y-112764937D01*
X140234319Y-112764937D02*
X140281938Y-112860175D01*
X140281938Y-112860175D02*
X140329557Y-112907794D01*
X140329557Y-112907794D02*
X140424795Y-112955413D01*
X140424795Y-112955413D02*
X140662890Y-112955413D01*
X140662890Y-112955413D02*
X140758128Y-112907794D01*
X140758128Y-112907794D02*
X140805747Y-112860175D01*
X140805747Y-112860175D02*
X140853366Y-112764937D01*
X140853366Y-112764937D02*
X140853366Y-112574461D01*
X140853366Y-112574461D02*
X140805747Y-112479223D01*
X140805747Y-112479223D02*
X140758128Y-112431604D01*
X140758128Y-112431604D02*
X140662890Y-112383985D01*
X163822142Y-93069580D02*
X163774523Y-93117200D01*
X163774523Y-93117200D02*
X163631666Y-93164819D01*
X163631666Y-93164819D02*
X163536428Y-93164819D01*
X163536428Y-93164819D02*
X163393571Y-93117200D01*
X163393571Y-93117200D02*
X163298333Y-93021961D01*
X163298333Y-93021961D02*
X163250714Y-92926723D01*
X163250714Y-92926723D02*
X163203095Y-92736247D01*
X163203095Y-92736247D02*
X163203095Y-92593390D01*
X163203095Y-92593390D02*
X163250714Y-92402914D01*
X163250714Y-92402914D02*
X163298333Y-92307676D01*
X163298333Y-92307676D02*
X163393571Y-92212438D01*
X163393571Y-92212438D02*
X163536428Y-92164819D01*
X163536428Y-92164819D02*
X163631666Y-92164819D01*
X163631666Y-92164819D02*
X163774523Y-92212438D01*
X163774523Y-92212438D02*
X163822142Y-92260057D01*
X164774523Y-93164819D02*
X164203095Y-93164819D01*
X164488809Y-93164819D02*
X164488809Y-92164819D01*
X164488809Y-92164819D02*
X164393571Y-92307676D01*
X164393571Y-92307676D02*
X164298333Y-92402914D01*
X164298333Y-92402914D02*
X164203095Y-92450533D01*
X165155476Y-92260057D02*
X165203095Y-92212438D01*
X165203095Y-92212438D02*
X165298333Y-92164819D01*
X165298333Y-92164819D02*
X165536428Y-92164819D01*
X165536428Y-92164819D02*
X165631666Y-92212438D01*
X165631666Y-92212438D02*
X165679285Y-92260057D01*
X165679285Y-92260057D02*
X165726904Y-92355295D01*
X165726904Y-92355295D02*
X165726904Y-92450533D01*
X165726904Y-92450533D02*
X165679285Y-92593390D01*
X165679285Y-92593390D02*
X165107857Y-93164819D01*
X165107857Y-93164819D02*
X165726904Y-93164819D01*
X166933642Y-116291519D02*
X166600309Y-115815328D01*
X166362214Y-116291519D02*
X166362214Y-115291519D01*
X166362214Y-115291519D02*
X166743166Y-115291519D01*
X166743166Y-115291519D02*
X166838404Y-115339138D01*
X166838404Y-115339138D02*
X166886023Y-115386757D01*
X166886023Y-115386757D02*
X166933642Y-115481995D01*
X166933642Y-115481995D02*
X166933642Y-115624852D01*
X166933642Y-115624852D02*
X166886023Y-115720090D01*
X166886023Y-115720090D02*
X166838404Y-115767709D01*
X166838404Y-115767709D02*
X166743166Y-115815328D01*
X166743166Y-115815328D02*
X166362214Y-115815328D01*
X167886023Y-116291519D02*
X167314595Y-116291519D01*
X167600309Y-116291519D02*
X167600309Y-115291519D01*
X167600309Y-115291519D02*
X167505071Y-115434376D01*
X167505071Y-115434376D02*
X167409833Y-115529614D01*
X167409833Y-115529614D02*
X167314595Y-115577233D01*
X168743166Y-115291519D02*
X168552690Y-115291519D01*
X168552690Y-115291519D02*
X168457452Y-115339138D01*
X168457452Y-115339138D02*
X168409833Y-115386757D01*
X168409833Y-115386757D02*
X168314595Y-115529614D01*
X168314595Y-115529614D02*
X168266976Y-115720090D01*
X168266976Y-115720090D02*
X168266976Y-116101042D01*
X168266976Y-116101042D02*
X168314595Y-116196280D01*
X168314595Y-116196280D02*
X168362214Y-116243900D01*
X168362214Y-116243900D02*
X168457452Y-116291519D01*
X168457452Y-116291519D02*
X168647928Y-116291519D01*
X168647928Y-116291519D02*
X168743166Y-116243900D01*
X168743166Y-116243900D02*
X168790785Y-116196280D01*
X168790785Y-116196280D02*
X168838404Y-116101042D01*
X168838404Y-116101042D02*
X168838404Y-115862947D01*
X168838404Y-115862947D02*
X168790785Y-115767709D01*
X168790785Y-115767709D02*
X168743166Y-115720090D01*
X168743166Y-115720090D02*
X168647928Y-115672471D01*
X168647928Y-115672471D02*
X168457452Y-115672471D01*
X168457452Y-115672471D02*
X168362214Y-115720090D01*
X168362214Y-115720090D02*
X168314595Y-115767709D01*
X168314595Y-115767709D02*
X168266976Y-115862947D01*
X188269642Y-106131519D02*
X187936309Y-105655328D01*
X187698214Y-106131519D02*
X187698214Y-105131519D01*
X187698214Y-105131519D02*
X188079166Y-105131519D01*
X188079166Y-105131519D02*
X188174404Y-105179138D01*
X188174404Y-105179138D02*
X188222023Y-105226757D01*
X188222023Y-105226757D02*
X188269642Y-105321995D01*
X188269642Y-105321995D02*
X188269642Y-105464852D01*
X188269642Y-105464852D02*
X188222023Y-105560090D01*
X188222023Y-105560090D02*
X188174404Y-105607709D01*
X188174404Y-105607709D02*
X188079166Y-105655328D01*
X188079166Y-105655328D02*
X187698214Y-105655328D01*
X188650595Y-105226757D02*
X188698214Y-105179138D01*
X188698214Y-105179138D02*
X188793452Y-105131519D01*
X188793452Y-105131519D02*
X189031547Y-105131519D01*
X189031547Y-105131519D02*
X189126785Y-105179138D01*
X189126785Y-105179138D02*
X189174404Y-105226757D01*
X189174404Y-105226757D02*
X189222023Y-105321995D01*
X189222023Y-105321995D02*
X189222023Y-105417233D01*
X189222023Y-105417233D02*
X189174404Y-105560090D01*
X189174404Y-105560090D02*
X188602976Y-106131519D01*
X188602976Y-106131519D02*
X189222023Y-106131519D01*
X189793452Y-105560090D02*
X189698214Y-105512471D01*
X189698214Y-105512471D02*
X189650595Y-105464852D01*
X189650595Y-105464852D02*
X189602976Y-105369614D01*
X189602976Y-105369614D02*
X189602976Y-105321995D01*
X189602976Y-105321995D02*
X189650595Y-105226757D01*
X189650595Y-105226757D02*
X189698214Y-105179138D01*
X189698214Y-105179138D02*
X189793452Y-105131519D01*
X189793452Y-105131519D02*
X189983928Y-105131519D01*
X189983928Y-105131519D02*
X190079166Y-105179138D01*
X190079166Y-105179138D02*
X190126785Y-105226757D01*
X190126785Y-105226757D02*
X190174404Y-105321995D01*
X190174404Y-105321995D02*
X190174404Y-105369614D01*
X190174404Y-105369614D02*
X190126785Y-105464852D01*
X190126785Y-105464852D02*
X190079166Y-105512471D01*
X190079166Y-105512471D02*
X189983928Y-105560090D01*
X189983928Y-105560090D02*
X189793452Y-105560090D01*
X189793452Y-105560090D02*
X189698214Y-105607709D01*
X189698214Y-105607709D02*
X189650595Y-105655328D01*
X189650595Y-105655328D02*
X189602976Y-105750566D01*
X189602976Y-105750566D02*
X189602976Y-105941042D01*
X189602976Y-105941042D02*
X189650595Y-106036280D01*
X189650595Y-106036280D02*
X189698214Y-106083900D01*
X189698214Y-106083900D02*
X189793452Y-106131519D01*
X189793452Y-106131519D02*
X189983928Y-106131519D01*
X189983928Y-106131519D02*
X190079166Y-106083900D01*
X190079166Y-106083900D02*
X190126785Y-106036280D01*
X190126785Y-106036280D02*
X190174404Y-105941042D01*
X190174404Y-105941042D02*
X190174404Y-105750566D01*
X190174404Y-105750566D02*
X190126785Y-105655328D01*
X190126785Y-105655328D02*
X190079166Y-105607709D01*
X190079166Y-105607709D02*
X189983928Y-105560090D01*
X136154319Y-92222557D02*
X135678128Y-92555890D01*
X136154319Y-92793985D02*
X135154319Y-92793985D01*
X135154319Y-92793985D02*
X135154319Y-92413033D01*
X135154319Y-92413033D02*
X135201938Y-92317795D01*
X135201938Y-92317795D02*
X135249557Y-92270176D01*
X135249557Y-92270176D02*
X135344795Y-92222557D01*
X135344795Y-92222557D02*
X135487652Y-92222557D01*
X135487652Y-92222557D02*
X135582890Y-92270176D01*
X135582890Y-92270176D02*
X135630509Y-92317795D01*
X135630509Y-92317795D02*
X135678128Y-92413033D01*
X135678128Y-92413033D02*
X135678128Y-92793985D01*
X136154319Y-91270176D02*
X136154319Y-91841604D01*
X136154319Y-91555890D02*
X135154319Y-91555890D01*
X135154319Y-91555890D02*
X135297176Y-91651128D01*
X135297176Y-91651128D02*
X135392414Y-91746366D01*
X135392414Y-91746366D02*
X135440033Y-91841604D01*
X135249557Y-90889223D02*
X135201938Y-90841604D01*
X135201938Y-90841604D02*
X135154319Y-90746366D01*
X135154319Y-90746366D02*
X135154319Y-90508271D01*
X135154319Y-90508271D02*
X135201938Y-90413033D01*
X135201938Y-90413033D02*
X135249557Y-90365414D01*
X135249557Y-90365414D02*
X135344795Y-90317795D01*
X135344795Y-90317795D02*
X135440033Y-90317795D01*
X135440033Y-90317795D02*
X135582890Y-90365414D01*
X135582890Y-90365414D02*
X136154319Y-90936842D01*
X136154319Y-90936842D02*
X136154319Y-90317795D01*
X138611780Y-93130666D02*
X138659400Y-93178285D01*
X138659400Y-93178285D02*
X138707019Y-93321142D01*
X138707019Y-93321142D02*
X138707019Y-93416380D01*
X138707019Y-93416380D02*
X138659400Y-93559237D01*
X138659400Y-93559237D02*
X138564161Y-93654475D01*
X138564161Y-93654475D02*
X138468923Y-93702094D01*
X138468923Y-93702094D02*
X138278447Y-93749713D01*
X138278447Y-93749713D02*
X138135590Y-93749713D01*
X138135590Y-93749713D02*
X137945114Y-93702094D01*
X137945114Y-93702094D02*
X137849876Y-93654475D01*
X137849876Y-93654475D02*
X137754638Y-93559237D01*
X137754638Y-93559237D02*
X137707019Y-93416380D01*
X137707019Y-93416380D02*
X137707019Y-93321142D01*
X137707019Y-93321142D02*
X137754638Y-93178285D01*
X137754638Y-93178285D02*
X137802257Y-93130666D01*
X137707019Y-92225904D02*
X137707019Y-92702094D01*
X137707019Y-92702094D02*
X138183209Y-92749713D01*
X138183209Y-92749713D02*
X138135590Y-92702094D01*
X138135590Y-92702094D02*
X138087971Y-92606856D01*
X138087971Y-92606856D02*
X138087971Y-92368761D01*
X138087971Y-92368761D02*
X138135590Y-92273523D01*
X138135590Y-92273523D02*
X138183209Y-92225904D01*
X138183209Y-92225904D02*
X138278447Y-92178285D01*
X138278447Y-92178285D02*
X138516542Y-92178285D01*
X138516542Y-92178285D02*
X138611780Y-92225904D01*
X138611780Y-92225904D02*
X138659400Y-92273523D01*
X138659400Y-92273523D02*
X138707019Y-92368761D01*
X138707019Y-92368761D02*
X138707019Y-92606856D01*
X138707019Y-92606856D02*
X138659400Y-92702094D01*
X138659400Y-92702094D02*
X138611780Y-92749713D01*
X109180333Y-104594819D02*
X108847000Y-104118628D01*
X108608905Y-104594819D02*
X108608905Y-103594819D01*
X108608905Y-103594819D02*
X108989857Y-103594819D01*
X108989857Y-103594819D02*
X109085095Y-103642438D01*
X109085095Y-103642438D02*
X109132714Y-103690057D01*
X109132714Y-103690057D02*
X109180333Y-103785295D01*
X109180333Y-103785295D02*
X109180333Y-103928152D01*
X109180333Y-103928152D02*
X109132714Y-104023390D01*
X109132714Y-104023390D02*
X109085095Y-104071009D01*
X109085095Y-104071009D02*
X108989857Y-104118628D01*
X108989857Y-104118628D02*
X108608905Y-104118628D01*
X110085095Y-103594819D02*
X109608905Y-103594819D01*
X109608905Y-103594819D02*
X109561286Y-104071009D01*
X109561286Y-104071009D02*
X109608905Y-104023390D01*
X109608905Y-104023390D02*
X109704143Y-103975771D01*
X109704143Y-103975771D02*
X109942238Y-103975771D01*
X109942238Y-103975771D02*
X110037476Y-104023390D01*
X110037476Y-104023390D02*
X110085095Y-104071009D01*
X110085095Y-104071009D02*
X110132714Y-104166247D01*
X110132714Y-104166247D02*
X110132714Y-104404342D01*
X110132714Y-104404342D02*
X110085095Y-104499580D01*
X110085095Y-104499580D02*
X110037476Y-104547200D01*
X110037476Y-104547200D02*
X109942238Y-104594819D01*
X109942238Y-104594819D02*
X109704143Y-104594819D01*
X109704143Y-104594819D02*
X109608905Y-104547200D01*
X109608905Y-104547200D02*
X109561286Y-104499580D01*
X147584319Y-92222557D02*
X147108128Y-92555890D01*
X147584319Y-92793985D02*
X146584319Y-92793985D01*
X146584319Y-92793985D02*
X146584319Y-92413033D01*
X146584319Y-92413033D02*
X146631938Y-92317795D01*
X146631938Y-92317795D02*
X146679557Y-92270176D01*
X146679557Y-92270176D02*
X146774795Y-92222557D01*
X146774795Y-92222557D02*
X146917652Y-92222557D01*
X146917652Y-92222557D02*
X147012890Y-92270176D01*
X147012890Y-92270176D02*
X147060509Y-92317795D01*
X147060509Y-92317795D02*
X147108128Y-92413033D01*
X147108128Y-92413033D02*
X147108128Y-92793985D01*
X147584319Y-91270176D02*
X147584319Y-91841604D01*
X147584319Y-91555890D02*
X146584319Y-91555890D01*
X146584319Y-91555890D02*
X146727176Y-91651128D01*
X146727176Y-91651128D02*
X146822414Y-91746366D01*
X146822414Y-91746366D02*
X146870033Y-91841604D01*
X146584319Y-90365414D02*
X146584319Y-90841604D01*
X146584319Y-90841604D02*
X147060509Y-90889223D01*
X147060509Y-90889223D02*
X147012890Y-90841604D01*
X147012890Y-90841604D02*
X146965271Y-90746366D01*
X146965271Y-90746366D02*
X146965271Y-90508271D01*
X146965271Y-90508271D02*
X147012890Y-90413033D01*
X147012890Y-90413033D02*
X147060509Y-90365414D01*
X147060509Y-90365414D02*
X147155747Y-90317795D01*
X147155747Y-90317795D02*
X147393842Y-90317795D01*
X147393842Y-90317795D02*
X147489080Y-90365414D01*
X147489080Y-90365414D02*
X147536700Y-90413033D01*
X147536700Y-90413033D02*
X147584319Y-90508271D01*
X147584319Y-90508271D02*
X147584319Y-90746366D01*
X147584319Y-90746366D02*
X147536700Y-90841604D01*
X147536700Y-90841604D02*
X147489080Y-90889223D01*
X166679642Y-118831519D02*
X166346309Y-118355328D01*
X166108214Y-118831519D02*
X166108214Y-117831519D01*
X166108214Y-117831519D02*
X166489166Y-117831519D01*
X166489166Y-117831519D02*
X166584404Y-117879138D01*
X166584404Y-117879138D02*
X166632023Y-117926757D01*
X166632023Y-117926757D02*
X166679642Y-118021995D01*
X166679642Y-118021995D02*
X166679642Y-118164852D01*
X166679642Y-118164852D02*
X166632023Y-118260090D01*
X166632023Y-118260090D02*
X166584404Y-118307709D01*
X166584404Y-118307709D02*
X166489166Y-118355328D01*
X166489166Y-118355328D02*
X166108214Y-118355328D01*
X167632023Y-118831519D02*
X167060595Y-118831519D01*
X167346309Y-118831519D02*
X167346309Y-117831519D01*
X167346309Y-117831519D02*
X167251071Y-117974376D01*
X167251071Y-117974376D02*
X167155833Y-118069614D01*
X167155833Y-118069614D02*
X167060595Y-118117233D01*
X168203452Y-118260090D02*
X168108214Y-118212471D01*
X168108214Y-118212471D02*
X168060595Y-118164852D01*
X168060595Y-118164852D02*
X168012976Y-118069614D01*
X168012976Y-118069614D02*
X168012976Y-118021995D01*
X168012976Y-118021995D02*
X168060595Y-117926757D01*
X168060595Y-117926757D02*
X168108214Y-117879138D01*
X168108214Y-117879138D02*
X168203452Y-117831519D01*
X168203452Y-117831519D02*
X168393928Y-117831519D01*
X168393928Y-117831519D02*
X168489166Y-117879138D01*
X168489166Y-117879138D02*
X168536785Y-117926757D01*
X168536785Y-117926757D02*
X168584404Y-118021995D01*
X168584404Y-118021995D02*
X168584404Y-118069614D01*
X168584404Y-118069614D02*
X168536785Y-118164852D01*
X168536785Y-118164852D02*
X168489166Y-118212471D01*
X168489166Y-118212471D02*
X168393928Y-118260090D01*
X168393928Y-118260090D02*
X168203452Y-118260090D01*
X168203452Y-118260090D02*
X168108214Y-118307709D01*
X168108214Y-118307709D02*
X168060595Y-118355328D01*
X168060595Y-118355328D02*
X168012976Y-118450566D01*
X168012976Y-118450566D02*
X168012976Y-118641042D01*
X168012976Y-118641042D02*
X168060595Y-118736280D01*
X168060595Y-118736280D02*
X168108214Y-118783900D01*
X168108214Y-118783900D02*
X168203452Y-118831519D01*
X168203452Y-118831519D02*
X168393928Y-118831519D01*
X168393928Y-118831519D02*
X168489166Y-118783900D01*
X168489166Y-118783900D02*
X168536785Y-118736280D01*
X168536785Y-118736280D02*
X168584404Y-118641042D01*
X168584404Y-118641042D02*
X168584404Y-118450566D01*
X168584404Y-118450566D02*
X168536785Y-118355328D01*
X168536785Y-118355328D02*
X168489166Y-118307709D01*
X168489166Y-118307709D02*
X168393928Y-118260090D01*
X151505509Y-126195033D02*
X151505509Y-126528366D01*
X152029319Y-126528366D02*
X151029319Y-126528366D01*
X151029319Y-126528366D02*
X151029319Y-126052176D01*
X151505509Y-125337890D02*
X151553128Y-125195033D01*
X151553128Y-125195033D02*
X151600747Y-125147414D01*
X151600747Y-125147414D02*
X151695985Y-125099795D01*
X151695985Y-125099795D02*
X151838842Y-125099795D01*
X151838842Y-125099795D02*
X151934080Y-125147414D01*
X151934080Y-125147414D02*
X151981700Y-125195033D01*
X151981700Y-125195033D02*
X152029319Y-125290271D01*
X152029319Y-125290271D02*
X152029319Y-125671223D01*
X152029319Y-125671223D02*
X151029319Y-125671223D01*
X151029319Y-125671223D02*
X151029319Y-125337890D01*
X151029319Y-125337890D02*
X151076938Y-125242652D01*
X151076938Y-125242652D02*
X151124557Y-125195033D01*
X151124557Y-125195033D02*
X151219795Y-125147414D01*
X151219795Y-125147414D02*
X151315033Y-125147414D01*
X151315033Y-125147414D02*
X151410271Y-125195033D01*
X151410271Y-125195033D02*
X151457890Y-125242652D01*
X151457890Y-125242652D02*
X151505509Y-125337890D01*
X151505509Y-125337890D02*
X151505509Y-125671223D01*
X151124557Y-124718842D02*
X151076938Y-124671223D01*
X151076938Y-124671223D02*
X151029319Y-124575985D01*
X151029319Y-124575985D02*
X151029319Y-124337890D01*
X151029319Y-124337890D02*
X151076938Y-124242652D01*
X151076938Y-124242652D02*
X151124557Y-124195033D01*
X151124557Y-124195033D02*
X151219795Y-124147414D01*
X151219795Y-124147414D02*
X151315033Y-124147414D01*
X151315033Y-124147414D02*
X151457890Y-124195033D01*
X151457890Y-124195033D02*
X152029319Y-124766461D01*
X152029319Y-124766461D02*
X152029319Y-124147414D01*
X178109642Y-99146519D02*
X177776309Y-98670328D01*
X177538214Y-99146519D02*
X177538214Y-98146519D01*
X177538214Y-98146519D02*
X177919166Y-98146519D01*
X177919166Y-98146519D02*
X178014404Y-98194138D01*
X178014404Y-98194138D02*
X178062023Y-98241757D01*
X178062023Y-98241757D02*
X178109642Y-98336995D01*
X178109642Y-98336995D02*
X178109642Y-98479852D01*
X178109642Y-98479852D02*
X178062023Y-98575090D01*
X178062023Y-98575090D02*
X178014404Y-98622709D01*
X178014404Y-98622709D02*
X177919166Y-98670328D01*
X177919166Y-98670328D02*
X177538214Y-98670328D01*
X178490595Y-98241757D02*
X178538214Y-98194138D01*
X178538214Y-98194138D02*
X178633452Y-98146519D01*
X178633452Y-98146519D02*
X178871547Y-98146519D01*
X178871547Y-98146519D02*
X178966785Y-98194138D01*
X178966785Y-98194138D02*
X179014404Y-98241757D01*
X179014404Y-98241757D02*
X179062023Y-98336995D01*
X179062023Y-98336995D02*
X179062023Y-98432233D01*
X179062023Y-98432233D02*
X179014404Y-98575090D01*
X179014404Y-98575090D02*
X178442976Y-99146519D01*
X178442976Y-99146519D02*
X179062023Y-99146519D01*
X179681071Y-98146519D02*
X179776309Y-98146519D01*
X179776309Y-98146519D02*
X179871547Y-98194138D01*
X179871547Y-98194138D02*
X179919166Y-98241757D01*
X179919166Y-98241757D02*
X179966785Y-98336995D01*
X179966785Y-98336995D02*
X180014404Y-98527471D01*
X180014404Y-98527471D02*
X180014404Y-98765566D01*
X180014404Y-98765566D02*
X179966785Y-98956042D01*
X179966785Y-98956042D02*
X179919166Y-99051280D01*
X179919166Y-99051280D02*
X179871547Y-99098900D01*
X179871547Y-99098900D02*
X179776309Y-99146519D01*
X179776309Y-99146519D02*
X179681071Y-99146519D01*
X179681071Y-99146519D02*
X179585833Y-99098900D01*
X179585833Y-99098900D02*
X179538214Y-99051280D01*
X179538214Y-99051280D02*
X179490595Y-98956042D01*
X179490595Y-98956042D02*
X179442976Y-98765566D01*
X179442976Y-98765566D02*
X179442976Y-98527471D01*
X179442976Y-98527471D02*
X179490595Y-98336995D01*
X179490595Y-98336995D02*
X179538214Y-98241757D01*
X179538214Y-98241757D02*
X179585833Y-98194138D01*
X179585833Y-98194138D02*
X179681071Y-98146519D01*
X187126642Y-111103580D02*
X187079023Y-111151200D01*
X187079023Y-111151200D02*
X186936166Y-111198819D01*
X186936166Y-111198819D02*
X186840928Y-111198819D01*
X186840928Y-111198819D02*
X186698071Y-111151200D01*
X186698071Y-111151200D02*
X186602833Y-111055961D01*
X186602833Y-111055961D02*
X186555214Y-110960723D01*
X186555214Y-110960723D02*
X186507595Y-110770247D01*
X186507595Y-110770247D02*
X186507595Y-110627390D01*
X186507595Y-110627390D02*
X186555214Y-110436914D01*
X186555214Y-110436914D02*
X186602833Y-110341676D01*
X186602833Y-110341676D02*
X186698071Y-110246438D01*
X186698071Y-110246438D02*
X186840928Y-110198819D01*
X186840928Y-110198819D02*
X186936166Y-110198819D01*
X186936166Y-110198819D02*
X187079023Y-110246438D01*
X187079023Y-110246438D02*
X187126642Y-110294057D01*
X188079023Y-111198819D02*
X187507595Y-111198819D01*
X187793309Y-111198819D02*
X187793309Y-110198819D01*
X187793309Y-110198819D02*
X187698071Y-110341676D01*
X187698071Y-110341676D02*
X187602833Y-110436914D01*
X187602833Y-110436914D02*
X187507595Y-110484533D01*
X188698071Y-110198819D02*
X188793309Y-110198819D01*
X188793309Y-110198819D02*
X188888547Y-110246438D01*
X188888547Y-110246438D02*
X188936166Y-110294057D01*
X188936166Y-110294057D02*
X188983785Y-110389295D01*
X188983785Y-110389295D02*
X189031404Y-110579771D01*
X189031404Y-110579771D02*
X189031404Y-110817866D01*
X189031404Y-110817866D02*
X188983785Y-111008342D01*
X188983785Y-111008342D02*
X188936166Y-111103580D01*
X188936166Y-111103580D02*
X188888547Y-111151200D01*
X188888547Y-111151200D02*
X188793309Y-111198819D01*
X188793309Y-111198819D02*
X188698071Y-111198819D01*
X188698071Y-111198819D02*
X188602833Y-111151200D01*
X188602833Y-111151200D02*
X188555214Y-111103580D01*
X188555214Y-111103580D02*
X188507595Y-111008342D01*
X188507595Y-111008342D02*
X188459976Y-110817866D01*
X188459976Y-110817866D02*
X188459976Y-110579771D01*
X188459976Y-110579771D02*
X188507595Y-110389295D01*
X188507595Y-110389295D02*
X188555214Y-110294057D01*
X188555214Y-110294057D02*
X188602833Y-110246438D01*
X188602833Y-110246438D02*
X188698071Y-110198819D01*
X143774319Y-92222557D02*
X143298128Y-92555890D01*
X143774319Y-92793985D02*
X142774319Y-92793985D01*
X142774319Y-92793985D02*
X142774319Y-92413033D01*
X142774319Y-92413033D02*
X142821938Y-92317795D01*
X142821938Y-92317795D02*
X142869557Y-92270176D01*
X142869557Y-92270176D02*
X142964795Y-92222557D01*
X142964795Y-92222557D02*
X143107652Y-92222557D01*
X143107652Y-92222557D02*
X143202890Y-92270176D01*
X143202890Y-92270176D02*
X143250509Y-92317795D01*
X143250509Y-92317795D02*
X143298128Y-92413033D01*
X143298128Y-92413033D02*
X143298128Y-92793985D01*
X143774319Y-91270176D02*
X143774319Y-91841604D01*
X143774319Y-91555890D02*
X142774319Y-91555890D01*
X142774319Y-91555890D02*
X142917176Y-91651128D01*
X142917176Y-91651128D02*
X143012414Y-91746366D01*
X143012414Y-91746366D02*
X143060033Y-91841604D01*
X143107652Y-90413033D02*
X143774319Y-90413033D01*
X142726700Y-90651128D02*
X143440985Y-90889223D01*
X143440985Y-90889223D02*
X143440985Y-90270176D01*
X169013547Y-87986519D02*
X169204023Y-87986519D01*
X169204023Y-87986519D02*
X169299261Y-88034138D01*
X169299261Y-88034138D02*
X169394499Y-88129376D01*
X169394499Y-88129376D02*
X169442118Y-88319852D01*
X169442118Y-88319852D02*
X169442118Y-88653185D01*
X169442118Y-88653185D02*
X169394499Y-88843661D01*
X169394499Y-88843661D02*
X169299261Y-88938900D01*
X169299261Y-88938900D02*
X169204023Y-88986519D01*
X169204023Y-88986519D02*
X169013547Y-88986519D01*
X169013547Y-88986519D02*
X168918309Y-88938900D01*
X168918309Y-88938900D02*
X168823071Y-88843661D01*
X168823071Y-88843661D02*
X168775452Y-88653185D01*
X168775452Y-88653185D02*
X168775452Y-88319852D01*
X168775452Y-88319852D02*
X168823071Y-88129376D01*
X168823071Y-88129376D02*
X168918309Y-88034138D01*
X168918309Y-88034138D02*
X169013547Y-87986519D01*
X169870690Y-87986519D02*
X169870690Y-88796042D01*
X169870690Y-88796042D02*
X169918309Y-88891280D01*
X169918309Y-88891280D02*
X169965928Y-88938900D01*
X169965928Y-88938900D02*
X170061166Y-88986519D01*
X170061166Y-88986519D02*
X170251642Y-88986519D01*
X170251642Y-88986519D02*
X170346880Y-88938900D01*
X170346880Y-88938900D02*
X170394499Y-88891280D01*
X170394499Y-88891280D02*
X170442118Y-88796042D01*
X170442118Y-88796042D02*
X170442118Y-87986519D01*
X170775452Y-87986519D02*
X171346880Y-87986519D01*
X171061166Y-88986519D02*
X171061166Y-87986519D01*
X171680214Y-88986519D02*
X171680214Y-87986519D01*
X171680214Y-87986519D02*
X172061166Y-87986519D01*
X172061166Y-87986519D02*
X172156404Y-88034138D01*
X172156404Y-88034138D02*
X172204023Y-88081757D01*
X172204023Y-88081757D02*
X172251642Y-88176995D01*
X172251642Y-88176995D02*
X172251642Y-88319852D01*
X172251642Y-88319852D02*
X172204023Y-88415090D01*
X172204023Y-88415090D02*
X172156404Y-88462709D01*
X172156404Y-88462709D02*
X172061166Y-88510328D01*
X172061166Y-88510328D02*
X171680214Y-88510328D01*
X172680214Y-87986519D02*
X172680214Y-88796042D01*
X172680214Y-88796042D02*
X172727833Y-88891280D01*
X172727833Y-88891280D02*
X172775452Y-88938900D01*
X172775452Y-88938900D02*
X172870690Y-88986519D01*
X172870690Y-88986519D02*
X173061166Y-88986519D01*
X173061166Y-88986519D02*
X173156404Y-88938900D01*
X173156404Y-88938900D02*
X173204023Y-88891280D01*
X173204023Y-88891280D02*
X173251642Y-88796042D01*
X173251642Y-88796042D02*
X173251642Y-87986519D01*
X173584976Y-87986519D02*
X174156404Y-87986519D01*
X173870690Y-88986519D02*
X173870690Y-87986519D01*
X174442119Y-88938900D02*
X174584976Y-88986519D01*
X174584976Y-88986519D02*
X174823071Y-88986519D01*
X174823071Y-88986519D02*
X174918309Y-88938900D01*
X174918309Y-88938900D02*
X174965928Y-88891280D01*
X174965928Y-88891280D02*
X175013547Y-88796042D01*
X175013547Y-88796042D02*
X175013547Y-88700804D01*
X175013547Y-88700804D02*
X174965928Y-88605566D01*
X174965928Y-88605566D02*
X174918309Y-88557947D01*
X174918309Y-88557947D02*
X174823071Y-88510328D01*
X174823071Y-88510328D02*
X174632595Y-88462709D01*
X174632595Y-88462709D02*
X174537357Y-88415090D01*
X174537357Y-88415090D02*
X174489738Y-88367471D01*
X174489738Y-88367471D02*
X174442119Y-88272233D01*
X174442119Y-88272233D02*
X174442119Y-88176995D01*
X174442119Y-88176995D02*
X174489738Y-88081757D01*
X174489738Y-88081757D02*
X174537357Y-88034138D01*
X174537357Y-88034138D02*
X174632595Y-87986519D01*
X174632595Y-87986519D02*
X174870690Y-87986519D01*
X174870690Y-87986519D02*
X175013547Y-88034138D01*
X169272809Y-99351533D02*
X169320428Y-99237247D01*
X169320428Y-99237247D02*
X169368047Y-99199152D01*
X169368047Y-99199152D02*
X169463285Y-99161056D01*
X169463285Y-99161056D02*
X169606142Y-99161056D01*
X169606142Y-99161056D02*
X169701380Y-99199152D01*
X169701380Y-99199152D02*
X169749000Y-99237247D01*
X169749000Y-99237247D02*
X169796619Y-99313437D01*
X169796619Y-99313437D02*
X169796619Y-99618199D01*
X169796619Y-99618199D02*
X168796619Y-99618199D01*
X168796619Y-99618199D02*
X168796619Y-99351533D01*
X168796619Y-99351533D02*
X168844238Y-99275342D01*
X168844238Y-99275342D02*
X168891857Y-99237247D01*
X168891857Y-99237247D02*
X168987095Y-99199152D01*
X168987095Y-99199152D02*
X169082333Y-99199152D01*
X169082333Y-99199152D02*
X169177571Y-99237247D01*
X169177571Y-99237247D02*
X169225190Y-99275342D01*
X169225190Y-99275342D02*
X169272809Y-99351533D01*
X169272809Y-99351533D02*
X169272809Y-99618199D01*
X169796619Y-98818199D02*
X168796619Y-98818199D01*
X168796619Y-98818199D02*
X168796619Y-98513437D01*
X168796619Y-98513437D02*
X168844238Y-98437247D01*
X168844238Y-98437247D02*
X168891857Y-98399152D01*
X168891857Y-98399152D02*
X168987095Y-98361056D01*
X168987095Y-98361056D02*
X169129952Y-98361056D01*
X169129952Y-98361056D02*
X169225190Y-98399152D01*
X169225190Y-98399152D02*
X169272809Y-98437247D01*
X169272809Y-98437247D02*
X169320428Y-98513437D01*
X169320428Y-98513437D02*
X169320428Y-98818199D01*
X169796619Y-96418199D02*
X169796619Y-96799151D01*
X169796619Y-96799151D02*
X168796619Y-96799151D01*
X169796619Y-96151532D02*
X168796619Y-96151532D01*
X168796619Y-96151532D02*
X168796619Y-95846770D01*
X168796619Y-95846770D02*
X168844238Y-95770580D01*
X168844238Y-95770580D02*
X168891857Y-95732485D01*
X168891857Y-95732485D02*
X168987095Y-95694389D01*
X168987095Y-95694389D02*
X169129952Y-95694389D01*
X169129952Y-95694389D02*
X169225190Y-95732485D01*
X169225190Y-95732485D02*
X169272809Y-95770580D01*
X169272809Y-95770580D02*
X169320428Y-95846770D01*
X169320428Y-95846770D02*
X169320428Y-96151532D01*
X169796619Y-94742008D02*
X168796619Y-94742008D01*
X168796619Y-94742008D02*
X169510904Y-94475342D01*
X169510904Y-94475342D02*
X168796619Y-94208675D01*
X168796619Y-94208675D02*
X169796619Y-94208675D01*
X169796619Y-93827722D02*
X168796619Y-93827722D01*
X168796619Y-93522961D02*
X169796619Y-92989627D01*
X168796619Y-92989627D02*
X169796619Y-93522961D01*
X168844238Y-91656294D02*
X168796619Y-91732484D01*
X168796619Y-91732484D02*
X168796619Y-91846770D01*
X168796619Y-91846770D02*
X168844238Y-91961056D01*
X168844238Y-91961056D02*
X168939476Y-92037246D01*
X168939476Y-92037246D02*
X169034714Y-92075341D01*
X169034714Y-92075341D02*
X169225190Y-92113437D01*
X169225190Y-92113437D02*
X169368047Y-92113437D01*
X169368047Y-92113437D02*
X169558523Y-92075341D01*
X169558523Y-92075341D02*
X169653761Y-92037246D01*
X169653761Y-92037246D02*
X169749000Y-91961056D01*
X169749000Y-91961056D02*
X169796619Y-91846770D01*
X169796619Y-91846770D02*
X169796619Y-91770579D01*
X169796619Y-91770579D02*
X169749000Y-91656294D01*
X169749000Y-91656294D02*
X169701380Y-91618198D01*
X169701380Y-91618198D02*
X169368047Y-91618198D01*
X169368047Y-91618198D02*
X169368047Y-91770579D01*
X169796619Y-91275341D02*
X168796619Y-91275341D01*
X168796619Y-91275341D02*
X169796619Y-90818198D01*
X169796619Y-90818198D02*
X168796619Y-90818198D01*
X169796619Y-90437246D02*
X168796619Y-90437246D01*
X168796619Y-90437246D02*
X168796619Y-90246770D01*
X168796619Y-90246770D02*
X168844238Y-90132484D01*
X168844238Y-90132484D02*
X168939476Y-90056294D01*
X168939476Y-90056294D02*
X169034714Y-90018199D01*
X169034714Y-90018199D02*
X169225190Y-89980103D01*
X169225190Y-89980103D02*
X169368047Y-89980103D01*
X169368047Y-89980103D02*
X169558523Y-90018199D01*
X169558523Y-90018199D02*
X169653761Y-90056294D01*
X169653761Y-90056294D02*
X169749000Y-90132484D01*
X169749000Y-90132484D02*
X169796619Y-90246770D01*
X169796619Y-90246770D02*
X169796619Y-90437246D01*
X123454319Y-91746366D02*
X122978128Y-92079699D01*
X123454319Y-92317794D02*
X122454319Y-92317794D01*
X122454319Y-92317794D02*
X122454319Y-91936842D01*
X122454319Y-91936842D02*
X122501938Y-91841604D01*
X122501938Y-91841604D02*
X122549557Y-91793985D01*
X122549557Y-91793985D02*
X122644795Y-91746366D01*
X122644795Y-91746366D02*
X122787652Y-91746366D01*
X122787652Y-91746366D02*
X122882890Y-91793985D01*
X122882890Y-91793985D02*
X122930509Y-91841604D01*
X122930509Y-91841604D02*
X122978128Y-91936842D01*
X122978128Y-91936842D02*
X122978128Y-92317794D01*
X122882890Y-91174937D02*
X122835271Y-91270175D01*
X122835271Y-91270175D02*
X122787652Y-91317794D01*
X122787652Y-91317794D02*
X122692414Y-91365413D01*
X122692414Y-91365413D02*
X122644795Y-91365413D01*
X122644795Y-91365413D02*
X122549557Y-91317794D01*
X122549557Y-91317794D02*
X122501938Y-91270175D01*
X122501938Y-91270175D02*
X122454319Y-91174937D01*
X122454319Y-91174937D02*
X122454319Y-90984461D01*
X122454319Y-90984461D02*
X122501938Y-90889223D01*
X122501938Y-90889223D02*
X122549557Y-90841604D01*
X122549557Y-90841604D02*
X122644795Y-90793985D01*
X122644795Y-90793985D02*
X122692414Y-90793985D01*
X122692414Y-90793985D02*
X122787652Y-90841604D01*
X122787652Y-90841604D02*
X122835271Y-90889223D01*
X122835271Y-90889223D02*
X122882890Y-90984461D01*
X122882890Y-90984461D02*
X122882890Y-91174937D01*
X122882890Y-91174937D02*
X122930509Y-91270175D01*
X122930509Y-91270175D02*
X122978128Y-91317794D01*
X122978128Y-91317794D02*
X123073366Y-91365413D01*
X123073366Y-91365413D02*
X123263842Y-91365413D01*
X123263842Y-91365413D02*
X123359080Y-91317794D01*
X123359080Y-91317794D02*
X123406700Y-91270175D01*
X123406700Y-91270175D02*
X123454319Y-91174937D01*
X123454319Y-91174937D02*
X123454319Y-90984461D01*
X123454319Y-90984461D02*
X123406700Y-90889223D01*
X123406700Y-90889223D02*
X123359080Y-90841604D01*
X123359080Y-90841604D02*
X123263842Y-90793985D01*
X123263842Y-90793985D02*
X123073366Y-90793985D01*
X123073366Y-90793985D02*
X122978128Y-90841604D01*
X122978128Y-90841604D02*
X122930509Y-90889223D01*
X122930509Y-90889223D02*
X122882890Y-90984461D01*
X147584319Y-103017557D02*
X147108128Y-103350890D01*
X147584319Y-103588985D02*
X146584319Y-103588985D01*
X146584319Y-103588985D02*
X146584319Y-103208033D01*
X146584319Y-103208033D02*
X146631938Y-103112795D01*
X146631938Y-103112795D02*
X146679557Y-103065176D01*
X146679557Y-103065176D02*
X146774795Y-103017557D01*
X146774795Y-103017557D02*
X146917652Y-103017557D01*
X146917652Y-103017557D02*
X147012890Y-103065176D01*
X147012890Y-103065176D02*
X147060509Y-103112795D01*
X147060509Y-103112795D02*
X147108128Y-103208033D01*
X147108128Y-103208033D02*
X147108128Y-103588985D01*
X147584319Y-102065176D02*
X147584319Y-102636604D01*
X147584319Y-102350890D02*
X146584319Y-102350890D01*
X146584319Y-102350890D02*
X146727176Y-102446128D01*
X146727176Y-102446128D02*
X146822414Y-102541366D01*
X146822414Y-102541366D02*
X146870033Y-102636604D01*
X146584319Y-101446128D02*
X146584319Y-101350890D01*
X146584319Y-101350890D02*
X146631938Y-101255652D01*
X146631938Y-101255652D02*
X146679557Y-101208033D01*
X146679557Y-101208033D02*
X146774795Y-101160414D01*
X146774795Y-101160414D02*
X146965271Y-101112795D01*
X146965271Y-101112795D02*
X147203366Y-101112795D01*
X147203366Y-101112795D02*
X147393842Y-101160414D01*
X147393842Y-101160414D02*
X147489080Y-101208033D01*
X147489080Y-101208033D02*
X147536700Y-101255652D01*
X147536700Y-101255652D02*
X147584319Y-101350890D01*
X147584319Y-101350890D02*
X147584319Y-101446128D01*
X147584319Y-101446128D02*
X147536700Y-101541366D01*
X147536700Y-101541366D02*
X147489080Y-101588985D01*
X147489080Y-101588985D02*
X147393842Y-101636604D01*
X147393842Y-101636604D02*
X147203366Y-101684223D01*
X147203366Y-101684223D02*
X146965271Y-101684223D01*
X146965271Y-101684223D02*
X146774795Y-101636604D01*
X146774795Y-101636604D02*
X146679557Y-101588985D01*
X146679557Y-101588985D02*
X146631938Y-101541366D01*
X146631938Y-101541366D02*
X146584319Y-101446128D01*
X138694319Y-113812557D02*
X138218128Y-114145890D01*
X138694319Y-114383985D02*
X137694319Y-114383985D01*
X137694319Y-114383985D02*
X137694319Y-114003033D01*
X137694319Y-114003033D02*
X137741938Y-113907795D01*
X137741938Y-113907795D02*
X137789557Y-113860176D01*
X137789557Y-113860176D02*
X137884795Y-113812557D01*
X137884795Y-113812557D02*
X138027652Y-113812557D01*
X138027652Y-113812557D02*
X138122890Y-113860176D01*
X138122890Y-113860176D02*
X138170509Y-113907795D01*
X138170509Y-113907795D02*
X138218128Y-114003033D01*
X138218128Y-114003033D02*
X138218128Y-114383985D01*
X138694319Y-112860176D02*
X138694319Y-113431604D01*
X138694319Y-113145890D02*
X137694319Y-113145890D01*
X137694319Y-113145890D02*
X137837176Y-113241128D01*
X137837176Y-113241128D02*
X137932414Y-113336366D01*
X137932414Y-113336366D02*
X137980033Y-113431604D01*
X138694319Y-111907795D02*
X138694319Y-112479223D01*
X138694319Y-112193509D02*
X137694319Y-112193509D01*
X137694319Y-112193509D02*
X137837176Y-112288747D01*
X137837176Y-112288747D02*
X137932414Y-112383985D01*
X137932414Y-112383985D02*
X137980033Y-112479223D01*
X136090819Y-113577666D02*
X135614628Y-113910999D01*
X136090819Y-114149094D02*
X135090819Y-114149094D01*
X135090819Y-114149094D02*
X135090819Y-113768142D01*
X135090819Y-113768142D02*
X135138438Y-113672904D01*
X135138438Y-113672904D02*
X135186057Y-113625285D01*
X135186057Y-113625285D02*
X135281295Y-113577666D01*
X135281295Y-113577666D02*
X135424152Y-113577666D01*
X135424152Y-113577666D02*
X135519390Y-113625285D01*
X135519390Y-113625285D02*
X135567009Y-113672904D01*
X135567009Y-113672904D02*
X135614628Y-113768142D01*
X135614628Y-113768142D02*
X135614628Y-114149094D01*
X135424152Y-112720523D02*
X136090819Y-112720523D01*
X135043200Y-112958618D02*
X135757485Y-113196713D01*
X135757485Y-113196713D02*
X135757485Y-112577666D01*
X177482595Y-112751519D02*
X177482595Y-113561042D01*
X177482595Y-113561042D02*
X177530214Y-113656280D01*
X177530214Y-113656280D02*
X177577833Y-113703900D01*
X177577833Y-113703900D02*
X177673071Y-113751519D01*
X177673071Y-113751519D02*
X177863547Y-113751519D01*
X177863547Y-113751519D02*
X177958785Y-113703900D01*
X177958785Y-113703900D02*
X178006404Y-113656280D01*
X178006404Y-113656280D02*
X178054023Y-113561042D01*
X178054023Y-113561042D02*
X178054023Y-112751519D01*
X178958785Y-113084852D02*
X178958785Y-113751519D01*
X178720690Y-112703900D02*
X178482595Y-113418185D01*
X178482595Y-113418185D02*
X179101642Y-113418185D01*
X176138152Y-102604219D02*
X176709580Y-102604219D01*
X176423866Y-103604219D02*
X176423866Y-102604219D01*
X177519104Y-103604219D02*
X177042914Y-103604219D01*
X177042914Y-103604219D02*
X177042914Y-102604219D01*
X178042914Y-102604219D02*
X178138152Y-102604219D01*
X178138152Y-102604219D02*
X178233390Y-102651838D01*
X178233390Y-102651838D02*
X178281009Y-102699457D01*
X178281009Y-102699457D02*
X178328628Y-102794695D01*
X178328628Y-102794695D02*
X178376247Y-102985171D01*
X178376247Y-102985171D02*
X178376247Y-103223266D01*
X178376247Y-103223266D02*
X178328628Y-103413742D01*
X178328628Y-103413742D02*
X178281009Y-103508980D01*
X178281009Y-103508980D02*
X178233390Y-103556600D01*
X178233390Y-103556600D02*
X178138152Y-103604219D01*
X178138152Y-103604219D02*
X178042914Y-103604219D01*
X178042914Y-103604219D02*
X177947676Y-103556600D01*
X177947676Y-103556600D02*
X177900057Y-103508980D01*
X177900057Y-103508980D02*
X177852438Y-103413742D01*
X177852438Y-103413742D02*
X177804819Y-103223266D01*
X177804819Y-103223266D02*
X177804819Y-102985171D01*
X177804819Y-102985171D02*
X177852438Y-102794695D01*
X177852438Y-102794695D02*
X177900057Y-102699457D01*
X177900057Y-102699457D02*
X177947676Y-102651838D01*
X177947676Y-102651838D02*
X178042914Y-102604219D01*
X178709581Y-102604219D02*
X179376247Y-102604219D01*
X179376247Y-102604219D02*
X178947676Y-103604219D01*
X180185771Y-102937552D02*
X180185771Y-103604219D01*
X179947676Y-102556600D02*
X179709581Y-103270885D01*
X179709581Y-103270885D02*
X180328628Y-103270885D01*
X148553357Y-109039819D02*
X148220024Y-108563628D01*
X147981929Y-109039819D02*
X147981929Y-108039819D01*
X147981929Y-108039819D02*
X148362881Y-108039819D01*
X148362881Y-108039819D02*
X148458119Y-108087438D01*
X148458119Y-108087438D02*
X148505738Y-108135057D01*
X148505738Y-108135057D02*
X148553357Y-108230295D01*
X148553357Y-108230295D02*
X148553357Y-108373152D01*
X148553357Y-108373152D02*
X148505738Y-108468390D01*
X148505738Y-108468390D02*
X148458119Y-108516009D01*
X148458119Y-108516009D02*
X148362881Y-108563628D01*
X148362881Y-108563628D02*
X147981929Y-108563628D01*
X148981929Y-108516009D02*
X149315262Y-108516009D01*
X149458119Y-109039819D02*
X148981929Y-109039819D01*
X148981929Y-109039819D02*
X148981929Y-108039819D01*
X148981929Y-108039819D02*
X149458119Y-108039819D01*
X149839072Y-108992200D02*
X149981929Y-109039819D01*
X149981929Y-109039819D02*
X150220024Y-109039819D01*
X150220024Y-109039819D02*
X150315262Y-108992200D01*
X150315262Y-108992200D02*
X150362881Y-108944580D01*
X150362881Y-108944580D02*
X150410500Y-108849342D01*
X150410500Y-108849342D02*
X150410500Y-108754104D01*
X150410500Y-108754104D02*
X150362881Y-108658866D01*
X150362881Y-108658866D02*
X150315262Y-108611247D01*
X150315262Y-108611247D02*
X150220024Y-108563628D01*
X150220024Y-108563628D02*
X150029548Y-108516009D01*
X150029548Y-108516009D02*
X149934310Y-108468390D01*
X149934310Y-108468390D02*
X149886691Y-108420771D01*
X149886691Y-108420771D02*
X149839072Y-108325533D01*
X149839072Y-108325533D02*
X149839072Y-108230295D01*
X149839072Y-108230295D02*
X149886691Y-108135057D01*
X149886691Y-108135057D02*
X149934310Y-108087438D01*
X149934310Y-108087438D02*
X150029548Y-108039819D01*
X150029548Y-108039819D02*
X150267643Y-108039819D01*
X150267643Y-108039819D02*
X150410500Y-108087438D01*
X150839072Y-108944580D02*
X150886691Y-108992200D01*
X150886691Y-108992200D02*
X150839072Y-109039819D01*
X150839072Y-109039819D02*
X150791453Y-108992200D01*
X150791453Y-108992200D02*
X150839072Y-108944580D01*
X150839072Y-108944580D02*
X150839072Y-109039819D01*
X146372938Y-117776190D02*
X146325319Y-117871428D01*
X146325319Y-117871428D02*
X146325319Y-118014285D01*
X146325319Y-118014285D02*
X146372938Y-118157142D01*
X146372938Y-118157142D02*
X146468176Y-118252380D01*
X146468176Y-118252380D02*
X146563414Y-118299999D01*
X146563414Y-118299999D02*
X146753890Y-118347618D01*
X146753890Y-118347618D02*
X146896747Y-118347618D01*
X146896747Y-118347618D02*
X147087223Y-118299999D01*
X147087223Y-118299999D02*
X147182461Y-118252380D01*
X147182461Y-118252380D02*
X147277700Y-118157142D01*
X147277700Y-118157142D02*
X147325319Y-118014285D01*
X147325319Y-118014285D02*
X147325319Y-117919047D01*
X147325319Y-117919047D02*
X147277700Y-117776190D01*
X147277700Y-117776190D02*
X147230080Y-117728571D01*
X147230080Y-117728571D02*
X146896747Y-117728571D01*
X146896747Y-117728571D02*
X146896747Y-117919047D01*
X147325319Y-117299999D02*
X146325319Y-117299999D01*
X146325319Y-117299999D02*
X147325319Y-116728571D01*
X147325319Y-116728571D02*
X146325319Y-116728571D01*
X147325319Y-116252380D02*
X146325319Y-116252380D01*
X146325319Y-116252380D02*
X146325319Y-116014285D01*
X146325319Y-116014285D02*
X146372938Y-115871428D01*
X146372938Y-115871428D02*
X146468176Y-115776190D01*
X146468176Y-115776190D02*
X146563414Y-115728571D01*
X146563414Y-115728571D02*
X146753890Y-115680952D01*
X146753890Y-115680952D02*
X146896747Y-115680952D01*
X146896747Y-115680952D02*
X147087223Y-115728571D01*
X147087223Y-115728571D02*
X147182461Y-115776190D01*
X147182461Y-115776190D02*
X147277700Y-115871428D01*
X147277700Y-115871428D02*
X147325319Y-116014285D01*
X147325319Y-116014285D02*
X147325319Y-116252380D01*
X147325319Y-113919047D02*
X146849128Y-114252380D01*
X147325319Y-114490475D02*
X146325319Y-114490475D01*
X146325319Y-114490475D02*
X146325319Y-114109523D01*
X146325319Y-114109523D02*
X146372938Y-114014285D01*
X146372938Y-114014285D02*
X146420557Y-113966666D01*
X146420557Y-113966666D02*
X146515795Y-113919047D01*
X146515795Y-113919047D02*
X146658652Y-113919047D01*
X146658652Y-113919047D02*
X146753890Y-113966666D01*
X146753890Y-113966666D02*
X146801509Y-114014285D01*
X146801509Y-114014285D02*
X146849128Y-114109523D01*
X146849128Y-114109523D02*
X146849128Y-114490475D01*
X146420557Y-113538094D02*
X146372938Y-113490475D01*
X146372938Y-113490475D02*
X146325319Y-113395237D01*
X146325319Y-113395237D02*
X146325319Y-113157142D01*
X146325319Y-113157142D02*
X146372938Y-113061904D01*
X146372938Y-113061904D02*
X146420557Y-113014285D01*
X146420557Y-113014285D02*
X146515795Y-112966666D01*
X146515795Y-112966666D02*
X146611033Y-112966666D01*
X146611033Y-112966666D02*
X146753890Y-113014285D01*
X146753890Y-113014285D02*
X147325319Y-113585713D01*
X147325319Y-113585713D02*
X147325319Y-112966666D01*
X147325319Y-111204761D02*
X146849128Y-111538094D01*
X147325319Y-111776189D02*
X146325319Y-111776189D01*
X146325319Y-111776189D02*
X146325319Y-111395237D01*
X146325319Y-111395237D02*
X146372938Y-111299999D01*
X146372938Y-111299999D02*
X146420557Y-111252380D01*
X146420557Y-111252380D02*
X146515795Y-111204761D01*
X146515795Y-111204761D02*
X146658652Y-111204761D01*
X146658652Y-111204761D02*
X146753890Y-111252380D01*
X146753890Y-111252380D02*
X146801509Y-111299999D01*
X146801509Y-111299999D02*
X146849128Y-111395237D01*
X146849128Y-111395237D02*
X146849128Y-111776189D01*
X147325319Y-110252380D02*
X147325319Y-110823808D01*
X147325319Y-110538094D02*
X146325319Y-110538094D01*
X146325319Y-110538094D02*
X146468176Y-110633332D01*
X146468176Y-110633332D02*
X146563414Y-110728570D01*
X146563414Y-110728570D02*
X146611033Y-110823808D01*
X154622595Y-101956519D02*
X154622595Y-102766042D01*
X154622595Y-102766042D02*
X154670214Y-102861280D01*
X154670214Y-102861280D02*
X154717833Y-102908900D01*
X154717833Y-102908900D02*
X154813071Y-102956519D01*
X154813071Y-102956519D02*
X155003547Y-102956519D01*
X155003547Y-102956519D02*
X155098785Y-102908900D01*
X155098785Y-102908900D02*
X155146404Y-102861280D01*
X155146404Y-102861280D02*
X155194023Y-102766042D01*
X155194023Y-102766042D02*
X155194023Y-101956519D01*
X155574976Y-101956519D02*
X156194023Y-101956519D01*
X156194023Y-101956519D02*
X155860690Y-102337471D01*
X155860690Y-102337471D02*
X156003547Y-102337471D01*
X156003547Y-102337471D02*
X156098785Y-102385090D01*
X156098785Y-102385090D02*
X156146404Y-102432709D01*
X156146404Y-102432709D02*
X156194023Y-102527947D01*
X156194023Y-102527947D02*
X156194023Y-102766042D01*
X156194023Y-102766042D02*
X156146404Y-102861280D01*
X156146404Y-102861280D02*
X156098785Y-102908900D01*
X156098785Y-102908900D02*
X156003547Y-102956519D01*
X156003547Y-102956519D02*
X155717833Y-102956519D01*
X155717833Y-102956519D02*
X155622595Y-102908900D01*
X155622595Y-102908900D02*
X155574976Y-102861280D01*
X149489319Y-105239794D02*
X148489319Y-105239794D01*
X148489319Y-105239794D02*
X149203604Y-104906461D01*
X149203604Y-104906461D02*
X148489319Y-104573128D01*
X148489319Y-104573128D02*
X149489319Y-104573128D01*
X149394080Y-103525509D02*
X149441700Y-103573128D01*
X149441700Y-103573128D02*
X149489319Y-103715985D01*
X149489319Y-103715985D02*
X149489319Y-103811223D01*
X149489319Y-103811223D02*
X149441700Y-103954080D01*
X149441700Y-103954080D02*
X149346461Y-104049318D01*
X149346461Y-104049318D02*
X149251223Y-104096937D01*
X149251223Y-104096937D02*
X149060747Y-104144556D01*
X149060747Y-104144556D02*
X148917890Y-104144556D01*
X148917890Y-104144556D02*
X148727414Y-104096937D01*
X148727414Y-104096937D02*
X148632176Y-104049318D01*
X148632176Y-104049318D02*
X148536938Y-103954080D01*
X148536938Y-103954080D02*
X148489319Y-103811223D01*
X148489319Y-103811223D02*
X148489319Y-103715985D01*
X148489319Y-103715985D02*
X148536938Y-103573128D01*
X148536938Y-103573128D02*
X148584557Y-103525509D01*
X149489319Y-102573128D02*
X149489319Y-103144556D01*
X149489319Y-102858842D02*
X148489319Y-102858842D01*
X148489319Y-102858842D02*
X148632176Y-102954080D01*
X148632176Y-102954080D02*
X148727414Y-103049318D01*
X148727414Y-103049318D02*
X148775033Y-103144556D01*
X148489319Y-102239794D02*
X148489319Y-101573128D01*
X148489319Y-101573128D02*
X149489319Y-102001699D01*
X148489319Y-101287413D02*
X148489319Y-100620747D01*
X148489319Y-100620747D02*
X149489319Y-101049318D01*
X148489319Y-99811223D02*
X148489319Y-100001699D01*
X148489319Y-100001699D02*
X148536938Y-100096937D01*
X148536938Y-100096937D02*
X148584557Y-100144556D01*
X148584557Y-100144556D02*
X148727414Y-100239794D01*
X148727414Y-100239794D02*
X148917890Y-100287413D01*
X148917890Y-100287413D02*
X149298842Y-100287413D01*
X149298842Y-100287413D02*
X149394080Y-100239794D01*
X149394080Y-100239794D02*
X149441700Y-100192175D01*
X149441700Y-100192175D02*
X149489319Y-100096937D01*
X149489319Y-100096937D02*
X149489319Y-99906461D01*
X149489319Y-99906461D02*
X149441700Y-99811223D01*
X149441700Y-99811223D02*
X149394080Y-99763604D01*
X149394080Y-99763604D02*
X149298842Y-99715985D01*
X149298842Y-99715985D02*
X149060747Y-99715985D01*
X149060747Y-99715985D02*
X148965509Y-99763604D01*
X148965509Y-99763604D02*
X148917890Y-99811223D01*
X148917890Y-99811223D02*
X148870271Y-99906461D01*
X148870271Y-99906461D02*
X148870271Y-100096937D01*
X148870271Y-100096937D02*
X148917890Y-100192175D01*
X148917890Y-100192175D02*
X148965509Y-100239794D01*
X148965509Y-100239794D02*
X149060747Y-100287413D01*
X130524261Y-88319757D02*
X130429023Y-88272138D01*
X130429023Y-88272138D02*
X130333785Y-88176900D01*
X130333785Y-88176900D02*
X130190928Y-88034042D01*
X130190928Y-88034042D02*
X130095690Y-87986423D01*
X130095690Y-87986423D02*
X130000452Y-87986423D01*
X130048071Y-88224519D02*
X129952833Y-88176900D01*
X129952833Y-88176900D02*
X129857595Y-88081661D01*
X129857595Y-88081661D02*
X129809976Y-87891185D01*
X129809976Y-87891185D02*
X129809976Y-87557852D01*
X129809976Y-87557852D02*
X129857595Y-87367376D01*
X129857595Y-87367376D02*
X129952833Y-87272138D01*
X129952833Y-87272138D02*
X130048071Y-87224519D01*
X130048071Y-87224519D02*
X130238547Y-87224519D01*
X130238547Y-87224519D02*
X130333785Y-87272138D01*
X130333785Y-87272138D02*
X130429023Y-87367376D01*
X130429023Y-87367376D02*
X130476642Y-87557852D01*
X130476642Y-87557852D02*
X130476642Y-87891185D01*
X130476642Y-87891185D02*
X130429023Y-88081661D01*
X130429023Y-88081661D02*
X130333785Y-88176900D01*
X130333785Y-88176900D02*
X130238547Y-88224519D01*
X130238547Y-88224519D02*
X130048071Y-88224519D01*
X131429023Y-88224519D02*
X130857595Y-88224519D01*
X131143309Y-88224519D02*
X131143309Y-87224519D01*
X131143309Y-87224519D02*
X131048071Y-87367376D01*
X131048071Y-87367376D02*
X130952833Y-87462614D01*
X130952833Y-87462614D02*
X130857595Y-87510233D01*
X127905214Y-94177757D02*
X127952833Y-94130138D01*
X127952833Y-94130138D02*
X128048071Y-94082519D01*
X128048071Y-94082519D02*
X128286166Y-94082519D01*
X128286166Y-94082519D02*
X128381404Y-94130138D01*
X128381404Y-94130138D02*
X128429023Y-94177757D01*
X128429023Y-94177757D02*
X128476642Y-94272995D01*
X128476642Y-94272995D02*
X128476642Y-94368233D01*
X128476642Y-94368233D02*
X128429023Y-94511090D01*
X128429023Y-94511090D02*
X127857595Y-95082519D01*
X127857595Y-95082519D02*
X128476642Y-95082519D01*
X128905214Y-95082519D02*
X128905214Y-94082519D01*
X128905214Y-94082519D02*
X129476642Y-95082519D01*
X129476642Y-95082519D02*
X129476642Y-94082519D01*
X129857595Y-94082519D02*
X130476642Y-94082519D01*
X130476642Y-94082519D02*
X130143309Y-94463471D01*
X130143309Y-94463471D02*
X130286166Y-94463471D01*
X130286166Y-94463471D02*
X130381404Y-94511090D01*
X130381404Y-94511090D02*
X130429023Y-94558709D01*
X130429023Y-94558709D02*
X130476642Y-94653947D01*
X130476642Y-94653947D02*
X130476642Y-94892042D01*
X130476642Y-94892042D02*
X130429023Y-94987280D01*
X130429023Y-94987280D02*
X130381404Y-95034900D01*
X130381404Y-95034900D02*
X130286166Y-95082519D01*
X130286166Y-95082519D02*
X130000452Y-95082519D01*
X130000452Y-95082519D02*
X129905214Y-95034900D01*
X129905214Y-95034900D02*
X129857595Y-94987280D01*
X130952833Y-95082519D02*
X131143309Y-95082519D01*
X131143309Y-95082519D02*
X131238547Y-95034900D01*
X131238547Y-95034900D02*
X131286166Y-94987280D01*
X131286166Y-94987280D02*
X131381404Y-94844423D01*
X131381404Y-94844423D02*
X131429023Y-94653947D01*
X131429023Y-94653947D02*
X131429023Y-94272995D01*
X131429023Y-94272995D02*
X131381404Y-94177757D01*
X131381404Y-94177757D02*
X131333785Y-94130138D01*
X131333785Y-94130138D02*
X131238547Y-94082519D01*
X131238547Y-94082519D02*
X131048071Y-94082519D01*
X131048071Y-94082519D02*
X130952833Y-94130138D01*
X130952833Y-94130138D02*
X130905214Y-94177757D01*
X130905214Y-94177757D02*
X130857595Y-94272995D01*
X130857595Y-94272995D02*
X130857595Y-94511090D01*
X130857595Y-94511090D02*
X130905214Y-94606328D01*
X130905214Y-94606328D02*
X130952833Y-94653947D01*
X130952833Y-94653947D02*
X131048071Y-94701566D01*
X131048071Y-94701566D02*
X131238547Y-94701566D01*
X131238547Y-94701566D02*
X131333785Y-94653947D01*
X131333785Y-94653947D02*
X131381404Y-94606328D01*
X131381404Y-94606328D02*
X131429023Y-94511090D01*
X132048071Y-94082519D02*
X132143309Y-94082519D01*
X132143309Y-94082519D02*
X132238547Y-94130138D01*
X132238547Y-94130138D02*
X132286166Y-94177757D01*
X132286166Y-94177757D02*
X132333785Y-94272995D01*
X132333785Y-94272995D02*
X132381404Y-94463471D01*
X132381404Y-94463471D02*
X132381404Y-94701566D01*
X132381404Y-94701566D02*
X132333785Y-94892042D01*
X132333785Y-94892042D02*
X132286166Y-94987280D01*
X132286166Y-94987280D02*
X132238547Y-95034900D01*
X132238547Y-95034900D02*
X132143309Y-95082519D01*
X132143309Y-95082519D02*
X132048071Y-95082519D01*
X132048071Y-95082519D02*
X131952833Y-95034900D01*
X131952833Y-95034900D02*
X131905214Y-94987280D01*
X131905214Y-94987280D02*
X131857595Y-94892042D01*
X131857595Y-94892042D02*
X131809976Y-94701566D01*
X131809976Y-94701566D02*
X131809976Y-94463471D01*
X131809976Y-94463471D02*
X131857595Y-94272995D01*
X131857595Y-94272995D02*
X131905214Y-94177757D01*
X131905214Y-94177757D02*
X131952833Y-94130138D01*
X131952833Y-94130138D02*
X132048071Y-94082519D01*
X133238547Y-94415852D02*
X133238547Y-95082519D01*
X133000452Y-94034900D02*
X132762357Y-94749185D01*
X132762357Y-94749185D02*
X133381404Y-94749185D01*
X100973095Y-111916380D02*
X100925476Y-111964000D01*
X100925476Y-111964000D02*
X100782619Y-112011619D01*
X100782619Y-112011619D02*
X100687381Y-112011619D01*
X100687381Y-112011619D02*
X100544524Y-111964000D01*
X100544524Y-111964000D02*
X100449286Y-111868761D01*
X100449286Y-111868761D02*
X100401667Y-111773523D01*
X100401667Y-111773523D02*
X100354048Y-111583047D01*
X100354048Y-111583047D02*
X100354048Y-111440190D01*
X100354048Y-111440190D02*
X100401667Y-111249714D01*
X100401667Y-111249714D02*
X100449286Y-111154476D01*
X100449286Y-111154476D02*
X100544524Y-111059238D01*
X100544524Y-111059238D02*
X100687381Y-111011619D01*
X100687381Y-111011619D02*
X100782619Y-111011619D01*
X100782619Y-111011619D02*
X100925476Y-111059238D01*
X100925476Y-111059238D02*
X100973095Y-111106857D01*
X101258810Y-111011619D02*
X101592143Y-112011619D01*
X101592143Y-112011619D02*
X101925476Y-111011619D01*
X103020715Y-112011619D02*
X103020715Y-111011619D01*
X103496905Y-112011619D02*
X103496905Y-111011619D01*
X103496905Y-111011619D02*
X104068333Y-112011619D01*
X104068333Y-112011619D02*
X104068333Y-111011619D01*
X99172038Y-109909665D02*
X99124419Y-109976332D01*
X99124419Y-109976332D02*
X99124419Y-110076332D01*
X99124419Y-110076332D02*
X99172038Y-110176332D01*
X99172038Y-110176332D02*
X99267276Y-110242999D01*
X99267276Y-110242999D02*
X99362514Y-110276332D01*
X99362514Y-110276332D02*
X99552990Y-110309665D01*
X99552990Y-110309665D02*
X99695847Y-110309665D01*
X99695847Y-110309665D02*
X99886323Y-110276332D01*
X99886323Y-110276332D02*
X99981561Y-110242999D01*
X99981561Y-110242999D02*
X100076800Y-110176332D01*
X100076800Y-110176332D02*
X100124419Y-110076332D01*
X100124419Y-110076332D02*
X100124419Y-110009665D01*
X100124419Y-110009665D02*
X100076800Y-109909665D01*
X100076800Y-109909665D02*
X100029180Y-109876332D01*
X100029180Y-109876332D02*
X99695847Y-109876332D01*
X99695847Y-109876332D02*
X99695847Y-110009665D01*
X100124419Y-109576332D02*
X99124419Y-109576332D01*
X99124419Y-109576332D02*
X100124419Y-109176332D01*
X100124419Y-109176332D02*
X99124419Y-109176332D01*
X100124419Y-108842999D02*
X99124419Y-108842999D01*
X99124419Y-108842999D02*
X99124419Y-108676332D01*
X99124419Y-108676332D02*
X99172038Y-108576332D01*
X99172038Y-108576332D02*
X99267276Y-108509666D01*
X99267276Y-108509666D02*
X99362514Y-108476332D01*
X99362514Y-108476332D02*
X99552990Y-108442999D01*
X99552990Y-108442999D02*
X99695847Y-108442999D01*
X99695847Y-108442999D02*
X99886323Y-108476332D01*
X99886323Y-108476332D02*
X99981561Y-108509666D01*
X99981561Y-108509666D02*
X100076800Y-108576332D01*
X100076800Y-108576332D02*
X100124419Y-108676332D01*
X100124419Y-108676332D02*
X100124419Y-108842999D01*
X100029180Y-107209666D02*
X100076800Y-107242999D01*
X100076800Y-107242999D02*
X100124419Y-107342999D01*
X100124419Y-107342999D02*
X100124419Y-107409666D01*
X100124419Y-107409666D02*
X100076800Y-107509666D01*
X100076800Y-107509666D02*
X99981561Y-107576333D01*
X99981561Y-107576333D02*
X99886323Y-107609666D01*
X99886323Y-107609666D02*
X99695847Y-107642999D01*
X99695847Y-107642999D02*
X99552990Y-107642999D01*
X99552990Y-107642999D02*
X99362514Y-107609666D01*
X99362514Y-107609666D02*
X99267276Y-107576333D01*
X99267276Y-107576333D02*
X99172038Y-107509666D01*
X99172038Y-107509666D02*
X99124419Y-107409666D01*
X99124419Y-107409666D02*
X99124419Y-107342999D01*
X99124419Y-107342999D02*
X99172038Y-107242999D01*
X99172038Y-107242999D02*
X99219657Y-107209666D01*
X99124419Y-107009666D02*
X100124419Y-106776333D01*
X100124419Y-106776333D02*
X99124419Y-106542999D01*
X99219657Y-106342999D02*
X99172038Y-106309666D01*
X99172038Y-106309666D02*
X99124419Y-106242999D01*
X99124419Y-106242999D02*
X99124419Y-106076333D01*
X99124419Y-106076333D02*
X99172038Y-106009666D01*
X99172038Y-106009666D02*
X99219657Y-105976333D01*
X99219657Y-105976333D02*
X99314895Y-105942999D01*
X99314895Y-105942999D02*
X99410133Y-105942999D01*
X99410133Y-105942999D02*
X99552990Y-105976333D01*
X99552990Y-105976333D02*
X100124419Y-106376333D01*
X100124419Y-106376333D02*
X100124419Y-105942999D01*
X99600609Y-104876333D02*
X99600609Y-105109666D01*
X100124419Y-105109666D02*
X99124419Y-105109666D01*
X99124419Y-105109666D02*
X99124419Y-104776333D01*
X100124419Y-104109666D02*
X99648228Y-104342999D01*
X100124419Y-104509666D02*
X99124419Y-104509666D01*
X99124419Y-104509666D02*
X99124419Y-104242999D01*
X99124419Y-104242999D02*
X99172038Y-104176333D01*
X99172038Y-104176333D02*
X99219657Y-104142999D01*
X99219657Y-104142999D02*
X99314895Y-104109666D01*
X99314895Y-104109666D02*
X99457752Y-104109666D01*
X99457752Y-104109666D02*
X99552990Y-104142999D01*
X99552990Y-104142999D02*
X99600609Y-104176333D01*
X99600609Y-104176333D02*
X99648228Y-104242999D01*
X99648228Y-104242999D02*
X99648228Y-104509666D01*
X100219657Y-103342999D02*
X100172038Y-103409666D01*
X100172038Y-103409666D02*
X100076800Y-103476333D01*
X100076800Y-103476333D02*
X99933942Y-103576333D01*
X99933942Y-103576333D02*
X99886323Y-103642999D01*
X99886323Y-103642999D02*
X99886323Y-103709666D01*
X100124419Y-103676333D02*
X100076800Y-103742999D01*
X100076800Y-103742999D02*
X99981561Y-103809666D01*
X99981561Y-103809666D02*
X99791085Y-103842999D01*
X99791085Y-103842999D02*
X99457752Y-103842999D01*
X99457752Y-103842999D02*
X99267276Y-103809666D01*
X99267276Y-103809666D02*
X99172038Y-103742999D01*
X99172038Y-103742999D02*
X99124419Y-103676333D01*
X99124419Y-103676333D02*
X99124419Y-103542999D01*
X99124419Y-103542999D02*
X99172038Y-103476333D01*
X99172038Y-103476333D02*
X99267276Y-103409666D01*
X99267276Y-103409666D02*
X99457752Y-103376333D01*
X99457752Y-103376333D02*
X99791085Y-103376333D01*
X99791085Y-103376333D02*
X99981561Y-103409666D01*
X99981561Y-103409666D02*
X100076800Y-103476333D01*
X100076800Y-103476333D02*
X100124419Y-103542999D01*
X100124419Y-103542999D02*
X100124419Y-103676333D01*
X100029180Y-102143000D02*
X100076800Y-102176333D01*
X100076800Y-102176333D02*
X100124419Y-102276333D01*
X100124419Y-102276333D02*
X100124419Y-102343000D01*
X100124419Y-102343000D02*
X100076800Y-102443000D01*
X100076800Y-102443000D02*
X99981561Y-102509667D01*
X99981561Y-102509667D02*
X99886323Y-102543000D01*
X99886323Y-102543000D02*
X99695847Y-102576333D01*
X99695847Y-102576333D02*
X99552990Y-102576333D01*
X99552990Y-102576333D02*
X99362514Y-102543000D01*
X99362514Y-102543000D02*
X99267276Y-102509667D01*
X99267276Y-102509667D02*
X99172038Y-102443000D01*
X99172038Y-102443000D02*
X99124419Y-102343000D01*
X99124419Y-102343000D02*
X99124419Y-102276333D01*
X99124419Y-102276333D02*
X99172038Y-102176333D01*
X99172038Y-102176333D02*
X99219657Y-102143000D01*
X99124419Y-101943000D02*
X100124419Y-101709667D01*
X100124419Y-101709667D02*
X99124419Y-101476333D01*
X100124419Y-100876333D02*
X100124419Y-101276333D01*
X100124419Y-101076333D02*
X99124419Y-101076333D01*
X99124419Y-101076333D02*
X99267276Y-101143000D01*
X99267276Y-101143000D02*
X99362514Y-101209667D01*
X99362514Y-101209667D02*
X99410133Y-101276333D01*
X100124419Y-100576333D02*
X99124419Y-100576333D01*
X99505371Y-100576333D02*
X99457752Y-100509666D01*
X99457752Y-100509666D02*
X99457752Y-100376333D01*
X99457752Y-100376333D02*
X99505371Y-100309666D01*
X99505371Y-100309666D02*
X99552990Y-100276333D01*
X99552990Y-100276333D02*
X99648228Y-100243000D01*
X99648228Y-100243000D02*
X99933942Y-100243000D01*
X99933942Y-100243000D02*
X100029180Y-100276333D01*
X100029180Y-100276333D02*
X100076800Y-100309666D01*
X100076800Y-100309666D02*
X100124419Y-100376333D01*
X100124419Y-100376333D02*
X100124419Y-100509666D01*
X100124419Y-100509666D02*
X100076800Y-100576333D01*
X100029180Y-99543000D02*
X100076800Y-99576333D01*
X100076800Y-99576333D02*
X100124419Y-99676333D01*
X100124419Y-99676333D02*
X100124419Y-99743000D01*
X100124419Y-99743000D02*
X100076800Y-99843000D01*
X100076800Y-99843000D02*
X99981561Y-99909667D01*
X99981561Y-99909667D02*
X99886323Y-99943000D01*
X99886323Y-99943000D02*
X99695847Y-99976333D01*
X99695847Y-99976333D02*
X99552990Y-99976333D01*
X99552990Y-99976333D02*
X99362514Y-99943000D01*
X99362514Y-99943000D02*
X99267276Y-99909667D01*
X99267276Y-99909667D02*
X99172038Y-99843000D01*
X99172038Y-99843000D02*
X99124419Y-99743000D01*
X99124419Y-99743000D02*
X99124419Y-99676333D01*
X99124419Y-99676333D02*
X99172038Y-99576333D01*
X99172038Y-99576333D02*
X99219657Y-99543000D01*
X99124419Y-99343000D02*
X100124419Y-99109667D01*
X100124419Y-99109667D02*
X99124419Y-98876333D01*
X100124419Y-98276333D02*
X100124419Y-98676333D01*
X100124419Y-98476333D02*
X99124419Y-98476333D01*
X99124419Y-98476333D02*
X99267276Y-98543000D01*
X99267276Y-98543000D02*
X99362514Y-98609667D01*
X99362514Y-98609667D02*
X99410133Y-98676333D01*
X100124419Y-97676333D02*
X99600609Y-97676333D01*
X99600609Y-97676333D02*
X99505371Y-97709666D01*
X99505371Y-97709666D02*
X99457752Y-97776333D01*
X99457752Y-97776333D02*
X99457752Y-97909666D01*
X99457752Y-97909666D02*
X99505371Y-97976333D01*
X100076800Y-97676333D02*
X100124419Y-97743000D01*
X100124419Y-97743000D02*
X100124419Y-97909666D01*
X100124419Y-97909666D02*
X100076800Y-97976333D01*
X100076800Y-97976333D02*
X99981561Y-98009666D01*
X99981561Y-98009666D02*
X99886323Y-98009666D01*
X99886323Y-98009666D02*
X99791085Y-97976333D01*
X99791085Y-97976333D02*
X99743466Y-97909666D01*
X99743466Y-97909666D02*
X99743466Y-97743000D01*
X99743466Y-97743000D02*
X99695847Y-97676333D01*
X100124419Y-96443000D02*
X100124419Y-96843000D01*
X100124419Y-96643000D02*
X99124419Y-96643000D01*
X99124419Y-96643000D02*
X99267276Y-96709667D01*
X99267276Y-96709667D02*
X99362514Y-96776334D01*
X99362514Y-96776334D02*
X99410133Y-96843000D01*
X99219657Y-96176333D02*
X99172038Y-96143000D01*
X99172038Y-96143000D02*
X99124419Y-96076333D01*
X99124419Y-96076333D02*
X99124419Y-95909667D01*
X99124419Y-95909667D02*
X99172038Y-95843000D01*
X99172038Y-95843000D02*
X99219657Y-95809667D01*
X99219657Y-95809667D02*
X99314895Y-95776333D01*
X99314895Y-95776333D02*
X99410133Y-95776333D01*
X99410133Y-95776333D02*
X99552990Y-95809667D01*
X99552990Y-95809667D02*
X100124419Y-96209667D01*
X100124419Y-96209667D02*
X100124419Y-95776333D01*
X99124419Y-95576333D02*
X100124419Y-95343000D01*
X100124419Y-95343000D02*
X99124419Y-95109666D01*
X168834133Y-111128980D02*
X168786514Y-111176600D01*
X168786514Y-111176600D02*
X168643657Y-111224219D01*
X168643657Y-111224219D02*
X168548419Y-111224219D01*
X168548419Y-111224219D02*
X168405562Y-111176600D01*
X168405562Y-111176600D02*
X168310324Y-111081361D01*
X168310324Y-111081361D02*
X168262705Y-110986123D01*
X168262705Y-110986123D02*
X168215086Y-110795647D01*
X168215086Y-110795647D02*
X168215086Y-110652790D01*
X168215086Y-110652790D02*
X168262705Y-110462314D01*
X168262705Y-110462314D02*
X168310324Y-110367076D01*
X168310324Y-110367076D02*
X168405562Y-110271838D01*
X168405562Y-110271838D02*
X168548419Y-110224219D01*
X168548419Y-110224219D02*
X168643657Y-110224219D01*
X168643657Y-110224219D02*
X168786514Y-110271838D01*
X168786514Y-110271838D02*
X168834133Y-110319457D01*
X169310324Y-111224219D02*
X169500800Y-111224219D01*
X169500800Y-111224219D02*
X169596038Y-111176600D01*
X169596038Y-111176600D02*
X169643657Y-111128980D01*
X169643657Y-111128980D02*
X169738895Y-110986123D01*
X169738895Y-110986123D02*
X169786514Y-110795647D01*
X169786514Y-110795647D02*
X169786514Y-110414695D01*
X169786514Y-110414695D02*
X169738895Y-110319457D01*
X169738895Y-110319457D02*
X169691276Y-110271838D01*
X169691276Y-110271838D02*
X169596038Y-110224219D01*
X169596038Y-110224219D02*
X169405562Y-110224219D01*
X169405562Y-110224219D02*
X169310324Y-110271838D01*
X169310324Y-110271838D02*
X169262705Y-110319457D01*
X169262705Y-110319457D02*
X169215086Y-110414695D01*
X169215086Y-110414695D02*
X169215086Y-110652790D01*
X169215086Y-110652790D02*
X169262705Y-110748028D01*
X169262705Y-110748028D02*
X169310324Y-110795647D01*
X169310324Y-110795647D02*
X169405562Y-110843266D01*
X169405562Y-110843266D02*
X169596038Y-110843266D01*
X169596038Y-110843266D02*
X169691276Y-110795647D01*
X169691276Y-110795647D02*
X169738895Y-110748028D01*
X169738895Y-110748028D02*
X169786514Y-110652790D01*
X158208742Y-112373580D02*
X158161123Y-112421200D01*
X158161123Y-112421200D02*
X158018266Y-112468819D01*
X158018266Y-112468819D02*
X157923028Y-112468819D01*
X157923028Y-112468819D02*
X157780171Y-112421200D01*
X157780171Y-112421200D02*
X157684933Y-112325961D01*
X157684933Y-112325961D02*
X157637314Y-112230723D01*
X157637314Y-112230723D02*
X157589695Y-112040247D01*
X157589695Y-112040247D02*
X157589695Y-111897390D01*
X157589695Y-111897390D02*
X157637314Y-111706914D01*
X157637314Y-111706914D02*
X157684933Y-111611676D01*
X157684933Y-111611676D02*
X157780171Y-111516438D01*
X157780171Y-111516438D02*
X157923028Y-111468819D01*
X157923028Y-111468819D02*
X158018266Y-111468819D01*
X158018266Y-111468819D02*
X158161123Y-111516438D01*
X158161123Y-111516438D02*
X158208742Y-111564057D01*
X159161123Y-112468819D02*
X158589695Y-112468819D01*
X158875409Y-112468819D02*
X158875409Y-111468819D01*
X158875409Y-111468819D02*
X158780171Y-111611676D01*
X158780171Y-111611676D02*
X158684933Y-111706914D01*
X158684933Y-111706914D02*
X158589695Y-111754533D01*
X160113504Y-112468819D02*
X159542076Y-112468819D01*
X159827790Y-112468819D02*
X159827790Y-111468819D01*
X159827790Y-111468819D02*
X159732552Y-111611676D01*
X159732552Y-111611676D02*
X159637314Y-111706914D01*
X159637314Y-111706914D02*
X159542076Y-111754533D01*
X125994319Y-91746366D02*
X125518128Y-92079699D01*
X125994319Y-92317794D02*
X124994319Y-92317794D01*
X124994319Y-92317794D02*
X124994319Y-91936842D01*
X124994319Y-91936842D02*
X125041938Y-91841604D01*
X125041938Y-91841604D02*
X125089557Y-91793985D01*
X125089557Y-91793985D02*
X125184795Y-91746366D01*
X125184795Y-91746366D02*
X125327652Y-91746366D01*
X125327652Y-91746366D02*
X125422890Y-91793985D01*
X125422890Y-91793985D02*
X125470509Y-91841604D01*
X125470509Y-91841604D02*
X125518128Y-91936842D01*
X125518128Y-91936842D02*
X125518128Y-92317794D01*
X124994319Y-91413032D02*
X124994319Y-90746366D01*
X124994319Y-90746366D02*
X125994319Y-91174937D01*
X166933642Y-106131519D02*
X166600309Y-105655328D01*
X166362214Y-106131519D02*
X166362214Y-105131519D01*
X166362214Y-105131519D02*
X166743166Y-105131519D01*
X166743166Y-105131519D02*
X166838404Y-105179138D01*
X166838404Y-105179138D02*
X166886023Y-105226757D01*
X166886023Y-105226757D02*
X166933642Y-105321995D01*
X166933642Y-105321995D02*
X166933642Y-105464852D01*
X166933642Y-105464852D02*
X166886023Y-105560090D01*
X166886023Y-105560090D02*
X166838404Y-105607709D01*
X166838404Y-105607709D02*
X166743166Y-105655328D01*
X166743166Y-105655328D02*
X166362214Y-105655328D01*
X167886023Y-106131519D02*
X167314595Y-106131519D01*
X167600309Y-106131519D02*
X167600309Y-105131519D01*
X167600309Y-105131519D02*
X167505071Y-105274376D01*
X167505071Y-105274376D02*
X167409833Y-105369614D01*
X167409833Y-105369614D02*
X167314595Y-105417233D01*
X168362214Y-106131519D02*
X168552690Y-106131519D01*
X168552690Y-106131519D02*
X168647928Y-106083900D01*
X168647928Y-106083900D02*
X168695547Y-106036280D01*
X168695547Y-106036280D02*
X168790785Y-105893423D01*
X168790785Y-105893423D02*
X168838404Y-105702947D01*
X168838404Y-105702947D02*
X168838404Y-105321995D01*
X168838404Y-105321995D02*
X168790785Y-105226757D01*
X168790785Y-105226757D02*
X168743166Y-105179138D01*
X168743166Y-105179138D02*
X168647928Y-105131519D01*
X168647928Y-105131519D02*
X168457452Y-105131519D01*
X168457452Y-105131519D02*
X168362214Y-105179138D01*
X168362214Y-105179138D02*
X168314595Y-105226757D01*
X168314595Y-105226757D02*
X168266976Y-105321995D01*
X168266976Y-105321995D02*
X168266976Y-105560090D01*
X168266976Y-105560090D02*
X168314595Y-105655328D01*
X168314595Y-105655328D02*
X168362214Y-105702947D01*
X168362214Y-105702947D02*
X168457452Y-105750566D01*
X168457452Y-105750566D02*
X168647928Y-105750566D01*
X168647928Y-105750566D02*
X168743166Y-105702947D01*
X168743166Y-105702947D02*
X168790785Y-105655328D01*
X168790785Y-105655328D02*
X168838404Y-105560090D01*
X109180333Y-102054819D02*
X108847000Y-101578628D01*
X108608905Y-102054819D02*
X108608905Y-101054819D01*
X108608905Y-101054819D02*
X108989857Y-101054819D01*
X108989857Y-101054819D02*
X109085095Y-101102438D01*
X109085095Y-101102438D02*
X109132714Y-101150057D01*
X109132714Y-101150057D02*
X109180333Y-101245295D01*
X109180333Y-101245295D02*
X109180333Y-101388152D01*
X109180333Y-101388152D02*
X109132714Y-101483390D01*
X109132714Y-101483390D02*
X109085095Y-101531009D01*
X109085095Y-101531009D02*
X108989857Y-101578628D01*
X108989857Y-101578628D02*
X108608905Y-101578628D01*
X109561286Y-101150057D02*
X109608905Y-101102438D01*
X109608905Y-101102438D02*
X109704143Y-101054819D01*
X109704143Y-101054819D02*
X109942238Y-101054819D01*
X109942238Y-101054819D02*
X110037476Y-101102438D01*
X110037476Y-101102438D02*
X110085095Y-101150057D01*
X110085095Y-101150057D02*
X110132714Y-101245295D01*
X110132714Y-101245295D02*
X110132714Y-101340533D01*
X110132714Y-101340533D02*
X110085095Y-101483390D01*
X110085095Y-101483390D02*
X109513667Y-102054819D01*
X109513667Y-102054819D02*
X110132714Y-102054819D01*
X132667595Y-120355566D02*
X133429500Y-120355566D01*
X134429499Y-120736519D02*
X133858071Y-120736519D01*
X134143785Y-120736519D02*
X134143785Y-119736519D01*
X134143785Y-119736519D02*
X134048547Y-119879376D01*
X134048547Y-119879376D02*
X133953309Y-119974614D01*
X133953309Y-119974614D02*
X133858071Y-120022233D01*
X134810452Y-119831757D02*
X134858071Y-119784138D01*
X134858071Y-119784138D02*
X134953309Y-119736519D01*
X134953309Y-119736519D02*
X135191404Y-119736519D01*
X135191404Y-119736519D02*
X135286642Y-119784138D01*
X135286642Y-119784138D02*
X135334261Y-119831757D01*
X135334261Y-119831757D02*
X135381880Y-119926995D01*
X135381880Y-119926995D02*
X135381880Y-120022233D01*
X135381880Y-120022233D02*
X135334261Y-120165090D01*
X135334261Y-120165090D02*
X134762833Y-120736519D01*
X134762833Y-120736519D02*
X135381880Y-120736519D01*
X135667595Y-119736519D02*
X136000928Y-120736519D01*
X136000928Y-120736519D02*
X136334261Y-119736519D01*
X138747595Y-119784138D02*
X138652357Y-119736519D01*
X138652357Y-119736519D02*
X138509500Y-119736519D01*
X138509500Y-119736519D02*
X138366643Y-119784138D01*
X138366643Y-119784138D02*
X138271405Y-119879376D01*
X138271405Y-119879376D02*
X138223786Y-119974614D01*
X138223786Y-119974614D02*
X138176167Y-120165090D01*
X138176167Y-120165090D02*
X138176167Y-120307947D01*
X138176167Y-120307947D02*
X138223786Y-120498423D01*
X138223786Y-120498423D02*
X138271405Y-120593661D01*
X138271405Y-120593661D02*
X138366643Y-120688900D01*
X138366643Y-120688900D02*
X138509500Y-120736519D01*
X138509500Y-120736519D02*
X138604738Y-120736519D01*
X138604738Y-120736519D02*
X138747595Y-120688900D01*
X138747595Y-120688900D02*
X138795214Y-120641280D01*
X138795214Y-120641280D02*
X138795214Y-120307947D01*
X138795214Y-120307947D02*
X138604738Y-120307947D01*
X139223786Y-120736519D02*
X139223786Y-119736519D01*
X139223786Y-119736519D02*
X139795214Y-120736519D01*
X139795214Y-120736519D02*
X139795214Y-119736519D01*
X140271405Y-120736519D02*
X140271405Y-119736519D01*
X140271405Y-119736519D02*
X140509500Y-119736519D01*
X140509500Y-119736519D02*
X140652357Y-119784138D01*
X140652357Y-119784138D02*
X140747595Y-119879376D01*
X140747595Y-119879376D02*
X140795214Y-119974614D01*
X140795214Y-119974614D02*
X140842833Y-120165090D01*
X140842833Y-120165090D02*
X140842833Y-120307947D01*
X140842833Y-120307947D02*
X140795214Y-120498423D01*
X140795214Y-120498423D02*
X140747595Y-120593661D01*
X140747595Y-120593661D02*
X140652357Y-120688900D01*
X140652357Y-120688900D02*
X140509500Y-120736519D01*
X140509500Y-120736519D02*
X140271405Y-120736519D01*
X142827595Y-120355566D02*
X143589500Y-120355566D01*
X143208547Y-120736519D02*
X143208547Y-119974614D01*
X144589499Y-120736519D02*
X144018071Y-120736519D01*
X144303785Y-120736519D02*
X144303785Y-119736519D01*
X144303785Y-119736519D02*
X144208547Y-119879376D01*
X144208547Y-119879376D02*
X144113309Y-119974614D01*
X144113309Y-119974614D02*
X144018071Y-120022233D01*
X144970452Y-119831757D02*
X145018071Y-119784138D01*
X145018071Y-119784138D02*
X145113309Y-119736519D01*
X145113309Y-119736519D02*
X145351404Y-119736519D01*
X145351404Y-119736519D02*
X145446642Y-119784138D01*
X145446642Y-119784138D02*
X145494261Y-119831757D01*
X145494261Y-119831757D02*
X145541880Y-119926995D01*
X145541880Y-119926995D02*
X145541880Y-120022233D01*
X145541880Y-120022233D02*
X145494261Y-120165090D01*
X145494261Y-120165090D02*
X144922833Y-120736519D01*
X144922833Y-120736519D02*
X145541880Y-120736519D01*
X145827595Y-119736519D02*
X146160928Y-120736519D01*
X146160928Y-120736519D02*
X146494261Y-119736519D01*
X141234319Y-92222557D02*
X140758128Y-92555890D01*
X141234319Y-92793985D02*
X140234319Y-92793985D01*
X140234319Y-92793985D02*
X140234319Y-92413033D01*
X140234319Y-92413033D02*
X140281938Y-92317795D01*
X140281938Y-92317795D02*
X140329557Y-92270176D01*
X140329557Y-92270176D02*
X140424795Y-92222557D01*
X140424795Y-92222557D02*
X140567652Y-92222557D01*
X140567652Y-92222557D02*
X140662890Y-92270176D01*
X140662890Y-92270176D02*
X140710509Y-92317795D01*
X140710509Y-92317795D02*
X140758128Y-92413033D01*
X140758128Y-92413033D02*
X140758128Y-92793985D01*
X141234319Y-91270176D02*
X141234319Y-91841604D01*
X141234319Y-91555890D02*
X140234319Y-91555890D01*
X140234319Y-91555890D02*
X140377176Y-91651128D01*
X140377176Y-91651128D02*
X140472414Y-91746366D01*
X140472414Y-91746366D02*
X140520033Y-91841604D01*
X140234319Y-90936842D02*
X140234319Y-90317795D01*
X140234319Y-90317795D02*
X140615271Y-90651128D01*
X140615271Y-90651128D02*
X140615271Y-90508271D01*
X140615271Y-90508271D02*
X140662890Y-90413033D01*
X140662890Y-90413033D02*
X140710509Y-90365414D01*
X140710509Y-90365414D02*
X140805747Y-90317795D01*
X140805747Y-90317795D02*
X141043842Y-90317795D01*
X141043842Y-90317795D02*
X141139080Y-90365414D01*
X141139080Y-90365414D02*
X141186700Y-90413033D01*
X141186700Y-90413033D02*
X141234319Y-90508271D01*
X141234319Y-90508271D02*
X141234319Y-90793985D01*
X141234319Y-90793985D02*
X141186700Y-90889223D01*
X141186700Y-90889223D02*
X141139080Y-90936842D01*
D13*
%TO.C,U2*%
X134309500Y-107641700D02*
X144709500Y-107641700D01*
X144709500Y-107641700D02*
X144709500Y-97361700D01*
X134369500Y-105151700D02*
X144649500Y-105151700D01*
X144649500Y-105151700D02*
X144649500Y-99851700D01*
X134369500Y-103501700D02*
X134369500Y-105151700D01*
X134369500Y-99851700D02*
X134369500Y-101501700D01*
X144649500Y-99851700D02*
X134369500Y-99851700D01*
X134309500Y-97361700D02*
X134309500Y-107641700D01*
X144709500Y-97361700D02*
X134309500Y-97361700D01*
X134369500Y-103501700D02*
G75*
G03*
X134369500Y-101501700I0J1000000D01*
G01*
%TO.C,C6*%
X144389500Y-109756700D02*
X144374500Y-109756700D01*
X144389500Y-109756700D02*
X144389500Y-114296700D01*
X142264500Y-109756700D02*
X142249500Y-109756700D01*
X142249500Y-109756700D02*
X142249500Y-114296700D01*
X144389500Y-114296700D02*
X144374500Y-114296700D01*
X142264500Y-114296700D02*
X142249500Y-114296700D01*
%TO.C,R29*%
X175996800Y-93599000D02*
X176946800Y-93599000D01*
X176946800Y-92679000D02*
X176946800Y-94519000D01*
X176946800Y-94519000D02*
X180786800Y-94519000D01*
X180786800Y-92679000D02*
X176946800Y-92679000D01*
X180786800Y-94519000D02*
X180786800Y-92679000D01*
X181736800Y-93599000D02*
X180786800Y-93599000D01*
%TO.C,C3*%
X119389500Y-95286700D02*
X119404500Y-95286700D01*
X119389500Y-95286700D02*
X119389500Y-90746700D01*
X121514500Y-95286700D02*
X121529500Y-95286700D01*
X121529500Y-95286700D02*
X121529500Y-90746700D01*
X119389500Y-90746700D02*
X119404500Y-90746700D01*
X121514500Y-90746700D02*
X121529500Y-90746700D01*
%TO.C,R17*%
X170319500Y-108216700D02*
X169369500Y-108216700D01*
X169369500Y-109136700D02*
X169369500Y-107296700D01*
X169369500Y-107296700D02*
X165529500Y-107296700D01*
X165529500Y-109136700D02*
X169369500Y-109136700D01*
X165529500Y-107296700D02*
X165529500Y-109136700D01*
X164579500Y-108216700D02*
X165529500Y-108216700D01*
%TO.C,R22*%
X191909500Y-113284000D02*
X190959500Y-113284000D01*
X190959500Y-114204000D02*
X190959500Y-112364000D01*
X190959500Y-112364000D02*
X187119500Y-112364000D01*
X187119500Y-114204000D02*
X190959500Y-114204000D01*
X187119500Y-112364000D02*
X187119500Y-114204000D01*
X186169500Y-113284000D02*
X187119500Y-113284000D01*
%TO.C,U1*%
X119069500Y-107641700D02*
X129469500Y-107641700D01*
X129469500Y-107641700D02*
X129469500Y-97361700D01*
X119129500Y-105151700D02*
X129409500Y-105151700D01*
X129409500Y-105151700D02*
X129409500Y-99851700D01*
X119129500Y-103501700D02*
X119129500Y-105151700D01*
X119129500Y-99851700D02*
X119129500Y-101501700D01*
X129409500Y-99851700D02*
X119129500Y-99851700D01*
X119069500Y-97361700D02*
X119069500Y-107641700D01*
X129469500Y-97361700D02*
X119069500Y-97361700D01*
X119129500Y-103501700D02*
G75*
G03*
X119129500Y-101501700I0J1000000D01*
G01*
%TO.C,R1*%
X112090000Y-99060000D02*
X111140000Y-99060000D01*
X111140000Y-99980000D02*
X111140000Y-98140000D01*
X111140000Y-98140000D02*
X107300000Y-98140000D01*
X107300000Y-99980000D02*
X111140000Y-99980000D01*
X107300000Y-98140000D02*
X107300000Y-99980000D01*
X106350000Y-99060000D02*
X107300000Y-99060000D01*
%TO.C,R3*%
X112090000Y-106680000D02*
X111140000Y-106680000D01*
X111140000Y-107600000D02*
X111140000Y-105760000D01*
X111140000Y-105760000D02*
X107300000Y-105760000D01*
X107300000Y-107600000D02*
X111140000Y-107600000D01*
X107300000Y-105760000D02*
X107300000Y-107600000D01*
X106350000Y-106680000D02*
X107300000Y-106680000D01*
%TO.C,R27*%
X186169500Y-108216700D02*
X187119500Y-108216700D01*
X187119500Y-107296700D02*
X187119500Y-109136700D01*
X187119500Y-109136700D02*
X190959500Y-109136700D01*
X190959500Y-107296700D02*
X187119500Y-107296700D01*
X190959500Y-109136700D02*
X190959500Y-107296700D01*
X191909500Y-108216700D02*
X190959500Y-108216700D01*
%TO.C,J12*%
X133156000Y-110809000D02*
X131826000Y-110809000D01*
X133156000Y-109479000D02*
X133156000Y-110809000D01*
X133156000Y-108209000D02*
X133156000Y-105609000D01*
X133156000Y-108209000D02*
X130496000Y-108209000D01*
X133156000Y-105609000D02*
X130496000Y-105609000D01*
X130496000Y-108209000D02*
X130496000Y-105609000D01*
%TO.C,J13*%
X174336400Y-127034600D02*
X174336400Y-125704600D01*
X175666400Y-127034600D02*
X174336400Y-127034600D01*
X176936400Y-127034600D02*
X182076400Y-127034600D01*
X176936400Y-127034600D02*
X176936400Y-124374600D01*
X182076400Y-127034600D02*
X182076400Y-124374600D01*
X176936400Y-124374600D02*
X182076400Y-124374600D01*
%TO.C,R23*%
X175996800Y-96139000D02*
X176946800Y-96139000D01*
X176946800Y-95219000D02*
X176946800Y-97059000D01*
X176946800Y-97059000D02*
X180786800Y-97059000D01*
X180786800Y-95219000D02*
X176946800Y-95219000D01*
X180786800Y-97059000D02*
X180786800Y-95219000D01*
X181736800Y-96139000D02*
X180786800Y-96139000D01*
%TO.C,C1*%
X132136175Y-117248200D02*
X131636175Y-117248200D01*
X131886175Y-117498200D02*
X131886175Y-116998200D01*
X129331400Y-118353200D02*
X129331400Y-113193200D01*
X129291400Y-118353200D02*
X129291400Y-113193200D01*
X129251400Y-118352200D02*
X129251400Y-113194200D01*
X129211400Y-118351200D02*
X129211400Y-113195200D01*
X129171400Y-118349200D02*
X129171400Y-113197200D01*
X129131400Y-118346200D02*
X129131400Y-113200200D01*
X129091400Y-118342200D02*
X129091400Y-116813200D01*
X129091400Y-114733200D02*
X129091400Y-113204200D01*
X129051400Y-118338200D02*
X129051400Y-116813200D01*
X129051400Y-114733200D02*
X129051400Y-113208200D01*
X129011400Y-118334200D02*
X129011400Y-116813200D01*
X129011400Y-114733200D02*
X129011400Y-113212200D01*
X128971400Y-118329200D02*
X128971400Y-116813200D01*
X128971400Y-114733200D02*
X128971400Y-113217200D01*
X128931400Y-118323200D02*
X128931400Y-116813200D01*
X128931400Y-114733200D02*
X128931400Y-113223200D01*
X128891400Y-118316200D02*
X128891400Y-116813200D01*
X128891400Y-114733200D02*
X128891400Y-113230200D01*
X128851400Y-118309200D02*
X128851400Y-116813200D01*
X128851400Y-114733200D02*
X128851400Y-113237200D01*
X128811400Y-118301200D02*
X128811400Y-116813200D01*
X128811400Y-114733200D02*
X128811400Y-113245200D01*
X128771400Y-118293200D02*
X128771400Y-116813200D01*
X128771400Y-114733200D02*
X128771400Y-113253200D01*
X128731400Y-118284200D02*
X128731400Y-116813200D01*
X128731400Y-114733200D02*
X128731400Y-113262200D01*
X128691400Y-118274200D02*
X128691400Y-116813200D01*
X128691400Y-114733200D02*
X128691400Y-113272200D01*
X128651400Y-118264200D02*
X128651400Y-116813200D01*
X128651400Y-114733200D02*
X128651400Y-113282200D01*
X128610400Y-118253200D02*
X128610400Y-116813200D01*
X128610400Y-114733200D02*
X128610400Y-113293200D01*
X128570400Y-118241200D02*
X128570400Y-116813200D01*
X128570400Y-114733200D02*
X128570400Y-113305200D01*
X128530400Y-118228200D02*
X128530400Y-116813200D01*
X128530400Y-114733200D02*
X128530400Y-113318200D01*
X128490400Y-118215200D02*
X128490400Y-116813200D01*
X128490400Y-114733200D02*
X128490400Y-113331200D01*
X128450400Y-118201200D02*
X128450400Y-116813200D01*
X128450400Y-114733200D02*
X128450400Y-113345200D01*
X128410400Y-118187200D02*
X128410400Y-116813200D01*
X128410400Y-114733200D02*
X128410400Y-113359200D01*
X128370400Y-118171200D02*
X128370400Y-116813200D01*
X128370400Y-114733200D02*
X128370400Y-113375200D01*
X128330400Y-118155200D02*
X128330400Y-116813200D01*
X128330400Y-114733200D02*
X128330400Y-113391200D01*
X128290400Y-118138200D02*
X128290400Y-116813200D01*
X128290400Y-114733200D02*
X128290400Y-113408200D01*
X128250400Y-118121200D02*
X128250400Y-116813200D01*
X128250400Y-114733200D02*
X128250400Y-113425200D01*
X128210400Y-118102200D02*
X128210400Y-116813200D01*
X128210400Y-114733200D02*
X128210400Y-113444200D01*
X128170400Y-118083200D02*
X128170400Y-116813200D01*
X128170400Y-114733200D02*
X128170400Y-113463200D01*
X128130400Y-118063200D02*
X128130400Y-116813200D01*
X128130400Y-114733200D02*
X128130400Y-113483200D01*
X128090400Y-118041200D02*
X128090400Y-116813200D01*
X128090400Y-114733200D02*
X128090400Y-113505200D01*
X128050400Y-118020200D02*
X128050400Y-116813200D01*
X128050400Y-114733200D02*
X128050400Y-113526200D01*
X128010400Y-117997200D02*
X128010400Y-116813200D01*
X128010400Y-114733200D02*
X128010400Y-113549200D01*
X127970400Y-117973200D02*
X127970400Y-116813200D01*
X127970400Y-114733200D02*
X127970400Y-113573200D01*
X127930400Y-117948200D02*
X127930400Y-116813200D01*
X127930400Y-114733200D02*
X127930400Y-113598200D01*
X127890400Y-117922200D02*
X127890400Y-116813200D01*
X127890400Y-114733200D02*
X127890400Y-113624200D01*
X127850400Y-117895200D02*
X127850400Y-116813200D01*
X127850400Y-114733200D02*
X127850400Y-113651200D01*
X127810400Y-117868200D02*
X127810400Y-116813200D01*
X127810400Y-114733200D02*
X127810400Y-113678200D01*
X127770400Y-117838200D02*
X127770400Y-116813200D01*
X127770400Y-114733200D02*
X127770400Y-113708200D01*
X127730400Y-117808200D02*
X127730400Y-116813200D01*
X127730400Y-114733200D02*
X127730400Y-113738200D01*
X127690400Y-117777200D02*
X127690400Y-116813200D01*
X127690400Y-114733200D02*
X127690400Y-113769200D01*
X127650400Y-117744200D02*
X127650400Y-116813200D01*
X127650400Y-114733200D02*
X127650400Y-113802200D01*
X127610400Y-117710200D02*
X127610400Y-116813200D01*
X127610400Y-114733200D02*
X127610400Y-113836200D01*
X127570400Y-117674200D02*
X127570400Y-116813200D01*
X127570400Y-114733200D02*
X127570400Y-113872200D01*
X127530400Y-117637200D02*
X127530400Y-116813200D01*
X127530400Y-114733200D02*
X127530400Y-113909200D01*
X127490400Y-117599200D02*
X127490400Y-116813200D01*
X127490400Y-114733200D02*
X127490400Y-113947200D01*
X127450400Y-117558200D02*
X127450400Y-116813200D01*
X127450400Y-114733200D02*
X127450400Y-113988200D01*
X127410400Y-117516200D02*
X127410400Y-116813200D01*
X127410400Y-114733200D02*
X127410400Y-114030200D01*
X127370400Y-117472200D02*
X127370400Y-116813200D01*
X127370400Y-114733200D02*
X127370400Y-114074200D01*
X127330400Y-117426200D02*
X127330400Y-116813200D01*
X127330400Y-114733200D02*
X127330400Y-114120200D01*
X127290400Y-117378200D02*
X127290400Y-116813200D01*
X127290400Y-114733200D02*
X127290400Y-114168200D01*
X127250400Y-117327200D02*
X127250400Y-116813200D01*
X127250400Y-114733200D02*
X127250400Y-114219200D01*
X127210400Y-117273200D02*
X127210400Y-116813200D01*
X127210400Y-114733200D02*
X127210400Y-114273200D01*
X127170400Y-117216200D02*
X127170400Y-116813200D01*
X127170400Y-114733200D02*
X127170400Y-114330200D01*
X127130400Y-117156200D02*
X127130400Y-116813200D01*
X127130400Y-114733200D02*
X127130400Y-114390200D01*
X127090400Y-117092200D02*
X127090400Y-116813200D01*
X127090400Y-114733200D02*
X127090400Y-114454200D01*
X127050400Y-117024200D02*
X127050400Y-116813200D01*
X127050400Y-114733200D02*
X127050400Y-114522200D01*
X127010400Y-116951200D02*
X127010400Y-114595200D01*
X126970400Y-116871200D02*
X126970400Y-114675200D01*
X126930400Y-116784200D02*
X126930400Y-114762200D01*
X126890400Y-116688200D02*
X126890400Y-114858200D01*
X126850400Y-116578200D02*
X126850400Y-114968200D01*
X126810400Y-116450200D02*
X126810400Y-115096200D01*
X126770400Y-116291200D02*
X126770400Y-115255200D01*
X126730400Y-116057200D02*
X126730400Y-115489200D01*
X131951400Y-115773200D02*
G75*
G03*
X126711400Y-115773200I-2620000J0D01*
G01*
X126711400Y-115773200D02*
G75*
G03*
X131951400Y-115773200I2620000J0D01*
G01*
%TO.C,C2*%
X158129500Y-120036925D02*
X158129500Y-120536925D01*
X158379500Y-120286925D02*
X157879500Y-120286925D01*
X159234500Y-122841700D02*
X154074500Y-122841700D01*
X159234500Y-122881700D02*
X154074500Y-122881700D01*
X159233500Y-122921700D02*
X154075500Y-122921700D01*
X159232500Y-122961700D02*
X154076500Y-122961700D01*
X159230500Y-123001700D02*
X154078500Y-123001700D01*
X159227500Y-123041700D02*
X154081500Y-123041700D01*
X159223500Y-123081700D02*
X157694500Y-123081700D01*
X155614500Y-123081700D02*
X154085500Y-123081700D01*
X159219500Y-123121700D02*
X157694500Y-123121700D01*
X155614500Y-123121700D02*
X154089500Y-123121700D01*
X159215500Y-123161700D02*
X157694500Y-123161700D01*
X155614500Y-123161700D02*
X154093500Y-123161700D01*
X159210500Y-123201700D02*
X157694500Y-123201700D01*
X155614500Y-123201700D02*
X154098500Y-123201700D01*
X159204500Y-123241700D02*
X157694500Y-123241700D01*
X155614500Y-123241700D02*
X154104500Y-123241700D01*
X159197500Y-123281700D02*
X157694500Y-123281700D01*
X155614500Y-123281700D02*
X154111500Y-123281700D01*
X159190500Y-123321700D02*
X157694500Y-123321700D01*
X155614500Y-123321700D02*
X154118500Y-123321700D01*
X159182500Y-123361700D02*
X157694500Y-123361700D01*
X155614500Y-123361700D02*
X154126500Y-123361700D01*
X159174500Y-123401700D02*
X157694500Y-123401700D01*
X155614500Y-123401700D02*
X154134500Y-123401700D01*
X159165500Y-123441700D02*
X157694500Y-123441700D01*
X155614500Y-123441700D02*
X154143500Y-123441700D01*
X159155500Y-123481700D02*
X157694500Y-123481700D01*
X155614500Y-123481700D02*
X154153500Y-123481700D01*
X159145500Y-123521700D02*
X157694500Y-123521700D01*
X155614500Y-123521700D02*
X154163500Y-123521700D01*
X159134500Y-123562700D02*
X157694500Y-123562700D01*
X155614500Y-123562700D02*
X154174500Y-123562700D01*
X159122500Y-123602700D02*
X157694500Y-123602700D01*
X155614500Y-123602700D02*
X154186500Y-123602700D01*
X159109500Y-123642700D02*
X157694500Y-123642700D01*
X155614500Y-123642700D02*
X154199500Y-123642700D01*
X159096500Y-123682700D02*
X157694500Y-123682700D01*
X155614500Y-123682700D02*
X154212500Y-123682700D01*
X159082500Y-123722700D02*
X157694500Y-123722700D01*
X155614500Y-123722700D02*
X154226500Y-123722700D01*
X159068500Y-123762700D02*
X157694500Y-123762700D01*
X155614500Y-123762700D02*
X154240500Y-123762700D01*
X159052500Y-123802700D02*
X157694500Y-123802700D01*
X155614500Y-123802700D02*
X154256500Y-123802700D01*
X159036500Y-123842700D02*
X157694500Y-123842700D01*
X155614500Y-123842700D02*
X154272500Y-123842700D01*
X159019500Y-123882700D02*
X157694500Y-123882700D01*
X155614500Y-123882700D02*
X154289500Y-123882700D01*
X159002500Y-123922700D02*
X157694500Y-123922700D01*
X155614500Y-123922700D02*
X154306500Y-123922700D01*
X158983500Y-123962700D02*
X157694500Y-123962700D01*
X155614500Y-123962700D02*
X154325500Y-123962700D01*
X158964500Y-124002700D02*
X157694500Y-124002700D01*
X155614500Y-124002700D02*
X154344500Y-124002700D01*
X158944500Y-124042700D02*
X157694500Y-124042700D01*
X155614500Y-124042700D02*
X154364500Y-124042700D01*
X158922500Y-124082700D02*
X157694500Y-124082700D01*
X155614500Y-124082700D02*
X154386500Y-124082700D01*
X158901500Y-124122700D02*
X157694500Y-124122700D01*
X155614500Y-124122700D02*
X154407500Y-124122700D01*
X158878500Y-124162700D02*
X157694500Y-124162700D01*
X155614500Y-124162700D02*
X154430500Y-124162700D01*
X158854500Y-124202700D02*
X157694500Y-124202700D01*
X155614500Y-124202700D02*
X154454500Y-124202700D01*
X158829500Y-124242700D02*
X157694500Y-124242700D01*
X155614500Y-124242700D02*
X154479500Y-124242700D01*
X158803500Y-124282700D02*
X157694500Y-124282700D01*
X155614500Y-124282700D02*
X154505500Y-124282700D01*
X158776500Y-124322700D02*
X157694500Y-124322700D01*
X155614500Y-124322700D02*
X154532500Y-124322700D01*
X158749500Y-124362700D02*
X157694500Y-124362700D01*
X155614500Y-124362700D02*
X154559500Y-124362700D01*
X158719500Y-124402700D02*
X157694500Y-124402700D01*
X155614500Y-124402700D02*
X154589500Y-124402700D01*
X158689500Y-124442700D02*
X157694500Y-124442700D01*
X155614500Y-124442700D02*
X154619500Y-124442700D01*
X158658500Y-124482700D02*
X157694500Y-124482700D01*
X155614500Y-124482700D02*
X154650500Y-124482700D01*
X158625500Y-124522700D02*
X157694500Y-124522700D01*
X155614500Y-124522700D02*
X154683500Y-124522700D01*
X158591500Y-124562700D02*
X157694500Y-124562700D01*
X155614500Y-124562700D02*
X154717500Y-124562700D01*
X158555500Y-124602700D02*
X157694500Y-124602700D01*
X155614500Y-124602700D02*
X154753500Y-124602700D01*
X158518500Y-124642700D02*
X157694500Y-124642700D01*
X155614500Y-124642700D02*
X154790500Y-124642700D01*
X158480500Y-124682700D02*
X157694500Y-124682700D01*
X155614500Y-124682700D02*
X154828500Y-124682700D01*
X158439500Y-124722700D02*
X157694500Y-124722700D01*
X155614500Y-124722700D02*
X154869500Y-124722700D01*
X158397500Y-124762700D02*
X157694500Y-124762700D01*
X155614500Y-124762700D02*
X154911500Y-124762700D01*
X158353500Y-124802700D02*
X157694500Y-124802700D01*
X155614500Y-124802700D02*
X154955500Y-124802700D01*
X158307500Y-124842700D02*
X157694500Y-124842700D01*
X155614500Y-124842700D02*
X155001500Y-124842700D01*
X158259500Y-124882700D02*
X157694500Y-124882700D01*
X155614500Y-124882700D02*
X155049500Y-124882700D01*
X158208500Y-124922700D02*
X157694500Y-124922700D01*
X155614500Y-124922700D02*
X155100500Y-124922700D01*
X158154500Y-124962700D02*
X157694500Y-124962700D01*
X155614500Y-124962700D02*
X155154500Y-124962700D01*
X158097500Y-125002700D02*
X157694500Y-125002700D01*
X155614500Y-125002700D02*
X155211500Y-125002700D01*
X158037500Y-125042700D02*
X157694500Y-125042700D01*
X155614500Y-125042700D02*
X155271500Y-125042700D01*
X157973500Y-125082700D02*
X157694500Y-125082700D01*
X155614500Y-125082700D02*
X155335500Y-125082700D01*
X157905500Y-125122700D02*
X157694500Y-125122700D01*
X155614500Y-125122700D02*
X155403500Y-125122700D01*
X157832500Y-125162700D02*
X155476500Y-125162700D01*
X157752500Y-125202700D02*
X155556500Y-125202700D01*
X157665500Y-125242700D02*
X155643500Y-125242700D01*
X157569500Y-125282700D02*
X155739500Y-125282700D01*
X157459500Y-125322700D02*
X155849500Y-125322700D01*
X157331500Y-125362700D02*
X155977500Y-125362700D01*
X157172500Y-125402700D02*
X156136500Y-125402700D01*
X156938500Y-125442700D02*
X156370500Y-125442700D01*
X159274500Y-122841700D02*
G75*
G03*
X154034500Y-122841700I-2620000J0D01*
G01*
X154034500Y-122841700D02*
G75*
G03*
X159274500Y-122841700I2620000J0D01*
G01*
%TO.C,R21*%
X164579500Y-120916700D02*
X165529500Y-120916700D01*
X165529500Y-119996700D02*
X165529500Y-121836700D01*
X165529500Y-121836700D02*
X169369500Y-121836700D01*
X169369500Y-119996700D02*
X165529500Y-119996700D01*
X169369500Y-121836700D02*
X169369500Y-119996700D01*
X170319500Y-120916700D02*
X169369500Y-120916700D01*
%TO.C,R6*%
X116014500Y-99631700D02*
X116014500Y-100581700D01*
X116934500Y-100581700D02*
X115094500Y-100581700D01*
X115094500Y-100581700D02*
X115094500Y-104421700D01*
X116934500Y-104421700D02*
X116934500Y-100581700D01*
X115094500Y-104421700D02*
X116934500Y-104421700D01*
X116014500Y-105371700D02*
X116014500Y-104421700D01*
%TO.C,C7*%
X153082600Y-95248600D02*
X153097600Y-95248600D01*
X153082600Y-95248600D02*
X153082600Y-90708600D01*
X155207600Y-95248600D02*
X155222600Y-95248600D01*
X155222600Y-95248600D02*
X155222600Y-90708600D01*
X153082600Y-90708600D02*
X153097600Y-90708600D01*
X155207600Y-90708600D02*
X155222600Y-90708600D01*
%TO.C,R26*%
X191909500Y-115824000D02*
X190959500Y-115824000D01*
X190959500Y-116744000D02*
X190959500Y-114904000D01*
X190959500Y-114904000D02*
X187119500Y-114904000D01*
X187119500Y-116744000D02*
X190959500Y-116744000D01*
X187119500Y-114904000D02*
X187119500Y-116744000D01*
X186169500Y-115824000D02*
X187119500Y-115824000D01*
%TO.C,R24*%
X170319500Y-123456700D02*
X169369500Y-123456700D01*
X169369500Y-124376700D02*
X169369500Y-122536700D01*
X169369500Y-122536700D02*
X165529500Y-122536700D01*
X165529500Y-124376700D02*
X169369500Y-124376700D01*
X165529500Y-122536700D02*
X165529500Y-124376700D01*
X164579500Y-123456700D02*
X165529500Y-123456700D01*
%TO.C,C4*%
X127849500Y-110636700D02*
X127849500Y-110621700D01*
X127849500Y-110636700D02*
X123309500Y-110636700D01*
X127849500Y-108511700D02*
X127849500Y-108496700D01*
X127849500Y-108496700D02*
X123309500Y-108496700D01*
X123309500Y-110636700D02*
X123309500Y-110621700D01*
X123309500Y-108511700D02*
X123309500Y-108496700D01*
%TO.C,C8*%
X158964500Y-110596700D02*
X158964500Y-110581700D01*
X158964500Y-110596700D02*
X154424500Y-110596700D01*
X158964500Y-108471700D02*
X158964500Y-108456700D01*
X158964500Y-108456700D02*
X154424500Y-108456700D01*
X154424500Y-110596700D02*
X154424500Y-110581700D01*
X154424500Y-108471700D02*
X154424500Y-108456700D01*
%TO.C,FB1*%
X128664500Y-122591700D02*
X126224500Y-122591700D01*
X126224500Y-122591700D02*
X126224500Y-128131700D01*
X128664500Y-128131700D02*
X128664500Y-122591700D01*
X126224500Y-128131700D02*
X128664500Y-128131700D01*
%TO.C,R25*%
X186169500Y-118364000D02*
X187119500Y-118364000D01*
X187119500Y-117444000D02*
X187119500Y-119284000D01*
X187119500Y-119284000D02*
X190959500Y-119284000D01*
X190959500Y-117444000D02*
X187119500Y-117444000D01*
X190959500Y-119284000D02*
X190959500Y-117444000D01*
X191909500Y-118364000D02*
X190959500Y-118364000D01*
%TO.C,R9*%
X140779500Y-110426700D02*
X140779500Y-111376700D01*
X141699500Y-111376700D02*
X139859500Y-111376700D01*
X139859500Y-111376700D02*
X139859500Y-115216700D01*
X141699500Y-115216700D02*
X141699500Y-111376700D01*
X139859500Y-115216700D02*
X141699500Y-115216700D01*
X140779500Y-116166700D02*
X140779500Y-115216700D01*
%TO.C,C12*%
X167735000Y-97135000D02*
G75*
G03*
X161195000Y-97135000I-3270000J0D01*
G01*
X161195000Y-97135000D02*
G75*
G03*
X167735000Y-97135000I3270000J0D01*
G01*
%TO.C,R16*%
X170319500Y-115836700D02*
X169369500Y-115836700D01*
X169369500Y-116756700D02*
X169369500Y-114916700D01*
X169369500Y-114916700D02*
X165529500Y-114916700D01*
X165529500Y-116756700D02*
X169369500Y-116756700D01*
X165529500Y-114916700D02*
X165529500Y-116756700D01*
X164579500Y-115836700D02*
X165529500Y-115836700D01*
%TO.C,R28*%
X186169500Y-105676700D02*
X187119500Y-105676700D01*
X187119500Y-104756700D02*
X187119500Y-106596700D01*
X187119500Y-106596700D02*
X190959500Y-106596700D01*
X190959500Y-104756700D02*
X187119500Y-104756700D01*
X190959500Y-106596700D02*
X190959500Y-104756700D01*
X191909500Y-105676700D02*
X190959500Y-105676700D01*
%TO.C,R12*%
X135699500Y-88836700D02*
X135699500Y-89786700D01*
X136619500Y-89786700D02*
X134779500Y-89786700D01*
X134779500Y-89786700D02*
X134779500Y-93626700D01*
X136619500Y-93626700D02*
X136619500Y-89786700D01*
X134779500Y-93626700D02*
X136619500Y-93626700D01*
X135699500Y-94576700D02*
X135699500Y-93626700D01*
%TO.C,C5*%
X137182200Y-95234000D02*
X137197200Y-95234000D01*
X137182200Y-95234000D02*
X137182200Y-90694000D01*
X139307200Y-95234000D02*
X139322200Y-95234000D01*
X139322200Y-95234000D02*
X139322200Y-90694000D01*
X137182200Y-90694000D02*
X137197200Y-90694000D01*
X139307200Y-90694000D02*
X139322200Y-90694000D01*
%TO.C,R5*%
X112090000Y-104140000D02*
X111140000Y-104140000D01*
X111140000Y-105060000D02*
X111140000Y-103220000D01*
X111140000Y-103220000D02*
X107300000Y-103220000D01*
X107300000Y-105060000D02*
X111140000Y-105060000D01*
X107300000Y-103220000D02*
X107300000Y-105060000D01*
X106350000Y-104140000D02*
X107300000Y-104140000D01*
%TO.C,R15*%
X147129500Y-88836700D02*
X147129500Y-89786700D01*
X148049500Y-89786700D02*
X146209500Y-89786700D01*
X146209500Y-89786700D02*
X146209500Y-93626700D01*
X148049500Y-93626700D02*
X148049500Y-89786700D01*
X146209500Y-93626700D02*
X148049500Y-93626700D01*
X147129500Y-94576700D02*
X147129500Y-93626700D01*
%TO.C,R18*%
X164579500Y-118376700D02*
X165529500Y-118376700D01*
X165529500Y-117456700D02*
X165529500Y-119296700D01*
X165529500Y-119296700D02*
X169369500Y-119296700D01*
X169369500Y-117456700D02*
X165529500Y-117456700D01*
X169369500Y-119296700D02*
X169369500Y-117456700D01*
X170319500Y-118376700D02*
X169369500Y-118376700D01*
%TO.C,FB2*%
X152794500Y-122591700D02*
X150354500Y-122591700D01*
X150354500Y-122591700D02*
X150354500Y-128131700D01*
X152794500Y-128131700D02*
X152794500Y-122591700D01*
X150354500Y-128131700D02*
X152794500Y-128131700D01*
%TO.C,R20*%
X176009500Y-98691700D02*
X176959500Y-98691700D01*
X176959500Y-97771700D02*
X176959500Y-99611700D01*
X176959500Y-99611700D02*
X180799500Y-99611700D01*
X180799500Y-97771700D02*
X176959500Y-97771700D01*
X180799500Y-99611700D02*
X180799500Y-97771700D01*
X181749500Y-98691700D02*
X180799500Y-98691700D01*
%TO.C,C10*%
X185499500Y-109674000D02*
X185499500Y-109689000D01*
X185499500Y-109674000D02*
X190039500Y-109674000D01*
X185499500Y-111799000D02*
X185499500Y-111814000D01*
X185499500Y-111814000D02*
X190039500Y-111814000D01*
X190039500Y-109674000D02*
X190039500Y-109689000D01*
X190039500Y-111799000D02*
X190039500Y-111814000D01*
%TO.C,R14*%
X143319500Y-88836700D02*
X143319500Y-89786700D01*
X144239500Y-89786700D02*
X142399500Y-89786700D01*
X142399500Y-89786700D02*
X142399500Y-93626700D01*
X144239500Y-93626700D02*
X144239500Y-89786700D01*
X142399500Y-93626700D02*
X144239500Y-93626700D01*
X143319500Y-94576700D02*
X143319500Y-93626700D01*
%TO.C,J4*%
X173224500Y-100011700D02*
X171894500Y-100011700D01*
X173224500Y-98681700D02*
X173224500Y-100011700D01*
X173224500Y-97411700D02*
X173224500Y-89731700D01*
X173224500Y-97411700D02*
X170564500Y-97411700D01*
X173224500Y-89731700D02*
X170564500Y-89731700D01*
X170564500Y-97411700D02*
X170564500Y-89731700D01*
%TO.C,R8*%
X122999500Y-88836700D02*
X122999500Y-89786700D01*
X123919500Y-89786700D02*
X122079500Y-89786700D01*
X122079500Y-89786700D02*
X122079500Y-93626700D01*
X123919500Y-93626700D02*
X123919500Y-89786700D01*
X122079500Y-93626700D02*
X123919500Y-93626700D01*
X122999500Y-94576700D02*
X122999500Y-93626700D01*
%TO.C,R10*%
X147129500Y-99631700D02*
X147129500Y-100581700D01*
X148049500Y-100581700D02*
X146209500Y-100581700D01*
X146209500Y-100581700D02*
X146209500Y-104421700D01*
X148049500Y-104421700D02*
X148049500Y-100581700D01*
X146209500Y-104421700D02*
X148049500Y-104421700D01*
X147129500Y-105371700D02*
X147129500Y-104421700D01*
%TO.C,R11*%
X138239500Y-110426700D02*
X138239500Y-111376700D01*
X139159500Y-111376700D02*
X137319500Y-111376700D01*
X137319500Y-111376700D02*
X137319500Y-115216700D01*
X139159500Y-115216700D02*
X139159500Y-111376700D01*
X137319500Y-115216700D02*
X139159500Y-115216700D01*
X138239500Y-116166700D02*
X138239500Y-115216700D01*
%TO.C,R4*%
X135636000Y-116154000D02*
X135636000Y-115204000D01*
X134716000Y-115204000D02*
X136556000Y-115204000D01*
X136556000Y-115204000D02*
X136556000Y-111364000D01*
X134716000Y-111364000D02*
X134716000Y-115204000D01*
X136556000Y-111364000D02*
X134716000Y-111364000D01*
X135636000Y-110414000D02*
X135636000Y-111364000D01*
%TO.C,U4*%
X173104500Y-104286700D02*
X173104500Y-122306700D01*
X173104500Y-122306700D02*
X183384500Y-122306700D01*
X175594500Y-104346700D02*
X175594500Y-122246700D01*
X175594500Y-122246700D02*
X180894500Y-122246700D01*
X177244500Y-104346700D02*
X175594500Y-104346700D01*
X180894500Y-104346700D02*
X179244500Y-104346700D01*
X180894500Y-122246700D02*
X180894500Y-104346700D01*
X183384500Y-104286700D02*
X173104500Y-104286700D01*
X183384500Y-122306700D02*
X183384500Y-104286700D01*
X177244500Y-104346700D02*
G75*
G03*
X179244500Y-104346700I1000000J0D01*
G01*
%TO.C,J2*%
X147895000Y-109795000D02*
X149225000Y-109795000D01*
X147895000Y-111125000D02*
X147895000Y-109795000D01*
X147895000Y-112395000D02*
X147895000Y-117535000D01*
X147895000Y-112395000D02*
X150555000Y-112395000D01*
X147895000Y-117535000D02*
X150555000Y-117535000D01*
X150555000Y-112395000D02*
X150555000Y-117535000D01*
%TO.C,U3*%
X150184500Y-107641700D02*
X160584500Y-107641700D01*
X160584500Y-107641700D02*
X160584500Y-97361700D01*
X150244500Y-105151700D02*
X160524500Y-105151700D01*
X160524500Y-105151700D02*
X160524500Y-99851700D01*
X150244500Y-103501700D02*
X150244500Y-105151700D01*
X150244500Y-99851700D02*
X150244500Y-101501700D01*
X160524500Y-99851700D02*
X150244500Y-99851700D01*
X150184500Y-97361700D02*
X150184500Y-107641700D01*
X160584500Y-97361700D02*
X150184500Y-97361700D01*
X150244500Y-103501700D02*
G75*
G03*
X150244500Y-101501700I0J1000000D01*
G01*
%TO.C,Q1*%
X128819500Y-93556700D02*
X132419500Y-93556700D01*
X129799500Y-89256701D02*
G75*
G03*
X128807626Y-93548440I820000J-2449999D01*
G01*
X132427945Y-93534384D02*
G75*
G03*
X131399500Y-89256700I-1808445J1827684D01*
G01*
%TO.C,J1*%
X100905000Y-95190000D02*
X102235000Y-95190000D01*
X100905000Y-96520000D02*
X100905000Y-95190000D01*
X100905000Y-97790000D02*
X100905000Y-110550000D01*
X100905000Y-97790000D02*
X103565000Y-97790000D01*
X100905000Y-110550000D02*
X103565000Y-110550000D01*
X103565000Y-97790000D02*
X103565000Y-110550000D01*
%TO.C,REFe*%
G36*
X190533442Y-125779215D02*
G01*
X190766633Y-125841585D01*
X190996304Y-125948821D01*
X191087228Y-126004676D01*
X191204365Y-126092346D01*
X191321215Y-126198232D01*
X191426790Y-126310995D01*
X191510104Y-126419301D01*
X191544215Y-126476223D01*
X191589360Y-126603654D01*
X191594950Y-126726264D01*
X191564217Y-126837234D01*
X191500393Y-126929740D01*
X191406710Y-126996964D01*
X191286400Y-127032083D01*
X191280487Y-127032790D01*
X191194096Y-127035288D01*
X191120159Y-127017593D01*
X191048305Y-126974406D01*
X190968163Y-126900431D01*
X190920597Y-126848962D01*
X190769748Y-126707083D01*
X190612550Y-126609242D01*
X190451637Y-126554771D01*
X190289647Y-126543002D01*
X190129214Y-126573266D01*
X189972975Y-126644895D01*
X189823566Y-126757220D01*
X189683621Y-126909572D01*
X189555777Y-127101283D01*
X189498163Y-127209766D01*
X189425248Y-127375752D01*
X189359448Y-127559009D01*
X189306808Y-127740945D01*
X189273900Y-127899488D01*
X189259102Y-127996391D01*
X189572882Y-127996518D01*
X189731516Y-127998300D01*
X189852536Y-128004771D01*
X189943842Y-128017838D01*
X190013337Y-128039410D01*
X190068922Y-128071393D01*
X190118499Y-128115695D01*
X190133561Y-128131872D01*
X190202430Y-128238942D01*
X190232706Y-128357792D01*
X190225215Y-128478565D01*
X190180787Y-128591409D01*
X190100249Y-128686467D01*
X190085994Y-128697905D01*
X190053390Y-128721541D01*
X190021906Y-128738471D01*
X189983278Y-128750012D01*
X189929243Y-128757478D01*
X189851536Y-128762183D01*
X189741894Y-128765444D01*
X189649116Y-128767421D01*
X189526104Y-128770856D01*
X189419451Y-128775613D01*
X189337361Y-128781185D01*
X189288042Y-128787067D01*
X189277775Y-128790328D01*
X189274079Y-128820402D01*
X189281837Y-128884328D01*
X189298837Y-128972453D01*
X189322865Y-129075126D01*
X189351708Y-129182692D01*
X189383153Y-129285500D01*
X189406660Y-129352478D01*
X189507532Y-129579996D01*
X189625691Y-129776910D01*
X189758321Y-129940551D01*
X189902609Y-130068249D01*
X190055743Y-130157335D01*
X190214906Y-130205140D01*
X190313606Y-130212890D01*
X190489426Y-130191902D01*
X190653364Y-130130139D01*
X190808315Y-130026063D01*
X190957174Y-129878137D01*
X190968235Y-129865158D01*
X191031814Y-129798404D01*
X191097273Y-129743278D01*
X191143578Y-129715173D01*
X191262161Y-129686393D01*
X191371955Y-129697701D01*
X191467489Y-129743702D01*
X191543293Y-129819006D01*
X191593898Y-129918218D01*
X191613834Y-130035946D01*
X191598458Y-130163645D01*
X191550710Y-130277800D01*
X191467717Y-130401621D01*
X191356634Y-130527985D01*
X191224616Y-130649769D01*
X191078815Y-130759850D01*
X190926387Y-130851106D01*
X190889592Y-130869425D01*
X190661148Y-130954624D01*
X190428988Y-130995247D01*
X190196094Y-130991824D01*
X189965451Y-130944885D01*
X189740041Y-130854959D01*
X189522849Y-130722577D01*
X189371536Y-130599736D01*
X189236940Y-130477933D01*
X189105786Y-130595595D01*
X188927912Y-130734523D01*
X188731228Y-130852560D01*
X188533472Y-130939087D01*
X188530018Y-130940288D01*
X188441807Y-130966582D01*
X188352623Y-130982465D01*
X188246462Y-130990054D01*
X188142406Y-130991578D01*
X188012100Y-130988957D01*
X187911165Y-130979683D01*
X187823598Y-130961637D01*
X187754794Y-130940288D01*
X187557181Y-130854425D01*
X187360321Y-130736861D01*
X187181953Y-130598214D01*
X187179026Y-130595595D01*
X187047872Y-130477933D01*
X186913276Y-130599736D01*
X186714077Y-130754395D01*
X186500498Y-130873123D01*
X186278212Y-130954183D01*
X186052894Y-130995839D01*
X185830218Y-130996353D01*
X185690459Y-130974004D01*
X185452450Y-130896629D01*
X185228689Y-130778292D01*
X185020994Y-130621901D01*
X184831183Y-130430369D01*
X184661071Y-130206606D01*
X184512477Y-129953523D01*
X184387217Y-129674030D01*
X184287108Y-129371039D01*
X184213967Y-129047460D01*
X184169611Y-128706204D01*
X184158417Y-128519769D01*
X184160665Y-128339236D01*
X184869620Y-128339236D01*
X184879353Y-128625943D01*
X184915403Y-128907643D01*
X184977696Y-129178452D01*
X185066163Y-129432488D01*
X185180730Y-129663869D01*
X185321327Y-129866713D01*
X185405841Y-129960107D01*
X185560191Y-130090430D01*
X185718309Y-130175399D01*
X185880813Y-130215153D01*
X186048316Y-130209831D01*
X186221434Y-130159571D01*
X186245284Y-130149344D01*
X186332647Y-130099237D01*
X186429897Y-130025671D01*
X186500429Y-129961226D01*
X186634832Y-129826823D01*
X186580670Y-129692531D01*
X186470638Y-129365038D01*
X186394142Y-129016616D01*
X186351224Y-128655268D01*
X186344917Y-128406804D01*
X187062342Y-128406804D01*
X187080420Y-128749654D01*
X187131308Y-129062479D01*
X187215594Y-129347522D01*
X187333866Y-129607025D01*
X187410020Y-129734193D01*
X187548524Y-129917053D01*
X187696642Y-130056696D01*
X187853447Y-130152703D01*
X188018010Y-130204657D01*
X188189403Y-130212139D01*
X188366698Y-130174731D01*
X188378554Y-130170683D01*
X188476177Y-130123899D01*
X188583208Y-130052949D01*
X188682313Y-129970607D01*
X188751549Y-129895822D01*
X188812016Y-129816545D01*
X188770915Y-129710193D01*
X188700275Y-129504720D01*
X188636586Y-129276244D01*
X188586039Y-129047360D01*
X188579374Y-129011023D01*
X188538893Y-128783016D01*
X188277947Y-128771615D01*
X188160119Y-128765370D01*
X188077541Y-128757444D01*
X188019861Y-128745847D01*
X187976728Y-128728589D01*
X187942556Y-128707116D01*
X187855970Y-128619386D01*
X187803670Y-128510268D01*
X187786903Y-128389805D01*
X187806913Y-128268037D01*
X187864947Y-128155008D01*
X187872783Y-128144708D01*
X187942804Y-128077834D01*
X188034258Y-128032462D01*
X188154228Y-128006274D01*
X188309798Y-127996953D01*
X188324812Y-127996864D01*
X188541418Y-127996336D01*
X188582688Y-127739855D01*
X188607811Y-127610087D01*
X188643669Y-127458565D01*
X188685016Y-127306247D01*
X188717772Y-127200159D01*
X188811586Y-126916944D01*
X188674932Y-126788499D01*
X188549795Y-126681721D01*
X188434789Y-126609916D01*
X188318407Y-126567917D01*
X188189143Y-126550558D01*
X188142406Y-126549358D01*
X188038793Y-126552337D01*
X187959352Y-126565368D01*
X187883006Y-126592843D01*
X187842488Y-126611852D01*
X187699022Y-126704515D01*
X187560616Y-126836354D01*
X187431919Y-127000946D01*
X187317584Y-127191866D01*
X187222264Y-127402691D01*
X187178324Y-127528976D01*
X187129956Y-127700767D01*
X187096034Y-127863962D01*
X187074724Y-128032458D01*
X187064189Y-128220151D01*
X187062342Y-128406804D01*
X186344917Y-128406804D01*
X186341926Y-128288995D01*
X186366289Y-127925802D01*
X186424355Y-127573689D01*
X186516164Y-127240659D01*
X186567273Y-127102202D01*
X186633862Y-126936158D01*
X186504606Y-126804090D01*
X186371527Y-126685054D01*
X186240699Y-126605708D01*
X186102672Y-126561672D01*
X185953537Y-126548545D01*
X185807852Y-126560896D01*
X185677480Y-126600916D01*
X185553577Y-126673055D01*
X185427297Y-126781763D01*
X185367867Y-126843228D01*
X185218200Y-127036456D01*
X185095279Y-127259970D01*
X184999032Y-127507887D01*
X184929387Y-127774325D01*
X184886274Y-128053402D01*
X184869620Y-128339236D01*
X184160665Y-128339236D01*
X184163377Y-128121502D01*
X184207120Y-127738300D01*
X184288884Y-127373301D01*
X184407908Y-127029646D01*
X184563427Y-126710475D01*
X184621223Y-126613309D01*
X184766317Y-126410070D01*
X184934965Y-126224359D01*
X185119529Y-126062733D01*
X185312374Y-125931749D01*
X185505864Y-125837963D01*
X185537583Y-125826429D01*
X185690303Y-125789348D01*
X185867731Y-125771209D01*
X186053100Y-125771999D01*
X186229640Y-125791704D01*
X186371380Y-125827057D01*
X186507231Y-125885907D01*
X186654839Y-125969394D01*
X186797274Y-126066706D01*
X186917607Y-126167031D01*
X186943116Y-126192204D01*
X187032067Y-126283922D01*
X187163368Y-126165426D01*
X187383278Y-125996194D01*
X187625812Y-125865965D01*
X187703685Y-125834064D01*
X187775578Y-125808528D01*
X187840975Y-125791561D01*
X187912498Y-125781464D01*
X188002775Y-125776540D01*
X188124428Y-125775091D01*
X188142406Y-125775070D01*
X188267269Y-125775971D01*
X188359098Y-125779979D01*
X188430438Y-125788846D01*
X188493837Y-125804327D01*
X188561841Y-125828175D01*
X188583848Y-125836761D01*
X188731795Y-125906083D01*
X188883789Y-125995958D01*
X189023520Y-126095813D01*
X189131420Y-126191698D01*
X189219806Y-126282765D01*
X189393628Y-126134328D01*
X189610586Y-125974953D01*
X189835302Y-125859582D01*
X190065520Y-125788387D01*
X190298985Y-125761540D01*
X190533442Y-125779215D01*
G37*
%TO.C,C9*%
X171270800Y-111839400D02*
X171270800Y-111824400D01*
X171270800Y-111839400D02*
X166730800Y-111839400D01*
X171270800Y-109714400D02*
X171270800Y-109699400D01*
X171270800Y-109699400D02*
X166730800Y-109699400D01*
X166730800Y-111839400D02*
X166730800Y-111824400D01*
X166730800Y-109714400D02*
X166730800Y-109699400D01*
%TO.C,C11*%
X157999500Y-114935000D02*
G75*
G03*
X151459500Y-114935000I-3270000J0D01*
G01*
X151459500Y-114935000D02*
G75*
G03*
X157999500Y-114935000I3270000J0D01*
G01*
%TO.C,R7*%
X125539500Y-88836700D02*
X125539500Y-89786700D01*
X126459500Y-89786700D02*
X124619500Y-89786700D01*
X124619500Y-89786700D02*
X124619500Y-93626700D01*
X126459500Y-93626700D02*
X126459500Y-89786700D01*
X124619500Y-93626700D02*
X126459500Y-93626700D01*
X125539500Y-94576700D02*
X125539500Y-93626700D01*
%TO.C,R19*%
X170319500Y-105676700D02*
X169369500Y-105676700D01*
X169369500Y-106596700D02*
X169369500Y-104756700D01*
X169369500Y-104756700D02*
X165529500Y-104756700D01*
X165529500Y-106596700D02*
X169369500Y-106596700D01*
X165529500Y-104756700D02*
X165529500Y-106596700D01*
X164579500Y-105676700D02*
X165529500Y-105676700D01*
%TO.C,R2*%
X112090000Y-101600000D02*
X111140000Y-101600000D01*
X111140000Y-102520000D02*
X111140000Y-100680000D01*
X111140000Y-100680000D02*
X107300000Y-100680000D01*
X107300000Y-102520000D02*
X111140000Y-102520000D01*
X107300000Y-100680000D02*
X107300000Y-102520000D01*
X106350000Y-101600000D02*
X107300000Y-101600000D01*
%TO.C,J3*%
X149542500Y-121170700D02*
X129476500Y-121170700D01*
X129476500Y-121170700D02*
X129476500Y-129552700D01*
X133099500Y-122761700D02*
X145919500Y-122761700D01*
X135699500Y-125361700D02*
X133099500Y-125361700D01*
X133099500Y-125361700D02*
X133099500Y-122761700D01*
X145919500Y-127961700D02*
X145919500Y-122761700D01*
X135699500Y-127961700D02*
X135699500Y-125361700D01*
X135699500Y-127961700D02*
X145919500Y-127961700D01*
X134429500Y-127961700D02*
X133099500Y-127961700D01*
X133099500Y-127961700D02*
X133099500Y-126631700D01*
X149542500Y-129552700D02*
X149542500Y-121170700D01*
X141414500Y-129552700D02*
X149542500Y-129552700D01*
X129476500Y-129552700D02*
X137604500Y-129552700D01*
%TO.C,R13*%
X140779500Y-88836700D02*
X140779500Y-89786700D01*
X141699500Y-89786700D02*
X139859500Y-89786700D01*
X139859500Y-89786700D02*
X139859500Y-93626700D01*
X141699500Y-93626700D02*
X141699500Y-89786700D01*
X139859500Y-93626700D02*
X141699500Y-93626700D01*
X140779500Y-94576700D02*
X140779500Y-93626700D01*
%TD*%
M02*
