%TF.GenerationSoftware,KiCad,Pcbnew,7.0.10*%
%TF.CreationDate,2025-10-26T16:30:34+00:00*%
%TF.ProjectId,Polivoks filter-R,506f6c69-766f-46b7-9320-66696c746572,rev?*%
%TF.SameCoordinates,Original*%
%TF.FileFunction,Soldermask,Top*%
%TF.FilePolarity,Negative*%
%FSLAX46Y46*%
G04 Gerber Fmt 4.6, Leading zero omitted, Abs format (unit mm)*
G04 Created by KiCad (PCBNEW 7.0.10) date 2025-10-26 16:30:34*
%MOMM*%
%LPD*%
G01*
G04 APERTURE LIST*
G04 Aperture macros list*
%AMRoundRect*
0 Rectangle with rounded corners*
0 $1 Rounding radius*
0 $2 $3 $4 $5 $6 $7 $8 $9 X,Y pos of 4 corners*
0 Add a 4 corners polygon primitive as box body*
4,1,4,$2,$3,$4,$5,$6,$7,$8,$9,$2,$3,0*
0 Add four circle primitives for the rounded corners*
1,1,$1+$1,$2,$3*
1,1,$1+$1,$4,$5*
1,1,$1+$1,$6,$7*
1,1,$1+$1,$8,$9*
0 Add four rect primitives between the rounded corners*
20,1,$1+$1,$2,$3,$4,$5,0*
20,1,$1+$1,$4,$5,$6,$7,0*
20,1,$1+$1,$6,$7,$8,$9,0*
20,1,$1+$1,$8,$9,$2,$3,0*%
G04 Aperture macros list end*
%ADD10R,1.600000X1.600000*%
%ADD11O,1.600000X1.600000*%
%ADD12C,1.600000*%
%ADD13C,1.400000*%
%ADD14O,1.400000X1.400000*%
%ADD15C,3.200000*%
%ADD16R,1.700000X1.700000*%
%ADD17O,1.700000X1.700000*%
%ADD18R,1.100000X1.800000*%
%ADD19RoundRect,0.275000X-0.275000X-0.625000X0.275000X-0.625000X0.275000X0.625000X-0.275000X0.625000X0*%
G04 APERTURE END LIST*
D10*
%TO.C,U2*%
X135699500Y-106311700D03*
D11*
X138239500Y-106311700D03*
X140779500Y-106311700D03*
X143319500Y-106311700D03*
X143319500Y-98691700D03*
X140779500Y-98691700D03*
X138239500Y-98691700D03*
X135699500Y-98691700D03*
%TD*%
D12*
%TO.C,C6*%
X143319500Y-109526700D03*
X143319500Y-114526700D03*
%TD*%
D13*
%TO.C,R29*%
X175056800Y-93599000D03*
D14*
X182676800Y-93599000D03*
%TD*%
D12*
%TO.C,C3*%
X120459500Y-95516700D03*
X120459500Y-90516700D03*
%TD*%
D13*
%TO.C,R17*%
X171259500Y-108216700D03*
D14*
X163639500Y-108216700D03*
%TD*%
D13*
%TO.C,R22*%
X192849500Y-113284000D03*
D14*
X185229500Y-113284000D03*
%TD*%
D10*
%TO.C,U1*%
X120459500Y-106311700D03*
D11*
X122999500Y-106311700D03*
X125539500Y-106311700D03*
X128079500Y-106311700D03*
X128079500Y-98691700D03*
X125539500Y-98691700D03*
X122999500Y-98691700D03*
X120459500Y-98691700D03*
%TD*%
D13*
%TO.C,R1*%
X113030000Y-99060000D03*
D14*
X105410000Y-99060000D03*
%TD*%
D13*
%TO.C,R3*%
X113030000Y-106680000D03*
D14*
X105410000Y-106680000D03*
%TD*%
D15*
%TO.C,REF\u002A\u002A*%
X189230000Y-90170000D03*
%TD*%
D13*
%TO.C,R27*%
X185229500Y-108216700D03*
D14*
X192849500Y-108216700D03*
%TD*%
D16*
%TO.C,J12*%
X131826000Y-109479000D03*
D17*
X131826000Y-106939000D03*
%TD*%
D16*
%TO.C,J13*%
X175666400Y-125704600D03*
D17*
X178206400Y-125704600D03*
X180746400Y-125704600D03*
%TD*%
D13*
%TO.C,R23*%
X175056800Y-96139000D03*
D14*
X182676800Y-96139000D03*
%TD*%
D10*
%TO.C,C1*%
X130581400Y-115773200D03*
D12*
X128081400Y-115773200D03*
%TD*%
D10*
%TO.C,C2*%
X156654500Y-121591700D03*
D12*
X156654500Y-124091700D03*
%TD*%
D13*
%TO.C,R21*%
X163639500Y-120916700D03*
D14*
X171259500Y-120916700D03*
%TD*%
D13*
%TO.C,R6*%
X116014500Y-98691700D03*
D14*
X116014500Y-106311700D03*
%TD*%
D12*
%TO.C,C7*%
X154152600Y-95478600D03*
X154152600Y-90478600D03*
%TD*%
D13*
%TO.C,R26*%
X192849500Y-115824000D03*
D14*
X185229500Y-115824000D03*
%TD*%
D13*
%TO.C,R24*%
X171259500Y-123456700D03*
D14*
X163639500Y-123456700D03*
%TD*%
D12*
%TO.C,C4*%
X128079500Y-109566700D03*
X123079500Y-109566700D03*
%TD*%
%TO.C,C8*%
X159194500Y-109526700D03*
X154194500Y-109526700D03*
%TD*%
%TO.C,FB1*%
X127444500Y-121551700D03*
D11*
X127444500Y-129171700D03*
%TD*%
D13*
%TO.C,R25*%
X185229500Y-118364000D03*
D14*
X192849500Y-118364000D03*
%TD*%
D13*
%TO.C,R9*%
X140779500Y-109486700D03*
D14*
X140779500Y-117106700D03*
%TD*%
D12*
%TO.C,C12*%
X164465000Y-95885000D03*
X164465000Y-98385000D03*
%TD*%
D13*
%TO.C,R16*%
X171259500Y-115836700D03*
D14*
X163639500Y-115836700D03*
%TD*%
D13*
%TO.C,R28*%
X185229500Y-105676700D03*
D14*
X192849500Y-105676700D03*
%TD*%
D13*
%TO.C,R12*%
X135699500Y-87896700D03*
D14*
X135699500Y-95516700D03*
%TD*%
D12*
%TO.C,C5*%
X138252200Y-95464000D03*
X138252200Y-90464000D03*
%TD*%
D13*
%TO.C,R5*%
X113030000Y-104140000D03*
D14*
X105410000Y-104140000D03*
%TD*%
D13*
%TO.C,R15*%
X147129500Y-87896700D03*
D14*
X147129500Y-95516700D03*
%TD*%
D13*
%TO.C,R18*%
X163639500Y-118376700D03*
D14*
X171259500Y-118376700D03*
%TD*%
D12*
%TO.C,FB2*%
X151574500Y-121551700D03*
D11*
X151574500Y-129171700D03*
%TD*%
D13*
%TO.C,R20*%
X175069500Y-98691700D03*
D14*
X182689500Y-98691700D03*
%TD*%
D12*
%TO.C,C10*%
X185269500Y-110744000D03*
X190269500Y-110744000D03*
%TD*%
D13*
%TO.C,R14*%
X143319500Y-87896700D03*
D14*
X143319500Y-95516700D03*
%TD*%
D16*
%TO.C,J4*%
X171894500Y-98681700D03*
D17*
X171894500Y-96141700D03*
X171894500Y-93601700D03*
X171894500Y-91061700D03*
%TD*%
D13*
%TO.C,R8*%
X122999500Y-87896700D03*
D14*
X122999500Y-95516700D03*
%TD*%
D13*
%TO.C,R10*%
X147129500Y-98691700D03*
D14*
X147129500Y-106311700D03*
%TD*%
D13*
%TO.C,R11*%
X138239500Y-109486700D03*
D14*
X138239500Y-117106700D03*
%TD*%
D13*
%TO.C,R4*%
X135636000Y-117094000D03*
D14*
X135636000Y-109474000D03*
%TD*%
D10*
%TO.C,U4*%
X174434500Y-105676700D03*
D11*
X174434500Y-108216700D03*
X174434500Y-110756700D03*
X174434500Y-113296700D03*
X174434500Y-115836700D03*
X174434500Y-118376700D03*
X174434500Y-120916700D03*
X182054500Y-120916700D03*
X182054500Y-118376700D03*
X182054500Y-115836700D03*
X182054500Y-113296700D03*
X182054500Y-110756700D03*
X182054500Y-108216700D03*
X182054500Y-105676700D03*
%TD*%
D16*
%TO.C,J2*%
X149225000Y-111125000D03*
D17*
X149225000Y-113665000D03*
X149225000Y-116205000D03*
%TD*%
D10*
%TO.C,U3*%
X151574500Y-106311700D03*
D11*
X154114500Y-106311700D03*
X156654500Y-106311700D03*
X159194500Y-106311700D03*
X159194500Y-98691700D03*
X156654500Y-98691700D03*
X154114500Y-98691700D03*
X151574500Y-98691700D03*
%TD*%
D18*
%TO.C,Q1*%
X129349500Y-92106700D03*
D19*
X130619500Y-90036700D03*
X131889500Y-92106700D03*
%TD*%
D16*
%TO.C,J1*%
X102235000Y-96520000D03*
D17*
X102235000Y-99060000D03*
X102235000Y-101600000D03*
X102235000Y-104140000D03*
X102235000Y-106680000D03*
X102235000Y-109220000D03*
%TD*%
D12*
%TO.C,C9*%
X171500800Y-110769400D03*
X166500800Y-110769400D03*
%TD*%
%TO.C,C11*%
X153479500Y-114935000D03*
X155979500Y-114935000D03*
%TD*%
D15*
%TO.C,REF\u002A\u002A*%
X103505000Y-90170000D03*
%TD*%
D13*
%TO.C,R7*%
X125539500Y-87896700D03*
D14*
X125539500Y-95516700D03*
%TD*%
D13*
%TO.C,R19*%
X171259500Y-105676700D03*
D14*
X163639500Y-105676700D03*
%TD*%
D13*
%TO.C,R2*%
X113030000Y-101600000D03*
D14*
X105410000Y-101600000D03*
%TD*%
D16*
%TO.C,J3*%
X134429500Y-126631700D03*
D17*
X134429500Y-124091700D03*
X136969500Y-126631700D03*
X136969500Y-124091700D03*
X139509500Y-126631700D03*
X139509500Y-124091700D03*
X142049500Y-126631700D03*
X142049500Y-124091700D03*
X144589500Y-126631700D03*
X144589500Y-124091700D03*
%TD*%
D13*
%TO.C,R13*%
X140779500Y-87896700D03*
D14*
X140779500Y-95516700D03*
%TD*%
M02*
