%TF.GenerationSoftware,KiCad,Pcbnew,7.0.10*%
%TF.CreationDate,2025-10-26T16:30:40+00:00*%
%TF.ProjectId,Polivoks filter-R,506f6c69-766f-46b7-9320-66696c746572,rev?*%
%TF.SameCoordinates,Original*%
%TF.FileFunction,Drillmap*%
%TF.FilePolarity,Positive*%
%FSLAX45Y45*%
G04 Gerber Fmt 4.5, Leading zero omitted, Abs format (unit mm)*
G04 Created by KiCad (PCBNEW 7.0.10) date 2025-10-26 16:30:40*
%MOMM*%
%LPD*%
G01*
G04 APERTURE LIST*
%ADD10C,0.100000*%
%ADD11C,0.200000*%
%ADD12C,0.320000*%
G04 APERTURE END LIST*
D10*
X9759950Y-8535670D02*
X19475450Y-8535670D01*
X19475450Y-13171170D01*
X9759950Y-13171170D01*
X9759950Y-8535670D01*
D11*
D12*
X10190500Y-8857000D02*
X10510500Y-9177000D01*
X10510500Y-8857000D02*
X10190500Y-9177000D01*
X18763000Y-8857000D02*
X19083000Y-9177000D01*
X19083000Y-8857000D02*
X18763000Y-9177000D01*
D11*
X10015727Y-13487654D02*
X10015727Y-13287654D01*
X10015727Y-13287654D02*
X10063346Y-13287654D01*
X10063346Y-13287654D02*
X10091917Y-13297178D01*
X10091917Y-13297178D02*
X10110965Y-13316225D01*
X10110965Y-13316225D02*
X10120489Y-13335273D01*
X10120489Y-13335273D02*
X10130013Y-13373368D01*
X10130013Y-13373368D02*
X10130013Y-13401939D01*
X10130013Y-13401939D02*
X10120489Y-13440035D01*
X10120489Y-13440035D02*
X10110965Y-13459082D01*
X10110965Y-13459082D02*
X10091917Y-13478130D01*
X10091917Y-13478130D02*
X10063346Y-13487654D01*
X10063346Y-13487654D02*
X10015727Y-13487654D01*
X10215727Y-13487654D02*
X10215727Y-13354320D01*
X10215727Y-13392416D02*
X10225251Y-13373368D01*
X10225251Y-13373368D02*
X10234774Y-13363844D01*
X10234774Y-13363844D02*
X10253822Y-13354320D01*
X10253822Y-13354320D02*
X10272870Y-13354320D01*
X10339536Y-13487654D02*
X10339536Y-13354320D01*
X10339536Y-13287654D02*
X10330013Y-13297178D01*
X10330013Y-13297178D02*
X10339536Y-13306701D01*
X10339536Y-13306701D02*
X10349060Y-13297178D01*
X10349060Y-13297178D02*
X10339536Y-13287654D01*
X10339536Y-13287654D02*
X10339536Y-13306701D01*
X10463346Y-13487654D02*
X10444298Y-13478130D01*
X10444298Y-13478130D02*
X10434774Y-13459082D01*
X10434774Y-13459082D02*
X10434774Y-13287654D01*
X10568108Y-13487654D02*
X10549060Y-13478130D01*
X10549060Y-13478130D02*
X10539536Y-13459082D01*
X10539536Y-13459082D02*
X10539536Y-13287654D01*
X10796679Y-13487654D02*
X10796679Y-13287654D01*
X10796679Y-13287654D02*
X10863346Y-13430511D01*
X10863346Y-13430511D02*
X10930013Y-13287654D01*
X10930013Y-13287654D02*
X10930013Y-13487654D01*
X11110965Y-13487654D02*
X11110965Y-13382892D01*
X11110965Y-13382892D02*
X11101441Y-13363844D01*
X11101441Y-13363844D02*
X11082394Y-13354320D01*
X11082394Y-13354320D02*
X11044298Y-13354320D01*
X11044298Y-13354320D02*
X11025251Y-13363844D01*
X11110965Y-13478130D02*
X11091917Y-13487654D01*
X11091917Y-13487654D02*
X11044298Y-13487654D01*
X11044298Y-13487654D02*
X11025251Y-13478130D01*
X11025251Y-13478130D02*
X11015727Y-13459082D01*
X11015727Y-13459082D02*
X11015727Y-13440035D01*
X11015727Y-13440035D02*
X11025251Y-13420987D01*
X11025251Y-13420987D02*
X11044298Y-13411463D01*
X11044298Y-13411463D02*
X11091917Y-13411463D01*
X11091917Y-13411463D02*
X11110965Y-13401939D01*
X11206203Y-13354320D02*
X11206203Y-13554320D01*
X11206203Y-13363844D02*
X11225251Y-13354320D01*
X11225251Y-13354320D02*
X11263346Y-13354320D01*
X11263346Y-13354320D02*
X11282393Y-13363844D01*
X11282393Y-13363844D02*
X11291917Y-13373368D01*
X11291917Y-13373368D02*
X11301441Y-13392416D01*
X11301441Y-13392416D02*
X11301441Y-13449558D01*
X11301441Y-13449558D02*
X11291917Y-13468606D01*
X11291917Y-13468606D02*
X11282393Y-13478130D01*
X11282393Y-13478130D02*
X11263346Y-13487654D01*
X11263346Y-13487654D02*
X11225251Y-13487654D01*
X11225251Y-13487654D02*
X11206203Y-13478130D01*
X11387155Y-13468606D02*
X11396679Y-13478130D01*
X11396679Y-13478130D02*
X11387155Y-13487654D01*
X11387155Y-13487654D02*
X11377632Y-13478130D01*
X11377632Y-13478130D02*
X11387155Y-13468606D01*
X11387155Y-13468606D02*
X11387155Y-13487654D01*
X11387155Y-13363844D02*
X11396679Y-13373368D01*
X11396679Y-13373368D02*
X11387155Y-13382892D01*
X11387155Y-13382892D02*
X11377632Y-13373368D01*
X11377632Y-13373368D02*
X11387155Y-13363844D01*
X11387155Y-13363844D02*
X11387155Y-13382892D01*
X9554950Y-13716170D02*
X9754950Y-13916170D01*
X9754950Y-13716170D02*
X9554950Y-13916170D01*
X9996679Y-13707654D02*
X10120489Y-13707654D01*
X10120489Y-13707654D02*
X10053822Y-13783844D01*
X10053822Y-13783844D02*
X10082394Y-13783844D01*
X10082394Y-13783844D02*
X10101441Y-13793368D01*
X10101441Y-13793368D02*
X10110965Y-13802892D01*
X10110965Y-13802892D02*
X10120489Y-13821939D01*
X10120489Y-13821939D02*
X10120489Y-13869558D01*
X10120489Y-13869558D02*
X10110965Y-13888606D01*
X10110965Y-13888606D02*
X10101441Y-13898130D01*
X10101441Y-13898130D02*
X10082394Y-13907654D01*
X10082394Y-13907654D02*
X10025251Y-13907654D01*
X10025251Y-13907654D02*
X10006203Y-13898130D01*
X10006203Y-13898130D02*
X9996679Y-13888606D01*
X10206203Y-13888606D02*
X10215727Y-13898130D01*
X10215727Y-13898130D02*
X10206203Y-13907654D01*
X10206203Y-13907654D02*
X10196679Y-13898130D01*
X10196679Y-13898130D02*
X10206203Y-13888606D01*
X10206203Y-13888606D02*
X10206203Y-13907654D01*
X10291917Y-13726701D02*
X10301441Y-13717178D01*
X10301441Y-13717178D02*
X10320489Y-13707654D01*
X10320489Y-13707654D02*
X10368108Y-13707654D01*
X10368108Y-13707654D02*
X10387155Y-13717178D01*
X10387155Y-13717178D02*
X10396679Y-13726701D01*
X10396679Y-13726701D02*
X10406203Y-13745749D01*
X10406203Y-13745749D02*
X10406203Y-13764797D01*
X10406203Y-13764797D02*
X10396679Y-13793368D01*
X10396679Y-13793368D02*
X10282394Y-13907654D01*
X10282394Y-13907654D02*
X10406203Y-13907654D01*
X10530013Y-13707654D02*
X10549060Y-13707654D01*
X10549060Y-13707654D02*
X10568108Y-13717178D01*
X10568108Y-13717178D02*
X10577632Y-13726701D01*
X10577632Y-13726701D02*
X10587155Y-13745749D01*
X10587155Y-13745749D02*
X10596679Y-13783844D01*
X10596679Y-13783844D02*
X10596679Y-13831463D01*
X10596679Y-13831463D02*
X10587155Y-13869558D01*
X10587155Y-13869558D02*
X10577632Y-13888606D01*
X10577632Y-13888606D02*
X10568108Y-13898130D01*
X10568108Y-13898130D02*
X10549060Y-13907654D01*
X10549060Y-13907654D02*
X10530013Y-13907654D01*
X10530013Y-13907654D02*
X10510965Y-13898130D01*
X10510965Y-13898130D02*
X10501441Y-13888606D01*
X10501441Y-13888606D02*
X10491917Y-13869558D01*
X10491917Y-13869558D02*
X10482394Y-13831463D01*
X10482394Y-13831463D02*
X10482394Y-13783844D01*
X10482394Y-13783844D02*
X10491917Y-13745749D01*
X10491917Y-13745749D02*
X10501441Y-13726701D01*
X10501441Y-13726701D02*
X10510965Y-13717178D01*
X10510965Y-13717178D02*
X10530013Y-13707654D01*
X10720489Y-13707654D02*
X10739536Y-13707654D01*
X10739536Y-13707654D02*
X10758584Y-13717178D01*
X10758584Y-13717178D02*
X10768108Y-13726701D01*
X10768108Y-13726701D02*
X10777632Y-13745749D01*
X10777632Y-13745749D02*
X10787155Y-13783844D01*
X10787155Y-13783844D02*
X10787155Y-13831463D01*
X10787155Y-13831463D02*
X10777632Y-13869558D01*
X10777632Y-13869558D02*
X10768108Y-13888606D01*
X10768108Y-13888606D02*
X10758584Y-13898130D01*
X10758584Y-13898130D02*
X10739536Y-13907654D01*
X10739536Y-13907654D02*
X10720489Y-13907654D01*
X10720489Y-13907654D02*
X10701441Y-13898130D01*
X10701441Y-13898130D02*
X10691917Y-13888606D01*
X10691917Y-13888606D02*
X10682394Y-13869558D01*
X10682394Y-13869558D02*
X10672870Y-13831463D01*
X10672870Y-13831463D02*
X10672870Y-13783844D01*
X10672870Y-13783844D02*
X10682394Y-13745749D01*
X10682394Y-13745749D02*
X10691917Y-13726701D01*
X10691917Y-13726701D02*
X10701441Y-13717178D01*
X10701441Y-13717178D02*
X10720489Y-13707654D01*
X10872870Y-13907654D02*
X10872870Y-13774320D01*
X10872870Y-13793368D02*
X10882394Y-13783844D01*
X10882394Y-13783844D02*
X10901441Y-13774320D01*
X10901441Y-13774320D02*
X10930013Y-13774320D01*
X10930013Y-13774320D02*
X10949060Y-13783844D01*
X10949060Y-13783844D02*
X10958584Y-13802892D01*
X10958584Y-13802892D02*
X10958584Y-13907654D01*
X10958584Y-13802892D02*
X10968108Y-13783844D01*
X10968108Y-13783844D02*
X10987155Y-13774320D01*
X10987155Y-13774320D02*
X11015727Y-13774320D01*
X11015727Y-13774320D02*
X11034775Y-13783844D01*
X11034775Y-13783844D02*
X11044298Y-13802892D01*
X11044298Y-13802892D02*
X11044298Y-13907654D01*
X11139536Y-13907654D02*
X11139536Y-13774320D01*
X11139536Y-13793368D02*
X11149060Y-13783844D01*
X11149060Y-13783844D02*
X11168108Y-13774320D01*
X11168108Y-13774320D02*
X11196679Y-13774320D01*
X11196679Y-13774320D02*
X11215727Y-13783844D01*
X11215727Y-13783844D02*
X11225251Y-13802892D01*
X11225251Y-13802892D02*
X11225251Y-13907654D01*
X11225251Y-13802892D02*
X11234774Y-13783844D01*
X11234774Y-13783844D02*
X11253822Y-13774320D01*
X11253822Y-13774320D02*
X11282393Y-13774320D01*
X11282393Y-13774320D02*
X11301441Y-13783844D01*
X11301441Y-13783844D02*
X11310965Y-13802892D01*
X11310965Y-13802892D02*
X11310965Y-13907654D01*
X11701441Y-13698130D02*
X11530013Y-13955273D01*
X11958584Y-13707654D02*
X11977632Y-13707654D01*
X11977632Y-13707654D02*
X11996679Y-13717178D01*
X11996679Y-13717178D02*
X12006203Y-13726701D01*
X12006203Y-13726701D02*
X12015727Y-13745749D01*
X12015727Y-13745749D02*
X12025251Y-13783844D01*
X12025251Y-13783844D02*
X12025251Y-13831463D01*
X12025251Y-13831463D02*
X12015727Y-13869558D01*
X12015727Y-13869558D02*
X12006203Y-13888606D01*
X12006203Y-13888606D02*
X11996679Y-13898130D01*
X11996679Y-13898130D02*
X11977632Y-13907654D01*
X11977632Y-13907654D02*
X11958584Y-13907654D01*
X11958584Y-13907654D02*
X11939536Y-13898130D01*
X11939536Y-13898130D02*
X11930013Y-13888606D01*
X11930013Y-13888606D02*
X11920489Y-13869558D01*
X11920489Y-13869558D02*
X11910965Y-13831463D01*
X11910965Y-13831463D02*
X11910965Y-13783844D01*
X11910965Y-13783844D02*
X11920489Y-13745749D01*
X11920489Y-13745749D02*
X11930013Y-13726701D01*
X11930013Y-13726701D02*
X11939536Y-13717178D01*
X11939536Y-13717178D02*
X11958584Y-13707654D01*
X12110965Y-13888606D02*
X12120489Y-13898130D01*
X12120489Y-13898130D02*
X12110965Y-13907654D01*
X12110965Y-13907654D02*
X12101441Y-13898130D01*
X12101441Y-13898130D02*
X12110965Y-13888606D01*
X12110965Y-13888606D02*
X12110965Y-13907654D01*
X12310965Y-13907654D02*
X12196679Y-13907654D01*
X12253822Y-13907654D02*
X12253822Y-13707654D01*
X12253822Y-13707654D02*
X12234775Y-13736225D01*
X12234775Y-13736225D02*
X12215727Y-13755273D01*
X12215727Y-13755273D02*
X12196679Y-13764797D01*
X12387156Y-13726701D02*
X12396679Y-13717178D01*
X12396679Y-13717178D02*
X12415727Y-13707654D01*
X12415727Y-13707654D02*
X12463346Y-13707654D01*
X12463346Y-13707654D02*
X12482394Y-13717178D01*
X12482394Y-13717178D02*
X12491917Y-13726701D01*
X12491917Y-13726701D02*
X12501441Y-13745749D01*
X12501441Y-13745749D02*
X12501441Y-13764797D01*
X12501441Y-13764797D02*
X12491917Y-13793368D01*
X12491917Y-13793368D02*
X12377632Y-13907654D01*
X12377632Y-13907654D02*
X12501441Y-13907654D01*
X12672870Y-13707654D02*
X12634775Y-13707654D01*
X12634775Y-13707654D02*
X12615727Y-13717178D01*
X12615727Y-13717178D02*
X12606203Y-13726701D01*
X12606203Y-13726701D02*
X12587156Y-13755273D01*
X12587156Y-13755273D02*
X12577632Y-13793368D01*
X12577632Y-13793368D02*
X12577632Y-13869558D01*
X12577632Y-13869558D02*
X12587156Y-13888606D01*
X12587156Y-13888606D02*
X12596679Y-13898130D01*
X12596679Y-13898130D02*
X12615727Y-13907654D01*
X12615727Y-13907654D02*
X12653822Y-13907654D01*
X12653822Y-13907654D02*
X12672870Y-13898130D01*
X12672870Y-13898130D02*
X12682394Y-13888606D01*
X12682394Y-13888606D02*
X12691917Y-13869558D01*
X12691917Y-13869558D02*
X12691917Y-13821939D01*
X12691917Y-13821939D02*
X12682394Y-13802892D01*
X12682394Y-13802892D02*
X12672870Y-13793368D01*
X12672870Y-13793368D02*
X12653822Y-13783844D01*
X12653822Y-13783844D02*
X12615727Y-13783844D01*
X12615727Y-13783844D02*
X12596679Y-13793368D01*
X12596679Y-13793368D02*
X12587156Y-13802892D01*
X12587156Y-13802892D02*
X12577632Y-13821939D01*
X12815727Y-13707654D02*
X12834775Y-13707654D01*
X12834775Y-13707654D02*
X12853822Y-13717178D01*
X12853822Y-13717178D02*
X12863346Y-13726701D01*
X12863346Y-13726701D02*
X12872870Y-13745749D01*
X12872870Y-13745749D02*
X12882394Y-13783844D01*
X12882394Y-13783844D02*
X12882394Y-13831463D01*
X12882394Y-13831463D02*
X12872870Y-13869558D01*
X12872870Y-13869558D02*
X12863346Y-13888606D01*
X12863346Y-13888606D02*
X12853822Y-13898130D01*
X12853822Y-13898130D02*
X12834775Y-13907654D01*
X12834775Y-13907654D02*
X12815727Y-13907654D01*
X12815727Y-13907654D02*
X12796679Y-13898130D01*
X12796679Y-13898130D02*
X12787156Y-13888606D01*
X12787156Y-13888606D02*
X12777632Y-13869558D01*
X12777632Y-13869558D02*
X12768108Y-13831463D01*
X12768108Y-13831463D02*
X12768108Y-13783844D01*
X12768108Y-13783844D02*
X12777632Y-13745749D01*
X12777632Y-13745749D02*
X12787156Y-13726701D01*
X12787156Y-13726701D02*
X12796679Y-13717178D01*
X12796679Y-13717178D02*
X12815727Y-13707654D01*
X12958584Y-13707654D02*
X12958584Y-13745749D01*
X13034775Y-13707654D02*
X13034775Y-13745749D01*
X13330013Y-13983844D02*
X13320489Y-13974320D01*
X13320489Y-13974320D02*
X13301441Y-13945749D01*
X13301441Y-13945749D02*
X13291918Y-13926701D01*
X13291918Y-13926701D02*
X13282394Y-13898130D01*
X13282394Y-13898130D02*
X13272870Y-13850511D01*
X13272870Y-13850511D02*
X13272870Y-13812416D01*
X13272870Y-13812416D02*
X13282394Y-13764797D01*
X13282394Y-13764797D02*
X13291918Y-13736225D01*
X13291918Y-13736225D02*
X13301441Y-13717178D01*
X13301441Y-13717178D02*
X13320489Y-13688606D01*
X13320489Y-13688606D02*
X13330013Y-13679082D01*
X13396679Y-13726701D02*
X13406203Y-13717178D01*
X13406203Y-13717178D02*
X13425251Y-13707654D01*
X13425251Y-13707654D02*
X13472870Y-13707654D01*
X13472870Y-13707654D02*
X13491918Y-13717178D01*
X13491918Y-13717178D02*
X13501441Y-13726701D01*
X13501441Y-13726701D02*
X13510965Y-13745749D01*
X13510965Y-13745749D02*
X13510965Y-13764797D01*
X13510965Y-13764797D02*
X13501441Y-13793368D01*
X13501441Y-13793368D02*
X13387156Y-13907654D01*
X13387156Y-13907654D02*
X13510965Y-13907654D01*
X13749060Y-13907654D02*
X13749060Y-13707654D01*
X13834775Y-13907654D02*
X13834775Y-13802892D01*
X13834775Y-13802892D02*
X13825251Y-13783844D01*
X13825251Y-13783844D02*
X13806203Y-13774320D01*
X13806203Y-13774320D02*
X13777632Y-13774320D01*
X13777632Y-13774320D02*
X13758584Y-13783844D01*
X13758584Y-13783844D02*
X13749060Y-13793368D01*
X13958584Y-13907654D02*
X13939537Y-13898130D01*
X13939537Y-13898130D02*
X13930013Y-13888606D01*
X13930013Y-13888606D02*
X13920489Y-13869558D01*
X13920489Y-13869558D02*
X13920489Y-13812416D01*
X13920489Y-13812416D02*
X13930013Y-13793368D01*
X13930013Y-13793368D02*
X13939537Y-13783844D01*
X13939537Y-13783844D02*
X13958584Y-13774320D01*
X13958584Y-13774320D02*
X13987156Y-13774320D01*
X13987156Y-13774320D02*
X14006203Y-13783844D01*
X14006203Y-13783844D02*
X14015727Y-13793368D01*
X14015727Y-13793368D02*
X14025251Y-13812416D01*
X14025251Y-13812416D02*
X14025251Y-13869558D01*
X14025251Y-13869558D02*
X14015727Y-13888606D01*
X14015727Y-13888606D02*
X14006203Y-13898130D01*
X14006203Y-13898130D02*
X13987156Y-13907654D01*
X13987156Y-13907654D02*
X13958584Y-13907654D01*
X14139537Y-13907654D02*
X14120489Y-13898130D01*
X14120489Y-13898130D02*
X14110965Y-13879082D01*
X14110965Y-13879082D02*
X14110965Y-13707654D01*
X14291918Y-13898130D02*
X14272870Y-13907654D01*
X14272870Y-13907654D02*
X14234775Y-13907654D01*
X14234775Y-13907654D02*
X14215727Y-13898130D01*
X14215727Y-13898130D02*
X14206203Y-13879082D01*
X14206203Y-13879082D02*
X14206203Y-13802892D01*
X14206203Y-13802892D02*
X14215727Y-13783844D01*
X14215727Y-13783844D02*
X14234775Y-13774320D01*
X14234775Y-13774320D02*
X14272870Y-13774320D01*
X14272870Y-13774320D02*
X14291918Y-13783844D01*
X14291918Y-13783844D02*
X14301441Y-13802892D01*
X14301441Y-13802892D02*
X14301441Y-13821939D01*
X14301441Y-13821939D02*
X14206203Y-13840987D01*
X14377632Y-13898130D02*
X14396680Y-13907654D01*
X14396680Y-13907654D02*
X14434775Y-13907654D01*
X14434775Y-13907654D02*
X14453822Y-13898130D01*
X14453822Y-13898130D02*
X14463346Y-13879082D01*
X14463346Y-13879082D02*
X14463346Y-13869558D01*
X14463346Y-13869558D02*
X14453822Y-13850511D01*
X14453822Y-13850511D02*
X14434775Y-13840987D01*
X14434775Y-13840987D02*
X14406203Y-13840987D01*
X14406203Y-13840987D02*
X14387156Y-13831463D01*
X14387156Y-13831463D02*
X14377632Y-13812416D01*
X14377632Y-13812416D02*
X14377632Y-13802892D01*
X14377632Y-13802892D02*
X14387156Y-13783844D01*
X14387156Y-13783844D02*
X14406203Y-13774320D01*
X14406203Y-13774320D02*
X14434775Y-13774320D01*
X14434775Y-13774320D02*
X14453822Y-13783844D01*
X14530013Y-13983844D02*
X14539537Y-13974320D01*
X14539537Y-13974320D02*
X14558584Y-13945749D01*
X14558584Y-13945749D02*
X14568108Y-13926701D01*
X14568108Y-13926701D02*
X14577632Y-13898130D01*
X14577632Y-13898130D02*
X14587156Y-13850511D01*
X14587156Y-13850511D02*
X14587156Y-13812416D01*
X14587156Y-13812416D02*
X14577632Y-13764797D01*
X14577632Y-13764797D02*
X14568108Y-13736225D01*
X14568108Y-13736225D02*
X14558584Y-13717178D01*
X14558584Y-13717178D02*
X14539537Y-13688606D01*
X14539537Y-13688606D02*
X14530013Y-13679082D01*
X14891918Y-13983844D02*
X14882394Y-13974320D01*
X14882394Y-13974320D02*
X14863346Y-13945749D01*
X14863346Y-13945749D02*
X14853822Y-13926701D01*
X14853822Y-13926701D02*
X14844299Y-13898130D01*
X14844299Y-13898130D02*
X14834775Y-13850511D01*
X14834775Y-13850511D02*
X14834775Y-13812416D01*
X14834775Y-13812416D02*
X14844299Y-13764797D01*
X14844299Y-13764797D02*
X14853822Y-13736225D01*
X14853822Y-13736225D02*
X14863346Y-13717178D01*
X14863346Y-13717178D02*
X14882394Y-13688606D01*
X14882394Y-13688606D02*
X14891918Y-13679082D01*
X14968108Y-13774320D02*
X14968108Y-13907654D01*
X14968108Y-13793368D02*
X14977632Y-13783844D01*
X14977632Y-13783844D02*
X14996680Y-13774320D01*
X14996680Y-13774320D02*
X15025251Y-13774320D01*
X15025251Y-13774320D02*
X15044299Y-13783844D01*
X15044299Y-13783844D02*
X15053822Y-13802892D01*
X15053822Y-13802892D02*
X15053822Y-13907654D01*
X15177632Y-13907654D02*
X15158584Y-13898130D01*
X15158584Y-13898130D02*
X15149061Y-13888606D01*
X15149061Y-13888606D02*
X15139537Y-13869558D01*
X15139537Y-13869558D02*
X15139537Y-13812416D01*
X15139537Y-13812416D02*
X15149061Y-13793368D01*
X15149061Y-13793368D02*
X15158584Y-13783844D01*
X15158584Y-13783844D02*
X15177632Y-13774320D01*
X15177632Y-13774320D02*
X15206203Y-13774320D01*
X15206203Y-13774320D02*
X15225251Y-13783844D01*
X15225251Y-13783844D02*
X15234775Y-13793368D01*
X15234775Y-13793368D02*
X15244299Y-13812416D01*
X15244299Y-13812416D02*
X15244299Y-13869558D01*
X15244299Y-13869558D02*
X15234775Y-13888606D01*
X15234775Y-13888606D02*
X15225251Y-13898130D01*
X15225251Y-13898130D02*
X15206203Y-13907654D01*
X15206203Y-13907654D02*
X15177632Y-13907654D01*
X15301442Y-13774320D02*
X15377632Y-13774320D01*
X15330013Y-13707654D02*
X15330013Y-13879082D01*
X15330013Y-13879082D02*
X15339537Y-13898130D01*
X15339537Y-13898130D02*
X15358584Y-13907654D01*
X15358584Y-13907654D02*
X15377632Y-13907654D01*
X15596680Y-13774320D02*
X15596680Y-13974320D01*
X15596680Y-13783844D02*
X15615727Y-13774320D01*
X15615727Y-13774320D02*
X15653823Y-13774320D01*
X15653823Y-13774320D02*
X15672870Y-13783844D01*
X15672870Y-13783844D02*
X15682394Y-13793368D01*
X15682394Y-13793368D02*
X15691918Y-13812416D01*
X15691918Y-13812416D02*
X15691918Y-13869558D01*
X15691918Y-13869558D02*
X15682394Y-13888606D01*
X15682394Y-13888606D02*
X15672870Y-13898130D01*
X15672870Y-13898130D02*
X15653823Y-13907654D01*
X15653823Y-13907654D02*
X15615727Y-13907654D01*
X15615727Y-13907654D02*
X15596680Y-13898130D01*
X15806203Y-13907654D02*
X15787156Y-13898130D01*
X15787156Y-13898130D02*
X15777632Y-13879082D01*
X15777632Y-13879082D02*
X15777632Y-13707654D01*
X15968108Y-13907654D02*
X15968108Y-13802892D01*
X15968108Y-13802892D02*
X15958584Y-13783844D01*
X15958584Y-13783844D02*
X15939537Y-13774320D01*
X15939537Y-13774320D02*
X15901442Y-13774320D01*
X15901442Y-13774320D02*
X15882394Y-13783844D01*
X15968108Y-13898130D02*
X15949061Y-13907654D01*
X15949061Y-13907654D02*
X15901442Y-13907654D01*
X15901442Y-13907654D02*
X15882394Y-13898130D01*
X15882394Y-13898130D02*
X15872870Y-13879082D01*
X15872870Y-13879082D02*
X15872870Y-13860035D01*
X15872870Y-13860035D02*
X15882394Y-13840987D01*
X15882394Y-13840987D02*
X15901442Y-13831463D01*
X15901442Y-13831463D02*
X15949061Y-13831463D01*
X15949061Y-13831463D02*
X15968108Y-13821939D01*
X16034775Y-13774320D02*
X16110965Y-13774320D01*
X16063346Y-13707654D02*
X16063346Y-13879082D01*
X16063346Y-13879082D02*
X16072870Y-13898130D01*
X16072870Y-13898130D02*
X16091918Y-13907654D01*
X16091918Y-13907654D02*
X16110965Y-13907654D01*
X16253823Y-13898130D02*
X16234775Y-13907654D01*
X16234775Y-13907654D02*
X16196680Y-13907654D01*
X16196680Y-13907654D02*
X16177632Y-13898130D01*
X16177632Y-13898130D02*
X16168108Y-13879082D01*
X16168108Y-13879082D02*
X16168108Y-13802892D01*
X16168108Y-13802892D02*
X16177632Y-13783844D01*
X16177632Y-13783844D02*
X16196680Y-13774320D01*
X16196680Y-13774320D02*
X16234775Y-13774320D01*
X16234775Y-13774320D02*
X16253823Y-13783844D01*
X16253823Y-13783844D02*
X16263346Y-13802892D01*
X16263346Y-13802892D02*
X16263346Y-13821939D01*
X16263346Y-13821939D02*
X16168108Y-13840987D01*
X16434775Y-13907654D02*
X16434775Y-13707654D01*
X16434775Y-13898130D02*
X16415727Y-13907654D01*
X16415727Y-13907654D02*
X16377632Y-13907654D01*
X16377632Y-13907654D02*
X16358584Y-13898130D01*
X16358584Y-13898130D02*
X16349061Y-13888606D01*
X16349061Y-13888606D02*
X16339537Y-13869558D01*
X16339537Y-13869558D02*
X16339537Y-13812416D01*
X16339537Y-13812416D02*
X16349061Y-13793368D01*
X16349061Y-13793368D02*
X16358584Y-13783844D01*
X16358584Y-13783844D02*
X16377632Y-13774320D01*
X16377632Y-13774320D02*
X16415727Y-13774320D01*
X16415727Y-13774320D02*
X16434775Y-13783844D01*
X16510965Y-13983844D02*
X16520489Y-13974320D01*
X16520489Y-13974320D02*
X16539537Y-13945749D01*
X16539537Y-13945749D02*
X16549061Y-13926701D01*
X16549061Y-13926701D02*
X16558584Y-13898130D01*
X16558584Y-13898130D02*
X16568108Y-13850511D01*
X16568108Y-13850511D02*
X16568108Y-13812416D01*
X16568108Y-13812416D02*
X16558584Y-13764797D01*
X16558584Y-13764797D02*
X16549061Y-13736225D01*
X16549061Y-13736225D02*
X16539537Y-13717178D01*
X16539537Y-13717178D02*
X16520489Y-13688606D01*
X16520489Y-13688606D02*
X16510965Y-13679082D01*
M02*
